<svg width="40" height="40" viewBox="0 0 40 40" xmlns="http://www.w3.org/2000/svg">
    <g fill="none" fill-rule="evenodd">
        <path d="M35 16v3.3c-.8-.196-1.638-.3-2.5-.3C26.7 19 22 23.7 22 29.5c0 1.61.363 3.137 1.01 4.5H6a1 1 0 0 1-1-1V16h30z" fill="#EFCE4A" fill-rule="nonzero"/>
        <path d="M19 11V7a1 1 0 0 0-1-1H6a1 1 0 0 0-1 1v9h30v-4a1 1 0 0 0-1-1H19z" fill="#EBBA16" fill-rule="nonzero"/>
        <path d="M32.5 22a7.5 7.5 0 0 0-7.5 7.5 7.5 7.5 0 0 0 7.5 7.5 7.5 7.5 0 0 0 7.5-7.5 7.5 7.5 0 0 0-7.5-7.5z" fill="#FF000D"/>
        <path d="m29.694 25.29 2.806 2.807 2.806-2.806a.992.992 0 0 1 1.403 1.403L33.903 29.5l2.806 2.806a.992.992 0 0 1-1.403 1.403L32.5 30.903l-2.806 2.806a.992.992 0 0 1-1.403-1.403l2.806-2.806-2.806-2.806a.992.992 0 0 1 1.403-1.403z" fill="#FFF"/>
    </g>
</svg>
