<svg xmlns="http://www.w3.org/2000/svg" width="330.273" height="200" class="icon" viewBox="0 0 1691 1024"><path fill="#333" d="M1169.381 410.727a25.822 25.822 0 0 1 26.178 25.51 25.822 25.822 0 0 1-26.178 25.51H130.891c-43.274 0-78.49 34.37-78.49 76.577v357.278c0 42.206 35.171 76.576 78.49 76.576h1290.344c43.274 0 78.49-34.37 78.49-76.576V538.324a25.822 25.822 0 0 1 26.178-25.51 25.822 25.822 0 0 1 26.178 25.51v357.278c0 70.388-58.678 127.597-130.89 127.597H130.89C58.678 1023.199 0 965.989 0 895.602V538.324c0-70.343 58.678-127.597 130.89-127.597h1038.491zM298.2 569.89c53.113 0 87.572 27.603 105.069 69.586 1.825 4.006 2.537 7.568 2.537 11.753a25.6 25.6 0 0 1-16.16 23.596 31.966 31.966 0 0 1-12.066 2.671c-10.106 0-18.209-5.52-22.438-16.027-10.596-26.267-27.336-40.247-56.63-40.247-46.925 0-77.021 43.052-77.021 113.572 0 71.456 30.852 113.217 78.4 113.217 33.257 0 59.035-23.374 61.929-58.055l.267-6.59v-9.304l.223-1.202-.268.133H316.81c-14.29 0-22.705-10.418-22.705-25.065 0-13.356 6.767-23.596 18.61-25.555l4.095-.311h55.562c23.685 0 35.483 12.154 37.041 36.551l.179 5.877v108.63c0 15.583-8.994 25.466-23.418 25.466-12.555 0-21.548-7.346-23.374-18.699l-.311-3.65-4.898 3.962c-16.116 11.887-36.774 19.144-58.366 19.144-80.182 0-130.045-65.579-130.045-164.905 0-97.277 50.175-164.548 129.02-164.548zm352.07 0c13.979 0 24.219 7.48 26.133 20.346l.312 4.452v177.637c0 81.651-42.874 127.018-120.384 127.018-73.816 0-116.778-41.939-119.85-118.113l-.178-8.905V594.687c0-15.627 10.997-24.798 26.801-24.798 13.49 0 23.819 7.568 25.778 20.39l.312 4.452v176.391c0 51.912 22.126 76.576 66.78 76.576 43.141 0 65.446-22.26 67.672-68.918l.178-8.014V594.731c0-15.582 10.908-24.842 26.446-24.842zm264.007 0c15.627 0 25.778 10.907 25.778 26.089 0 13.757-8.236 24.22-21.237 26.178l-4.496.356h-148.12c-4.23 0-5.165.223-5.343 3.072l-.09 75.908h134.632c12.198 0 21.058 7.034 24.13 17.586l.89 4.14.267 4.408a24.887 24.887 0 0 1-21.013 25.376l-4.274.312H760.77v89.487c0 1.87.445 2.894 1.959 3.428l1.914.4 2.805.09h150.658c15.582 0 25.733 10.907 25.733 26.133 0 13.445-8.28 24.13-21.236 26.134l-4.497.356H755.25c-32.811 0-49.64-14.603-51.644-45.322l-.178-6.367V621.978c0-33.212 14.692-49.952 45.456-51.911l6.366-.178h159.073zm143.98 0c59.124 0 93.182 25.065 107.562 63.664l2.226 6.59c1.158 2.938 1.781 5.965 1.781 9.037 0 12.288-9.305 21.726-21.37 24.13a41.004 41.004 0 0 1-8.325.935 26.045 26.045 0 0 1-25.466-17.63c-6.678-23.73-23.195-36.952-56.408-36.952-36.64 0-56.096 15.938-56.096 38.733 0 22.216 9.84 32.767 42.117 40.158l35.795 7.346c69.763 14.78 99.726 40.87 99.726 97.589 0 57.209-45.055 95.853-115.754 95.853-76.308 0-107.384-28.493-123.723-83.699l-.89-5.03c-.09-.49-.045-.891-.045-1.782 0-12.465 9.038-21.815 22.038-24.931l3.561-.534a32.322 32.322 0 0 1 4.453-.312c11.842 0 22.17 6.366 25.51 18.12 8.993 33.48 24.397 48.082 67.137 48.082 39.178 0 62.24-17.675 62.24-45.41 0-24.398-11.575-35.796-47.993-44.255L1038 751.4c-63.664-13.134-90.91-39.49-90.91-92.96 0-51.688 40.958-88.551 111.167-88.551zm330.656 0c13.801 0 22.394 12.198 22.394 26.757 0 12.644-7.302 23.596-18.521 25.644l-3.873.356-71.723-.045v251.542a23.819 23.819 0 0 1-17.497 24.041l-4.051.89-4.363.268c-13.401 0-23.685-8.014-25.644-20.747l-.312-4.452V622.601h-71.678c-11.13 0-19.01-7.48-21.726-17.808l-.757-3.962-.267-4.185c0-13.09 6.99-24.309 18.431-26.401l3.963-.356h195.624zm-5.922-198.028c26.268 0 47.638 20.88 47.638 46.48 0 25.599-21.37 46.479-47.638 46.479-26.267 0-47.681-20.88-47.681-46.48 0-25.6 21.37-46.48 47.637-46.48zm.312-185.919a234.402 234.402 0 0 1 169.179 65.624 34.28 34.28 0 0 1 .801 49.329 36.418 36.418 0 0 1-50.575.712 167.353 167.353 0 0 0-118.247-45.9 167.309 167.309 0 0 0-116.867 49.328 36.507 36.507 0 0 1-50.576.668 34.28 34.28 0 0 1-.757-49.285 239.12 239.12 0 0 1 167.042-70.476zM1380.854.024c104.357-1.158 203.816 40.692 278.611 119.27a34.236 34.236 0 0 1-1.914 49.24 36.418 36.418 0 0 1-50.531-1.825 306.748 306.748 0 0 0-224.964-96.966c-84.366 1.336-163.346 38.377-222.38 104.268a36.373 36.373 0 0 1-50.487 3.25 34.236 34.236 0 0 1-3.339-49.196c72.613-80.85 170.203-126.26 275.004-127.997z"/></svg>