<svg xmlns="http://www.w3.org/2000/svg" width="200" height="200" class="icon" viewBox="0 0 1024 1024"><path fill="#FFBE00" d="M514.901 42.667c163.627 1.578 295.766 136.746 295.766 303.274A304.512 304.512 0 0 1 708.82 573.995a365.013 365.013 0 0 0-83.029 108.672H397.696a396.117 396.117 0 0 0-85.376-111.232 304.555 304.555 0 0 1-98.987-225.494c0-167.85 136.278-304.853 301.568-303.274zm35.755 221.013-85.376 85.29-89.813-67.37-51.2 68.267 149.077 111.786 85.333-85.333 89.856 67.413 51.2-68.266L550.656 263.68zM512 981.333a42.667 42.667 0 0 1-42.667-42.666v-21.334h85.334v21.334A42.667 42.667 0 0 1 512 981.333zM554.667 896h-85.334A85.333 85.333 0 0 1 384 810.667v-85.334h256v85.334A85.333 85.333 0 0 1 554.667 896z"/></svg>