<svg class="icon" viewBox="0 0 1024 1024" xmlns="http://www.w3.org/2000/svg" width="200" height="200"><path d="M542.208 695.685a42.107 42.107 0 0 1 0 59.904 43.008 43.008 0 0 1-60.416 0 42.107 42.107 0 0 1 0-59.904 43.008 43.008 0 0 1 60.416 0zM295.014 246.927l2.192 2.007 443.74 443.7a34.14 34.14 0 0 1-46.1 50.278l-2.192-1.987-443.72-443.74a34.14 34.14 0 0 1 46.08-50.278zm170.947 303.514 62.935 62.915a103.014 103.014 0 0 0-89.416 28.405 34.406 34.406 0 0 1-48.332 0 33.69 33.69 0 0 1 0-47.923 170.496 170.496 0 0 1 74.813-43.418zm263.598-52.47a33.69 33.69 0 0 1 0 47.923 34.406 34.406 0 0 1-48.333 0 238.756 238.756 0 0 0-113.93-63.078L493.67 409.17c84.726-4.977 171.152 24.617 235.889 88.801zm-367.063-50.995 50.606 50.586a238.838 238.838 0 0 0-70.308 48.332 34.406 34.406 0 0 1-48.353 0 33.69 33.69 0 0 1 0-47.923 307.65 307.65 0 0 1 68.055-50.995zm463.75-44.851a33.69 33.69 0 0 1 0 47.923 34.406 34.406 0 0 1-48.334 0C684.401 357.335 553.902 323.666 433.5 349.02L377.958 293.5c153.027-47.841 327.005-11.633 448.308 108.605zM263.7 348.14l49.152 49.192a376.689 376.689 0 0 0-66.764 52.716 34.406 34.406 0 0 1-48.333 0 33.69 33.69 0 0 1 0-47.923A445.89 445.89 0 0 1 263.7 348.14z" fill="#A3A3A3" fill-opacity=".7"/></svg>