<svg xmlns="http://www.w3.org/2000/svg" width="200" height="200" class="icon" viewBox="0 0 1024 1024"><path fill="#A3A3A3" fill-opacity=".7" d="m295.035 246.927 2.17 2.007 477.86 477.86a34.14 34.14 0 0 1-46.08 50.279l-2.19-2.007-477.86-477.86a34.14 34.14 0 0 1 46.08-50.279zm-67.727 64.533 1.72 1.945 1.802 1.905 39.608 39.608h-20.52v161.137h43.397c20.439 0 37.335 16.323 39.649 37.294l.266 4.915v127.877l268.411-.02 47.739 47.739H328.008c-20.419 0-37.335-16.323-39.63-37.294l-.286-4.915V563.773h-43.356c-20.439 0-37.335-16.322-39.65-37.294l-.266-4.915V349.43c0-15.934 8.397-29.84 20.726-37.028l1.782-.942zm551.976-4.26c20.44 0 37.336 16.323 39.65 37.294l.266 4.915v172.135c0 21.627-15.442 39.506-35.267 41.943l-4.649.286h-43.376l-.02 87.634-45.118-45.117v-48.026c0-21.606 15.442-39.485 35.287-41.943l4.649-.266h43.377V354.918H439.378L391.66 307.2h387.624zm-460.656 95.908 46.264 46.264v2.314c0 11.53-10.342 20.89-23.122 20.89-11.489 0-21.033-7.578-22.835-17.51l-.307-3.38v-48.578zm250.184-38.195c11.51 0 21.032 7.577 22.835 17.51l.307 3.38v65.883c0 11.53-10.363 20.89-23.142 20.89-11.51 0-21.054-7.578-22.836-17.51l-.307-3.38v-65.884c0-11.53 10.363-20.89 23.143-20.89zm113.52 0c11.49 0 21.033 7.577 22.835 17.51l.308 3.38v65.883c0 11.53-10.363 20.89-23.143 20.89-11.51 0-21.053-7.578-22.835-17.51l-.307-3.38v-65.884c0-11.53 10.363-20.89 23.142-20.89zm-227.041 0c11.51 0 21.053 7.577 22.835 17.51l.307 3.38-.02 8.15-28.467-28.467a25.6 25.6 0 0 1 5.324-.573z"/></svg>