<svg class="icon" viewBox="0 0 1024 1024" xmlns="http://www.w3.org/2000/svg" width="200" height="200"><path d="M99.146 455.111h113.778q56.889 0 56.889 56.889v455.111q0 56.889-56.89 56.889H99.147q-56.889 0-56.889-56.889V512q0-56.889 56.889-56.889ZM440.47999999999996 227.556h113.777q56.889 0 56.889 56.888v682.667q0 56.889-56.889 56.889H440.48q-56.889 0-56.889-56.889V284.444q0-56.888 56.89-56.888Z" fill="#F0A35A"/><path d="M781.813 0H895.59q56.89 0 56.89 56.889V967.11q0 56.889-56.89 56.889H781.813q-56.89 0-56.89-56.889V56.89Q724.924 0 781.814 0Z" fill="#B3B3B3" opacity=".5"/></svg>