<svg class="icon" viewBox="0 0 1024 1024" xmlns="http://www.w3.org/2000/svg" width="200" height="200"><path d="M779.284 307.2c20.44 0 37.336 16.323 39.65 37.294l.266 4.915v172.135c0 21.627-15.442 39.506-35.267 41.943l-4.649.286h-43.376v127.878c0 21.606-15.442 39.485-35.267 41.922l-4.649.287H328.008c-20.419 0-37.335-16.323-39.63-37.294l-.286-4.915V563.773h-43.356c-20.439 0-37.335-16.322-39.65-37.294l-.266-4.915V349.43c0-21.627 15.442-39.506 35.267-41.943l4.649-.287h534.569zm-5.201 47.718H249.917v161.137h43.398c20.439 0 37.335 16.323 39.649 37.294l.266 4.915v127.877h357.56V558.264c0-21.606 15.422-39.485 35.267-41.943l4.649-.266h43.377V354.918zm-432.313 9.995c11.51 0 21.054 7.577 22.835 17.51l.308 3.38v65.883c0 11.53-10.363 20.89-23.143 20.89-11.489 0-21.033-7.578-22.835-17.51l-.307-3.38v-65.884c0-11.53 10.363-20.89 23.142-20.89zm113.52 0c11.51 0 21.054 7.577 22.836 17.51l.307 3.38v65.883c0 11.53-10.363 20.89-23.142 20.89-11.51 0-21.054-7.578-22.835-17.51l-.308-3.38v-65.884c0-11.53 10.363-20.89 23.143-20.89zm113.522 0c11.51 0 21.032 7.577 22.835 17.51l.307 3.38v65.883c0 11.53-10.363 20.89-23.142 20.89-11.51 0-21.054-7.578-22.836-17.51l-.307-3.38v-65.884c0-11.53 10.363-20.89 23.143-20.89zm113.52 0c11.49 0 21.033 7.577 22.835 17.51l.308 3.38v65.883c0 11.53-10.363 20.89-23.143 20.89-11.51 0-21.053-7.578-22.835-17.51l-.307-3.38v-65.884c0-11.53 10.363-20.89 23.142-20.89z" fill="#20C66E"/></svg>