<svg class="icon" viewBox="0 0 1024 1024" xmlns="http://www.w3.org/2000/svg" width="200" height="200"><path d="M542.208 695.685a42.107 42.107 0 0 1 0 59.904 43.008 43.008 0 0 1-60.416 0 42.107 42.107 0 0 1 0-59.904 43.008 43.008 0 0 1 60.416 0zm90.665-101.847a33.69 33.69 0 0 1 0 47.923 34.406 34.406 0 0 1-48.353 0 103.199 103.199 0 0 0-145.04 0 34.406 34.406 0 0 1-48.332 0 33.69 33.69 0 0 1 0-47.923c66.744-66.191 174.96-66.191 241.725 0z" fill="#EE3A52"/><path d="M729.559 497.971a33.69 33.69 0 0 1 0 47.923 34.406 34.406 0 0 1-48.333 0c-93.47-92.651-244.982-92.651-338.432 0a34.406 34.406 0 0 1-48.353 0 33.69 33.69 0 0 1 0-47.923c120.156-119.111 314.982-119.111 435.118 0zm96.686-95.846a33.69 33.69 0 0 1 0 47.923 34.406 34.406 0 0 1-48.333 0c-146.862-145.613-384.962-145.613-531.824 0a34.406 34.406 0 0 1-48.333 0 33.69 33.69 0 0 1 0-47.923c173.547-172.073 454.943-172.073 628.49 0z" fill="#AAA" fill-opacity=".4"/></svg>