<svg width="300" height="300" xmlns="http://www.w3.org/2000/svg"><defs><filter x="-135%" y="-35.5%" width="370%" height="171.1%" filterUnits="objectBoundingBox" id="a"><feGaussianBlur stdDeviation="9" in="SourceGraphic"/></filter></defs><g fill="none" fill-rule="evenodd"><g opacity=".5" stroke="#999" stroke-linecap="round" stroke-linejoin="round"><path d="M140 32.635 126.595 28c-2.914 2.897-8.16 9.849-11.074 14.483-2.914 4.635-6.411 10.428-8.16 15.063-1.165 11.586-2.587 33.283-2.33 89.216.042 9.37 2.913 18.973 2.913 29.546L106.78 269c.777-1.159 2.331-2.124 4.662-2.897" stroke-width="3"/><path d="m133 31.58-2.733-.465a1 1 0 0 0-1.025.469l-16.107 26.699h0L112 269" stroke-width="2"/><path d="m140 31.156-4.004-.981a1 1 0 0 0-1.094.454l-16.723 27.7h0L117 178M116.5 269v-21" stroke-width="2"/><path stroke-width="2" d="m142 30.58-1.765-.58-17.647 28.97L122 165M112 268l9 1"/><path d="M207.997 253.635c-.066-7.976-.066-13.957 0-17.943.092-5.633-1.74-15.44-1.74-19.101 0-24.311-1.147-45.41-.58-63.671.25-8.057 1.95-20.37 1.74-28.362-1.124-42.6-3.153-70.001-6.09-82.204a1.998 1.998 0 0 0-1.401-1.46l-55.427-15.646a1 1 0 0 0-1.206.601 103.864 103.864 0 0 1-7.794 15.937 137.995 137.995 0 0 1-10.44 15.05c1.934 24.696 2.32 53.637 1.16 86.823-.362 10.368-5.219 22.534-5.219 29.52v95.977a2.031 2.031 0 0 0 2.12 1.72c17.63-1.04 30.264-2.157 37.898-3.349 29.358-4.583 46.979-10.872 46.979-13.892Z" stroke-width="3"/><path d="M177 130c0 11.022-2 12.762-2 38.867V235" stroke-width="3"/></g><path stroke="#FF8C31" stroke-width="2.5" stroke-linecap="round" stroke-linejoin="round" d="m116.75 183-.5 59"/><path d="M1 184.997C1 205.985 5.478 223 11 223s10-17.015 10-38.003C21 164.015 16.522 147 11 147S1 164.015 1 184.997" fill="#FF8C31" opacity=".36" filter="url(#a)" transform="translate(105 25)"/></g></svg>