<svg width="300" height="300" xmlns="http://www.w3.org/2000/svg"><defs><filter x="-112.5%" y="-51.4%" width="325%" height="202.9%" filterUnits="objectBoundingBox" id="a"><feGaussianBlur stdDeviation="6" in="SourceGraphic"/></filter></defs><g fill="none" fill-rule="evenodd"><g transform="translate(100.5 18.636)"><path d="m47.045 0 2.925.121.456 2.798C57.801 48.415 61.49 83.723 61.49 108.864c0 5.563-.233 9.522-.769 14.151l-.2 1.654-.885 6.886-.207 1.783-.15 1.385-.095.937c-.877 8.804-1.335 19.241-1.378 35.218l-.003 2.56.008 3.215.017 2.461c.156 16.668 1.019 27.343 2.474 35.003l.143.73.19.885c.594 2.7 1.627 6.835 1.695 7.153.45 2.113.66 3.993.66 6.343v24.513c0 3.99-3.188 6.34-8.926 7.11l-1.699-1.487h-41.74l-1.7 1.487c-5.62-.754-8.794-3.025-8.921-6.868L0 253.741v-24.513c0-2.123.15-3.859.468-5.735l.12-.662 1.04-4.982c.202-.99.393-1.96.535-2.738l.108-.61.172-1.055.173-1.147.168-1.211c.99-7.41 1.576-17.407 1.694-31.977l.015-2.457.007-3.216-.003-2.576-.013-3.346c-.08-14.688-.476-24.472-1.19-32.87l-.12-1.365-.209-2.178-.528-5.054-.318-3.125-.117-1.297-.11-1.347c-.255-3.345-.377-6.567-.39-10.637v-1.552C1.58 83.746 5.354 50.03 12.823 6.926l.703-4.027.496-2.798L16.955 0l3.841 15.363H23v-15h4v15h3v-15h4v15h3v-15h4v15h2.203L47.045 0ZM9.242 51.404l.178-3.069-.125.928c-3.14 23.53-4.738 43.121-4.794 58.766v1.638c.017 4.737.183 8.288.54 12.273l.065.708.134 1.374.796 7.648.13 1.401c.781 8.626 1.217 18.53 1.313 33.6l.016 3.388.005 3.379-.007 3.287-.016 2.447c-.13 16.04-.829 26.632-2.015 34.377l-.057.373L5.229 215l-.168.942-.188.981a278.21 278.21 0 0 1-.657 3.235l-.68 3.232-.11.6a29.151 29.151 0 0 0-.422 4.663l-.004.575v24.513c0 1.756 1.27 3.011 4.163 3.735l.295.07.167.037v-30.751c-.052-4.326.618-8.026 2.119-13.088l.191-.64 1.322-4.318.277-.934c.705-2.417.903-3.43.951-4.624l.014-.612.001-72.252-.005-.57c-.049-3.046-.497-6.215-1.578-11.648l-.32-1.59-1.12-5.41-.497-2.501-.197-1.036c-.85-4.53-1.172-7.31-1.164-10.152l.006-.556.034-1.82.077-3.753.085-3.708c.299-12.285.743-23.82 1.332-34.604l.09-1.612Zm44.388-5.75.206 4.016.15 3.1c.61 13.007 1.058 27.107 1.345 42.302l.034 1.829c.077 4.29-.46 7.87-2.123 15.638l-.692 3.194c-1.41 6.542-2.023 10.438-2.058 14.282v72.803l.011.4.013.249c.076 1.24.367 2.413 1.424 5.908l1.115 3.651c1.629 5.412 2.364 9.297 2.31 13.806v30.75l.167-.036c3.101-.71 4.458-1.99 4.458-3.805v-24.513c0-1.94-.154-3.497-.488-5.2l-.14-.66-.995-4.115-.456-1.958a86.365 86.365 0 0 1-.444-2.04l-.18-.933-.133-.743c-1.526-8.646-2.351-20.825-2.351-40.141l.003-2.55.016-3.365.02-2.503c.145-14.19.678-23.702 1.607-32.03l.252-2.15.882-6.852.157-1.312c.471-4.066.702-7.587.743-12.216l.007-1.596-.005-1.67-.016-1.7c-.19-15.148-1.642-33.801-4.356-55.954l-.483-3.885Zm-4.86-27.292H14.82l-.226 2.24c-1.938 19.532-3.211 42.525-3.819 68.976l-.068 3.125-.082 4.252-.006.488c-.01 3.173.443 6.376 1.69 12.57l.302 1.485.723 3.479.416 2.038.218 1.094c1.048 5.327 1.484 8.522 1.528 11.704l.004.55-.001 72.363-.006.364c-.036 1.714-.252 2.845-1.286 6.305l-.333 1.104-.88 2.862c-1.623 5.255-2.365 8.86-2.371 12.976l.002.477v29.549h41.74v-29.55c.05-4.162-.636-7.786-2.187-12.936l-1.403-4.61-.297-1.007-.273-.962c-.625-2.264-.707-3.124-.714-4.66v-72.274c0-4.109.594-8.084 1.997-14.658l.912-4.228.518-2.482.21-1.05c.972-4.925 1.295-7.78 1.237-10.991l-.082-4.305-.093-4.354-.11-4.624c-.632-24.976-1.735-46.747-3.31-65.31ZM15.952 8.357c-.282 2.28-.553 4.616-.813 7.007l2.564-.001-1.751-7.006Zm31.95.579-1.606 6.427h2.213a633.972 633.972 0 0 0-.45-4.846l-.156-1.581Z" fill-opacity=".7" fill="#999" fill-rule="nonzero"/><path d="M35.5 98.864h-8a4.5 4.5 0 0 0-4.5 4.5v8a4.5 4.5 0 0 0 4.5 4.5h8a4.5 4.5 0 0 0 4.5-4.5v-8a4.5 4.5 0 0 0-4.5-4.5Zm-8 1h8a3.5 3.5 0 0 1 3.5 3.5v8a3.5 3.5 0 0 1-3.5 3.5h-8a3.5 3.5 0 0 1-3.5-3.5v-8a3.5 3.5 0 0 1 3.5-3.5Z" fill-opacity=".7" fill="#999" fill-rule="nonzero"/><text font-family="PingFangSC-Semibold, PingFang SC" font-size="4" font-weight="500" fill="#999">
                <tspan x="22.08" y="95.364">CONNECT</tspan>
            </text><text font-family="PingFangSC-Semibold, PingFang SC" font-size="4" font-weight="500" fill="#999">
                <tspan x="27.272" y="211.364">WAN</tspan>
            </text><text font-family="PingFangSC-Semibold, PingFang SC" font-size="4" font-weight="500" fill="#999">
                <tspan x="27.994" y="127.364">LAN</tspan>
            </text><text font-family="PingFangSC-Semibold, PingFang SC" font-size="4" font-weight="500" fill="#999">
                <tspan x="25.056" y="238.364">POWER</tspan>
            </text><text font-family="PingFangSC-Semibold, PingFang SC" font-size="4" font-weight="500" fill="#999">
                <tspan x="25.006" y="76.364">RESET</tspan>
            </text><circle fill-opacity=".5" fill="#999" cx="32" cy="80.864" r="1.5"/><circle fill-opacity=".5" fill="#999" cx="29.5" cy="227.364" r="5"/><path d="M32 132.364v2.099h3.214l.001 4.2h2.142l.001 1.05H39.5v6.3h-2.142v1.05h-2.143v4.2H32v2.1h-5.357v-2.1H24.5v-16.8h2.143v-2.1H32Zm-.5 15.409h-5v1.09h5v-1.09Zm0-2.182h-5v1.091h5v-1.09Zm0-2.182h-5v1.091h5v-1.09Zm0-2.182h-5v1.091h5v-1.09Zm0-2.181h-5v1.09h5v-1.09Zm0-2.182h-5v1.09h5v-1.09ZM32 157.364v2.099h3.214l.001 4.2h2.142l.001 1.05H39.5v6.3h-2.142v1.05h-2.143v4.2H32v2.1h-5.357v-2.1H24.5v-16.8h2.143v-2.1H32Zm-.5 15.409h-5v1.09h5v-1.09Zm0-2.182h-5v1.091h5v-1.09Zm0-2.182h-5v1.091h5v-1.09Zm0-2.182h-5v1.091h5v-1.09Zm0-2.181h-5v1.09h5v-1.09Zm0-2.182h-5v1.09h5v-1.09Z" fill-opacity=".5" fill="#999"/><path d="M32 182.364v2.099h3.214l.001 4.2h2.142l.001 1.05H39.5v6.3h-2.142v1.05h-2.143v4.2H32v2.1h-5.357v-2.1H24.5v-16.8h2.143v-2.1H32Zm-.5 15.409h-5v1.09h5v-1.09Zm0-2.182h-5v1.091h5v-1.09Zm0-2.182h-5v1.091h5v-1.09Zm0-2.182h-5v1.091h5v-1.09Zm0-2.181h-5v1.09h5v-1.09Zm0-2.182h-5v1.09h5v-1.09Z" fill-opacity=".5" fill="#FF5B5B"/><path stroke="#999" stroke-linecap="square" d="M22.5 182.364h-2v27.5H25M40.5 182.364h2v27.5h-4M22.5 179.364h-2v-53H25M40.5 179.364h2v-53h-4"/></g><g transform="translate(167 54)"><path d="M1.25 32.877c-5.67 23.137 8.489 46.49 31.627 52.163l.709.167a43.124 43.124 0 0 0 11.423 1.042l.632-.033-.015.442a45.193 45.193 0 0 1-.586 5.546l-.67 3.893 3.66-1.827.29-.156.342-.194.388-.23.43-.268.472-.306a28.86 28.86 0 0 0 4.343-3.517l.39-.394c1.674-1.722 3.072-3.622 4.11-5.708l.09-.192.168-.064c12.864-5.112 22.62-16.09 25.987-29.829C90.711 30.275 76.551 6.921 53.413 1.25 30.275-4.421 6.921 9.739 1.25 32.877ZM52.937 3.193c22.065 5.408 35.569 27.68 30.16 49.743-3.376 13.773-13.322 24.21-25.686 28.793-1.217 2.821-3.087 5.096-4.906 6.819l-.454.419c-.15.136-.3.268-.449.396l-.442.373-.433.35-.212.166-.414.315-.201.149-.39.28-.371.257-.515.342-.459.29-.393.237-.62.349-.141.073c.456-2.645.73-5.962.627-8.5a41.06 41.06 0 0 1-14.285-.946c-22.065-5.41-35.569-27.68-30.16-49.745C8.6 11.288 30.873-2.216 52.937 3.193Z" fill-opacity=".5" fill="#999" fill-rule="nonzero"/><path d="m36.402 2.556-.02 1.063-.015.646-.015.649-.072 2.618-.086 2.658c-.036 1.032-.165 2.136-.38 3.365l-.098.534-.116.587-.127.605-.142.642-.162.7-.682 2.866-.255 1.113-.151.712-.087.45-.067.394-.05.35-.033.32-.015.202-.015.4-.002 43.898.017.016.022.005.324-.02.322-.018 2.481-.156 2.322-.158 1.636-.12 1.546-.12 1.922-.164 1.336-.124 1.245-.126 1.156-.126 1.065-.128.975-.13.6-.086.976-.153c.46-.074.914-.149 1.363-.225l.67-.114 1.318-.234 1.285-.24 1.252-.246 1.216-.251c.749-.158 1.475-.319 2.179-.482l.695-.163 1.079-.264 1.036-.267c.811-.215 1.58-.432 2.302-.65l.533-.163.733-.235c.237-.078.466-.156.687-.233l.325-.115.613-.228a17.804 17.804 0 0 0 1.732-.756 5.54 5.54 0 0 0 .832-.506l.087-.071.028-.024c.015-.012.025-.018.031-.016l.008.01.003.023-.013-1.97-.008-3.131.008-1.822.016-1.402v-.107l-.002-.11-.016-.466-.006-.124-.007-.127-.036-.539-.051-.592-.065-.648-.08-.708-.38-3.116-.1-.912-.04-.505-.01-.272-.014-3.223-.023-2.25-.045-2.904-.11-5.542-.11-5.84-.035-2.837-.007-2.366.01-1.42.024-1.368.029-1.143.035-1.05.039-.749.024-.352c.575.522 1.134 1.06 1.676 1.612l-.029.893-.018.753-.015.75-.018 1.532-.003.803v.757l.017 2.314.047 3.163.22 11.33.043 3.487.012 1.849.003 1.647.004.175.019.328.064.66.434 3.593.083.741.068.68.053.625.011.148.01.145.031.55.006.13.004.127.008.485-.006.527-.015 1.73v2.92l.02 3.226c0 .498-.425 1.02-1.22 1.555l-.19.124-.305.183-.162.092-.17.091-.36.184-.189.093-.4.184-.425.186-.452.185-.117.046-.118.046-.49.186-.513.185-.538.185-.562.184-.585.184-.608.183-.63.183-.652.182-1.018.27-.704.18-1.095.266-.754.175-1.167.26-.801.172-1.235.254-1.274.249-.87.163-1.334.24-1.37.235-.93.153-.946.15-.591.088-.63.089-1.02.13-1.11.13-1.2.128-.85.084-1.818.168-1.469.123-2.098.163-1.678.12-2.378.159-2.538.155a1.804 1.804 0 0 1-1.836-1.292l-.842-.094a.525.525 0 0 1-.86-.095l-1.08-.12a.527.527 0 0 1-.42.388l-.094.008a.526.526 0 0 1-.515-.435l-.008-.095v-.281c-.517.218-.87.454-1.065.688l-.064.085c-.464.693-1.52.401-1.6-.389l-.005-.11.532-42.297-.004-.51-.013-.503-.022-.504-.03-.51-.042-.526-.051-.55-.063-.579-.074-.617-.185-1.38-.422-2.92-.152-1.13-.089-.735-.068-.661-.036-.411-.04-.589-.026-.574-.01-.386-.003-.396-.015-5.23c.578-.29 1.164-.566 1.755-.828v1.012l.006 2.977.008 2.06.008.555.012.362.017.347.022.354.046.556.04.394.073.643.126.979.119.85.37 2.546.146 1.084.12.974.064.6.053.571.042.55.032.534.023.53.007.264.009.536.001.272-.511 40.52.16-.075c.163-.072.336-.141.516-.207l.278-.096.016-.005.327-60.56c.35-.132.7-.26 1.054-.382l-.33 61.4a.886.886 0 0 1-.003.764l-.002.01.996.11v-8.768a.526.526 0 0 1 1.045-.094l.008.094v8.885l.65.072V23.517c.001-.096.003-.19.006-.282l.01-.275.015-.22.03-.328.046-.35.085-.523.119-.613.157-.731.347-1.499.086-15.413c.35-.09.7-.175 1.053-.255l-.061 10.946.042-.212c.227-1.194.371-2.253.43-3.223l.019-.41.022-.666.022-.663.079-2.627.017-.65.017-.649.044-1.985a40.92 40.92 0 0 1 1.76-.333Zm22.944 2.772-.017.409c-.019.388-.044.775-.077 1.176l-.08.872-.26 2.515-.065.682-.088 1.044-.052.715-.069 1.111-.04.773-.034.802-.043 1.27-.022.897-.024 1.429-.01 1.015-.006 1.627V51.85a.877.877 0 0 1-1.748.11l-.006-.11V21.102l.01-1.603.02-1.485.02-.93.04-1.318.052-1.236.062-1.168.049-.748.081-1.085.093-1.054.32-3.114c.09-.963.142-1.8.16-2.725.584.216 1.163.448 1.734.692ZM31.854 3.583l-.219 22.256a.526.526 0 0 1-.436.513l-.095.008a.526.526 0 0 1-.514-.437l-.007-.095.216-21.928c.35-.11.702-.216 1.055-.317Z" fill="#999"/><path d="M31 27.545a.57.57 0 0 1 .559.483l.007.093-.229 26.929a.57.57 0 0 1-1.134.083l-.007-.093.229-26.93a.57.57 0 0 1 .575-.565Z" fill="#2A75FF" fill-rule="nonzero"/><ellipse fill="#367DFF" opacity=".5" filter="url(#a)" cx="30.764" cy="41.158" rx="8" ry="17.5"/></g><path d="M107.003 125.585C107.224 111.97 118.332 101 131.998 101 145.806 101 157 112.193 157 125.998 157 139.806 145.806 151 131.998 151c-13.667 0-24.774-10.972-24.995-24.588l-.003-.414.003-.413Zm1.997.413C109 138.702 119.298 149 131.998 149 144.702 149 155 138.702 155 125.998c0-12.7-10.298-22.998-23.002-22.998-12.7 0-22.998 10.298-22.998 22.998Z" fill-opacity=".9" fill="#F84343" fill-rule="nonzero"/></g></svg>