<svg width="300" height="300" xmlns="http://www.w3.org/2000/svg" xmlns:xlink="http://www.w3.org/1999/xlink"><defs><filter x="-438.2%" y="-21.4%" width="976.4%" height="142.8%" filterUnits="objectBoundingBox" id="a"><feOffset in="SourceAlpha" result="shadowOffsetOuter1"/><feGaussianBlur stdDeviation="2" in="shadowOffsetOuter1" result="shadowBlurOuter1"/><feColorMatrix values="0 0 0 0 1 0 0 0 0 1 0 0 0 0 1 0 0 0 0.975914695 0" in="shadowBlurOuter1"/></filter><filter x="-112.5%" y="-51.4%" width="325%" height="202.9%" filterUnits="objectBoundingBox" id="c"><feGaussianBlur stdDeviation="6" in="SourceGraphic"/></filter><path d="M31 27.545a.57.57 0 0 1 .559.483l.007.093-.229 26.929a.57.57 0 0 1-1.134.083l-.007-.093.229-26.93a.57.57 0 0 1 .575-.565Z" id="b"/></defs><g fill="none" fill-rule="evenodd"><g transform="translate(27.469 20.596)"><path d="m44.104 0 2.743.114.428 2.623C54.189 45.389 57.647 93.49 57.647 117.06c0 5.215-.218 8.927-.721 13.267l-.188 1.55-.83 6.455-.194 1.673-.14 1.298-.09.878c-.821 8.254-1.25 18.039-1.29 33.017l-.004 2.4.007 3.014.017 2.308c.146 15.626.955 25.633 2.32 32.815l.133.683.178.83c.557 2.533 1.525 6.408 1.59 6.707.422 1.98.618 3.743.618 5.946v22.981c0 3.74-2.989 5.944-8.368 6.665l-1.593-1.393H9.961l-1.593 1.393c-5.27-.706-8.245-2.836-8.364-6.438L0 252.882v-22.98c0-1.991.14-3.618.439-5.377l.112-.62.976-4.671c.188-.929.368-1.839.501-2.567l.101-.572.161-.99.162-1.075.158-1.135c.927-6.947 1.477-16.32 1.588-29.978l.014-2.304.007-3.015-.003-2.415-.012-3.137c-.076-13.77-.447-22.942-1.117-30.816l-.112-1.28-.195-2.04-.496-4.739-.298-2.93-.11-1.215-.102-1.263c-.24-3.136-.354-6.157-.367-9.973v-1.455C1.481 93.512 5.02 46.905 12.022 6.493l.66-3.775.465-2.624L15.896 0l3.6 14.403h2.067V.34h3.75v14.062h2.812V.34h3.75v14.062h2.813V.34h3.75v14.062h2.065L44.104 0ZM8.664 63.19l.168-2.876-.118.87C5.77 83.244 4.272 101.61 4.22 116.278v1.535c.016 4.44.171 7.77.506 11.506l.06.664.126 1.288.746 7.17.123 1.313c.732 8.087 1.14 17.372 1.23 31.5l.016 3.176.004 3.168-.006 3.081-.015 2.295c-.123 15.037-.777 24.967-1.889 32.228l-.054.35-.165 1.01-.158.884-.176.92c-.189.966-.41 2.048-.615 3.032l-.639 3.03-.101.563a27.33 27.33 0 0 0-.397 4.371l-.003.54v22.98c0 1.647 1.19 2.823 3.902 3.501l.277.067.156.034v-28.83c-.048-4.055.58-7.523 1.987-12.269l.18-.6 1.239-4.048.26-.875c.66-2.266.845-3.216.891-4.336l.013-.574v-67.736l-.004-.534c-.046-2.856-.466-5.827-1.48-10.92l-.3-1.49-1.05-5.073-.465-2.344-.185-.972c-.796-4.247-1.1-6.853-1.09-9.517l.005-.521.031-1.707.072-3.518.08-3.477c.28-11.517.696-22.33 1.249-32.44l.084-1.512Zm41.614-5.389.193 3.764.14 2.907c.573 12.194.993 25.413 1.262 39.658l.032 1.715c.072 4.022-.43 7.377-1.991 14.66l-.648 2.994c-1.322 6.134-1.897 9.787-1.93 13.39l.001 68.253.01.374.012.234c.071 1.162.344 2.262 1.335 5.539l1.045 3.423c1.527 5.073 2.216 8.716 2.166 12.943v28.829l.157-.034c2.907-.667 4.179-1.866 4.179-3.568v-22.98c0-1.819-.145-3.279-.458-4.876l-.13-.618-.934-3.858-.428-1.836a80.97 80.97 0 0 1-.416-1.913l-.168-.875-.126-.696c-1.43-8.105-2.204-19.523-2.204-37.632l.004-2.391.014-3.154.02-2.347c.135-13.302.635-22.22 1.506-30.029l.236-2.015.827-6.423.148-1.23c.441-3.813.657-7.113.696-11.453l.006-1.496-.005-1.566-.015-1.593c-.178-14.202-1.54-31.689-4.083-52.458l-.453-3.642Zm-4.556-40.586H13.895l-.213 2.099c-1.817 18.311-3.01 54.867-3.58 79.665l-.064 2.93-.077 3.986-.005.458c-.01 2.975.415 5.978 1.583 11.785l.284 1.39.678 3.263.39 1.91.204 1.026c.982 4.994 1.391 7.99 1.433 10.973l.003.516-.001 67.84-.005.341c-.034 1.606-.237 2.667-1.206 5.911l-.312 1.035-.825 2.683c-1.522 4.926-2.217 8.307-2.223 12.165l.002.447v27.702h39.131v-27.702c.047-3.903-.596-7.3-2.05-12.129l-1.316-4.32-.278-.945-.256-.902c-.585-2.123-.663-2.93-.67-4.369v-67.757c0-3.852.558-7.578 1.873-13.742l.855-3.963.486-2.327.197-.984c.91-4.618 1.213-7.295 1.16-10.305l-.077-4.035-.088-4.083-.103-4.334c-.592-23.416-1.627-58.826-3.103-76.228Zm-30.767-9.38a458.813 458.813 0 0 0-.762 6.568h2.404l-1.642-6.568Zm29.954.542-1.506 6.026h2.074a594.35 594.35 0 0 0-.423-4.544l-.145-1.482Z" fill-opacity=".7" fill="#999" fill-rule="nonzero"/><path d="M33.281 84.654h-7.5a4.25 4.25 0 0 0-4.25 4.25v7.5a4.25 4.25 0 0 0 4.25 4.25h7.5a4.25 4.25 0 0 0 4.25-4.25v-7.5a4.25 4.25 0 0 0-4.25-4.25Zm-7.5 1h7.5a3.25 3.25 0 0 1 3.25 3.25v7.5a3.25 3.25 0 0 1-3.25 3.25h-7.5a3.25 3.25 0 0 1-3.25-3.25v-7.5a3.25 3.25 0 0 1 3.25-3.25Z" fill-opacity=".7" fill="#999" fill-rule="nonzero"/><path d="M22.133 81.706c.288 0 .536-.082.742-.247.221-.177.36-.42.42-.735h-.428c-.052.202-.142.356-.27.457a.765.765 0 0 1-.468.139c-.293 0-.51-.094-.649-.274-.128-.169-.191-.412-.191-.727 0-.308.063-.548.195-.72.142-.195.352-.29.633-.29.188 0 .342.038.462.12.123.083.206.21.251.387h.428a.988.988 0 0 0-.353-.645c-.203-.165-.465-.247-.78-.247-.427 0-.754.138-.979.423-.198.248-.296.574-.296.972 0 .405.094.727.285.967.217.278.551.42.997.42Zm2.763 0c.409 0 .732-.131.968-.394.225-.25.337-.58.337-.993 0-.413-.112-.747-.337-.998-.236-.266-.559-.397-.968-.397-.412 0-.735.13-.967.4-.225.256-.334.586-.334.995 0 .405.109.735.334.99.232.262.555.397.967.397Zm0-.386c-.277 0-.495-.094-.645-.278-.146-.18-.217-.42-.217-.723 0-.308.071-.548.217-.728.154-.187.368-.281.645-.281.278 0 .491.086.642.266.146.18.22.428.22.743s-.074.558-.22.735c-.15.176-.364.266-.642.266Zm2.156.334v-1.958h.015l1.34 1.958h.427v-2.678h-.443v1.931h-.015l-1.324-1.93h-.438v2.677h.438Zm2.745 0v-1.958h.015l1.34 1.958h.427v-2.678h-.443v1.931h-.015l-1.323-1.93h-.44v2.677h.44Zm4.302 0v-.375h-1.556v-.81h1.402v-.375h-1.403v-.743h1.493v-.375h-1.931v2.678h1.995Zm1.582.052c.289 0 .537-.082.743-.247.221-.177.36-.42.42-.735h-.428c-.052.202-.142.356-.27.457a.765.765 0 0 1-.468.139c-.293 0-.51-.094-.65-.274-.127-.169-.19-.412-.19-.727 0-.308.063-.548.194-.72.143-.195.353-.29.634-.29.188 0 .342.038.462.12.123.083.206.21.25.387h.428a.988.988 0 0 0-.352-.645c-.203-.165-.465-.247-.78-.247-.428 0-.754.138-.979.423-.199.248-.296.574-.296.972 0 .405.093.727.285.967.217.278.551.42.997.42Zm2.685-.052V79.35h.878v-.375H37.05v.375h.878v2.303h.438ZM26.824 213.404l.525-2.014h.015l.521 2.014h.465l.772-2.678h-.494l-.503 2.036h-.015l-.529-2.036h-.453l-.53 2.036h-.014l-.503-2.036h-.495l.769 2.678h.469Zm2.786 0 .244-.672h1.121l.244.672h.468l-1.023-2.678h-.499l-1.024 2.678h.469Zm1.234-1.032h-.859l.424-1.173h.015l.42 1.173Zm1.545 1.032v-1.958h.015l1.338 1.958h.428v-2.678h-.443v1.931h-.014l-1.324-1.93h-.439v2.677h.439ZM28.39 108.654v-.375h-1.448v-2.303h-.435v2.678h1.882Zm.543 0 .244-.672h1.121l.244.672h.469l-1.024-2.678h-.499l-1.024 2.678h.47Zm1.234-1.032h-.859l.424-1.173h.015l.42 1.173Zm1.545 1.032v-1.958h.015l1.339 1.958h.427v-2.678h-.442v1.931h-.015l-1.324-1.93h-.439v2.677h.439ZM24.191 238.716v-1.027h.664c.652 0 .979-.278.979-.83 0-.547-.326-.82-.971-.82h-1.11v2.677h.438Zm.638-1.402h-.638v-.9h.638c.191 0 .334.033.424.105.09.067.138.18.138.34 0 .162-.045.278-.135.35-.09.067-.232.105-.427.105Zm2.569 1.455c.408 0 .73-.132.967-.394.225-.251.338-.581.338-.994 0-.412-.113-.746-.338-.997-.236-.267-.559-.398-.967-.398-.413 0-.735.131-.968.401-.225.255-.334.585-.334.994 0 .405.109.735.334.99.233.263.555.398.968.398Zm0-.387c-.278 0-.495-.093-.645-.277-.147-.18-.218-.42-.218-.724 0-.307.071-.547.218-.727.153-.188.367-.282.645-.282.277 0 .49.087.64.267.147.18.222.427.222.742s-.075.559-.221.735c-.15.176-.364.266-.642.266Zm2.71.334.526-2.014h.015l.521 2.014h.465l.772-2.677h-.494l-.503 2.036h-.015l-.529-2.036h-.453l-.53 2.036h-.014l-.503-2.036h-.495l.769 2.677h.469Zm4.576 0v-.375h-1.556v-.81h1.402v-.375h-1.403v-.742h1.493v-.375h-1.931v2.677h1.995Zm.851 0v-1.091h.694c.15 0 .266.03.345.097.075.064.12.17.135.315l.033.33c.016.15.053.267.117.35h.476a.651.651 0 0 1-.161-.395l-.045-.43c-.03-.263-.161-.417-.394-.47v-.007a.582.582 0 0 0 .341-.236.638.638 0 0 0 .113-.372c0-.255-.087-.45-.252-.585-.157-.123-.374-.183-.648-.183h-1.193v2.677h.439Zm.694-1.466h-.694v-.836h.694c.18 0 .311.03.394.097.082.064.123.169.123.315 0 .135-.041.24-.123.315-.09.071-.222.109-.394.109ZM24.144 63.841V62.75h.694c.15 0 .266.03.345.097.075.064.12.17.135.315l.034.33c.015.15.052.267.116.35h.476a.651.651 0 0 1-.16-.395l-.046-.43c-.03-.263-.161-.417-.394-.47v-.007a.582.582 0 0 0 .342-.236.638.638 0 0 0 .112-.372c0-.255-.086-.45-.251-.585-.158-.123-.375-.183-.649-.183h-1.192v2.677h.438Zm.694-1.466h-.694v-.836h.694c.18 0 .311.03.394.097.082.064.124.169.124.315 0 .135-.042.24-.124.315-.09.071-.221.109-.394.109Zm3.476 1.466v-.375h-1.556v-.81h1.403v-.375h-1.403v-.742h1.493v-.375h-1.932v2.677h1.995Zm1.403.053c.341 0 .607-.072.795-.207a.672.672 0 0 0 .281-.57c0-.247-.116-.438-.349-.577-.105-.06-.337-.15-.7-.263a3.768 3.768 0 0 1-.458-.165c-.128-.067-.188-.16-.188-.273 0-.128.053-.222.165-.278.09-.049.218-.071.386-.071.195 0 .345.034.443.109.097.07.169.19.206.356h.435c-.026-.293-.135-.51-.322-.649-.177-.131-.424-.195-.74-.195-.288 0-.524.064-.712.195a.635.635 0 0 0-.3.559c0 .236.102.416.308.54.079.045.285.12.615.225.296.09.469.15.521.176.165.083.251.195.251.338 0 .112-.06.198-.172.266a.953.953 0 0 1-.465.097c-.221 0-.383-.04-.488-.116-.116-.086-.187-.232-.217-.435h-.435c.019.341.142.589.367.746.184.128.443.192.773.192Zm3.446-.053v-.375h-1.556v-.81h1.402v-.375h-1.402v-.742h1.492v-.375h-1.93v2.677h1.994Zm1.523 0V61.54h.877v-.375H33.37v.375h.878v2.302h.439Z" fill="#999" fill-rule="nonzero"/><circle fill-opacity=".5" fill="#999" cx="30" cy="67.81" r="1.406"/><circle fill-opacity=".5" fill="#999" cx="27.656" cy="228.154" r="4.688"/><path d="M30 172v1.699l2.571.001.001 3.399 1.714.001v.85H36v5.1h-1.714v.85l-1.714-.001v3.401L30 187.299V189h-4.286l.001-1.701L24 187.3v-13.6l1.715-.001V172H30Zm-.4 12.474h-4v.883h4v-.883Zm0-1.766h-4v.883h4v-.883Zm0-1.766h-4v.883h4v-.883Zm0-1.767h-4v.883h4v-.883Zm0-1.766h-4v.883h4v-.883Zm0-1.766h-4v.883h4v-.883Z" fill-opacity=".5" fill="#999"/><path d="M30 152v1.699l2.571.001.001 3.399 1.714.001v.85H36v5.1h-1.714v.85l-1.714-.001v3.401L30 167.299V169h-4.286l.001-1.701L24 167.3v-13.6l1.715-.001V152H30Zm-.4 12.474h-4v.883h4v-.883Zm0-1.766h-4v.883h4v-.883Zm0-1.766h-4v.883h4v-.883Zm0-1.767h-4v.883h4v-.883Zm0-1.766h-4v.883h4v-.883Zm0-1.766h-4v.883h4v-.883Z" fill="#A2A2A2"/><path d="M30 132v1.699l2.571.001.001 3.399 1.714.001v.85H36v5.1h-1.714v.85l-1.714-.001v3.401L30 147.299V149h-4.286l.001-1.701L24 147.3v-13.6l1.715-.001V132H30Zm-.4 12.474h-4v.883h4v-.883Zm0-1.766h-4v.883h4v-.883Zm0-1.766h-4v.883h4v-.883Zm0-1.767h-4v.883h4v-.883Zm0-1.766h-4v.883h4v-.883Zm0-1.766h-4v.883h4v-.883ZM30 112v1.699l2.571.001.001 3.399 1.714.001v.85H36v5.1h-1.714v.85l-1.714-.001v3.401L30 127.299V129h-4.286l.001-1.701L24 127.3v-13.6l1.715-.001V112H30Zm-.4 12.474h-4v.883h4v-.883Zm0-1.766h-4v.883h4v-.883Zm0-1.766h-4v.883h4v-.883Zm0-1.767h-4v.883h4v-.883Zm0-1.766h-4v.883h4v-.883Zm0-1.766h-4v.883h4v-.883Z" fill-opacity=".5" fill="#999"/><path d="M30 191v1.699l2.571.001.001 3.399 1.714.001v.85H36v5.1h-1.714v.85l-1.714-.001v3.401L30 206.299V208h-4.286l.001-1.701L24 206.3v-13.6l1.715-.001V191H30Zm-.4 12.474h-4v.883h4v-.883Zm0-1.766h-4v.883h4v-.883Zm0-1.766h-4v.883h4v-.883Zm0-1.767h-4v.883h4v-.883Zm0-1.766h-4v.883h4v-.883Zm0-1.766h-4v.883h4v-.883Z" fill-opacity=".5" fill="#FF5B5B"/><path fill="#999" fill-rule="nonzero" d="M21.563 190.497v.938l-1.876-.001v19.844h4.22v.938H18.75v-21.719zM40.313 190.497v21.72h-4.688v-.938l3.75-.001v-19.844H37.5v-.937zM21.563 188.622v-.937h-1.876v-79.75h4.22v-.938H18.75v81.625zM40.313 188.622v-81.625h-4.688v.938h3.75v79.75H37.5v.937z"/></g><g transform="translate(213.469 20.596)"><path d="m44.104 0 2.743.114.428 2.623C54.189 45.389 57.647 93.49 57.647 117.06c0 5.215-.218 8.927-.721 13.267l-.188 1.55-.83 6.455-.194 1.673-.14 1.298-.09.878c-.821 8.254-1.25 18.039-1.29 33.017l-.004 2.4.007 3.014.017 2.308c.146 15.626.955 25.633 2.32 32.815l.133.683.178.83c.557 2.533 1.525 6.408 1.59 6.707.15.704.27 1.38.365 2.058-.953.035-1.886.143-2.796.317-.06-.43-.134-.862-.221-1.304l-.13-.618-.934-3.858-.428-1.836a80.97 80.97 0 0 1-.416-1.913l-.168-.875-.126-.696c-1.43-8.105-2.204-19.523-2.204-37.632l.004-2.391.014-3.154.02-2.347c.135-13.302.635-22.22 1.506-30.029l.236-2.015.827-6.423.148-1.23c.441-3.813.657-7.113.696-11.453l.006-1.496-.005-1.566-.015-1.593c-.178-14.202-1.54-31.689-4.083-52.458l-.453-3.642.193 3.764.14 2.907c.573 12.194.993 25.413 1.262 39.658l.032 1.715c.072 4.022-.43 7.377-1.991 14.66l-.648 2.994c-1.322 6.134-1.897 9.787-1.93 13.39l.001 68.253.01.374.012.234c.071 1.162.344 2.262 1.335 5.539l1.045 3.423c1.524 5.062 2.213 8.7 2.166 12.915-.987.444-1.927.973-2.813 1.576v-1.565c.047-3.903-.596-7.3-2.05-12.129l-1.316-4.32-.278-.945-.256-.902c-.585-2.123-.663-2.93-.67-4.369v-67.757c0-3.852.558-7.578 1.873-13.742l.855-3.963.486-2.327.197-.984c.91-4.618 1.213-7.295 1.16-10.305l-.077-4.035-.088-4.083-.103-4.334c-.592-23.416-1.627-58.826-3.103-76.228H13.895l-.213 2.099C12.65 29.718 11.82 46.012 11.19 62.693l-.111 3.005c-.424 11.695-.75 23.418-.976 33.281l-.064 2.93-.077 3.986-.005.458c-.01 2.975.415 5.978 1.583 11.785l.284 1.39.678 3.263.39 1.91.204 1.026c.982 4.994 1.391 7.99 1.433 10.973l.003.516-.001 67.84-.005.341c-.034 1.606-.237 2.667-1.206 5.911l-.312 1.035-.825 2.683c-1.522 4.926-2.217 8.307-2.223 12.165l.002.447v27.702h34.546a18.605 18.605 0 0 0 2.51 2.813H9.96l-1.593 1.394c-5.27-.706-8.245-2.836-8.364-6.438L0 252.882v-22.98c0-1.991.14-3.618.439-5.377l.112-.62.976-4.671c.188-.929.368-1.839.501-2.567l.101-.572.161-.99.162-1.075.158-1.135c.927-6.947 1.477-16.32 1.588-29.978l.014-2.304.007-3.015-.003-2.415-.012-3.137c-.076-13.77-.447-22.942-1.117-30.816l-.112-1.28-.195-2.04-.496-4.739-.298-2.93-.11-1.215-.102-1.263c-.24-3.136-.354-6.157-.367-9.973v-1.455C1.481 93.512 5.02 46.905 12.022 6.493l.66-3.775.465-2.624L15.896 0l3.6 14.403h2.067V.34h3.75v14.062h2.812V.34h3.75v14.062h2.813V.34h3.75v14.062h2.065L44.104 0ZM8.832 60.314l-.118.87C5.77 83.244 4.272 101.61 4.22 116.278v1.535c.016 4.44.171 7.77.506 11.506l.06.664.126 1.288.746 7.17.123 1.313c.732 8.087 1.14 17.372 1.23 31.5l.016 3.176.004 3.168-.006 3.081-.015 2.295c-.123 15.037-.777 24.967-1.889 32.228l-.054.35-.165 1.01-.158.884-.176.92c-.189.966-.41 2.048-.615 3.032l-.639 3.03-.101.563a27.33 27.33 0 0 0-.397 4.371l-.003.54v22.98c0 1.647 1.19 2.823 3.902 3.501l.277.067.156.034v-28.83c-.048-4.055.58-7.523 1.987-12.269l.18-.6 1.239-4.048.26-.875c.66-2.266.845-3.216.891-4.336l.013-.574v-67.736l-.004-.534c-.046-2.856-.466-5.827-1.48-10.92l-.3-1.49-1.05-5.073-.465-2.344-.185-.972c-.796-4.247-1.1-6.853-1.09-9.517l.005-.521.031-1.707.072-3.518.08-3.477c.28-11.517.696-22.33 1.249-32.44l.084-1.512.167-2.877Zm6.123-52.48a458.813 458.813 0 0 0-.762 6.57l2.404-.001-1.642-6.568Zm29.954.543-1.506 6.026h2.074a594.35 594.35 0 0 0-.423-4.544l-.145-1.482Z" fill-opacity=".7" fill="#999" fill-rule="nonzero"/><path d="M33.281 84.654h-7.5a4.25 4.25 0 0 0-4.25 4.25v7.5a4.25 4.25 0 0 0 4.25 4.25h7.5a4.25 4.25 0 0 0 4.25-4.25v-7.5a4.25 4.25 0 0 0-4.25-4.25Zm-7.5 1h7.5a3.25 3.25 0 0 1 3.25 3.25v7.5a3.25 3.25 0 0 1-3.25 3.25h-7.5a3.25 3.25 0 0 1-3.25-3.25v-7.5a3.25 3.25 0 0 1 3.25-3.25Z" fill-opacity=".7" fill="#999" fill-rule="nonzero"/><path d="M22.133 81.706c.288 0 .536-.082.742-.247.221-.177.36-.42.42-.735h-.428c-.052.202-.142.356-.27.457a.765.765 0 0 1-.468.139c-.293 0-.51-.094-.649-.274-.128-.169-.191-.412-.191-.727 0-.308.063-.548.195-.72.142-.195.352-.29.633-.29.188 0 .342.038.462.12.123.083.206.21.251.387h.428a.988.988 0 0 0-.353-.645c-.203-.165-.465-.247-.78-.247-.427 0-.754.138-.979.423-.198.248-.296.574-.296.972 0 .405.094.727.285.967.217.278.551.42.997.42Zm2.763 0c.409 0 .732-.131.968-.394.225-.25.337-.58.337-.993 0-.413-.112-.747-.337-.998-.236-.266-.559-.397-.968-.397-.412 0-.735.13-.967.4-.225.256-.334.586-.334.995 0 .405.109.735.334.99.232.262.555.397.967.397Zm0-.386c-.277 0-.495-.094-.645-.278-.146-.18-.217-.42-.217-.723 0-.308.071-.548.217-.728.154-.187.368-.281.645-.281.278 0 .491.086.642.266.146.18.22.428.22.743s-.074.558-.22.735c-.15.176-.364.266-.642.266Zm2.156.334v-1.958h.015l1.34 1.958h.427v-2.678h-.443v1.931h-.015l-1.324-1.93h-.438v2.677h.438Zm2.745 0v-1.958h.015l1.34 1.958h.427v-2.678h-.443v1.931h-.015l-1.323-1.93h-.44v2.677h.44Zm4.302 0v-.375h-1.556v-.81h1.402v-.375h-1.403v-.743h1.493v-.375h-1.931v2.678h1.995Zm1.582.052c.289 0 .537-.082.743-.247.221-.177.36-.42.42-.735h-.428c-.052.202-.142.356-.27.457a.765.765 0 0 1-.468.139c-.293 0-.51-.094-.65-.274-.127-.169-.19-.412-.19-.727 0-.308.063-.548.194-.72.143-.195.353-.29.634-.29.188 0 .342.038.462.12.123.083.206.21.25.387h.428a.988.988 0 0 0-.352-.645c-.203-.165-.465-.247-.78-.247-.428 0-.754.138-.979.423-.199.248-.296.574-.296.972 0 .405.093.727.285.967.217.278.551.42.997.42Zm2.685-.052V79.35h.878v-.375H37.05v.375h.878v2.303h.438ZM26.824 213.404l.525-2.014h.015l.521 2.014h.465l.772-2.678h-.494l-.503 2.036h-.015l-.529-2.036h-.453l-.53 2.036h-.014l-.503-2.036h-.495l.769 2.678h.469Zm2.786 0 .244-.672h1.121l.244.672h.468l-1.023-2.678h-.499l-1.024 2.678h.469Zm1.234-1.032h-.859l.424-1.173h.015l.42 1.173Zm1.545 1.032v-1.958h.015l1.338 1.958h.428v-2.678h-.443v1.931h-.014l-1.324-1.93h-.439v2.677h.439ZM28.39 108.654v-.375h-1.448v-2.303h-.435v2.678h1.882Zm.543 0 .244-.672h1.121l.244.672h.469l-1.024-2.678h-.499l-1.024 2.678h.47Zm1.234-1.032h-.859l.424-1.173h.015l.42 1.173Zm1.545 1.032v-1.958h.015l1.339 1.958h.427v-2.678h-.442v1.931h-.015l-1.324-1.93h-.439v2.677h.439ZM24.191 238.716v-1.027h.664c.652 0 .979-.278.979-.83 0-.547-.326-.82-.971-.82h-1.11v2.677h.438Zm.638-1.402h-.638v-.9h.638c.191 0 .334.033.424.105.09.067.138.18.138.34 0 .162-.045.278-.135.35-.09.067-.232.105-.427.105Zm2.569 1.455c.408 0 .73-.132.967-.394.225-.251.338-.581.338-.994 0-.412-.113-.746-.338-.997-.236-.267-.559-.398-.967-.398-.413 0-.735.131-.968.401-.225.255-.334.585-.334.994 0 .405.109.735.334.99.233.263.555.398.968.398Zm0-.387c-.278 0-.495-.093-.645-.277-.147-.18-.218-.42-.218-.724 0-.307.071-.547.218-.727.153-.188.367-.282.645-.282.277 0 .49.087.64.267.147.18.222.427.222.742s-.075.559-.221.735c-.15.176-.364.266-.642.266Zm2.71.334.526-2.014h.015l.521 2.014h.465l.772-2.677h-.494l-.503 2.036h-.015l-.529-2.036h-.453l-.53 2.036h-.014l-.503-2.036h-.495l.769 2.677h.469Zm4.576 0v-.375h-1.556v-.81h1.402v-.375h-1.403v-.742h1.493v-.375h-1.931v2.677h1.995Zm.851 0v-1.091h.694c.15 0 .266.03.345.097.075.064.12.17.135.315l.033.33c.016.15.053.267.117.35h.476a.651.651 0 0 1-.161-.395l-.045-.43c-.03-.263-.161-.417-.394-.47v-.007a.582.582 0 0 0 .341-.236.638.638 0 0 0 .113-.372c0-.255-.087-.45-.252-.585-.157-.123-.374-.183-.648-.183h-1.193v2.677h.439Zm.694-1.466h-.694v-.836h.694c.18 0 .311.03.394.097.082.064.123.169.123.315 0 .135-.041.24-.123.315-.09.071-.222.109-.394.109ZM24.144 63.841V62.75h.694c.15 0 .266.03.345.097.075.064.12.17.135.315l.034.33c.015.15.052.267.116.35h.476a.651.651 0 0 1-.16-.395l-.046-.43c-.03-.263-.161-.417-.394-.47v-.007a.582.582 0 0 0 .342-.236.638.638 0 0 0 .112-.372c0-.255-.086-.45-.251-.585-.158-.123-.375-.183-.649-.183h-1.192v2.677h.438Zm.694-1.466h-.694v-.836h.694c.18 0 .311.03.394.097.082.064.124.169.124.315 0 .135-.042.24-.124.315-.09.071-.221.109-.394.109Zm3.476 1.466v-.375h-1.556v-.81h1.403v-.375h-1.403v-.742h1.493v-.375h-1.932v2.677h1.995Zm1.403.053c.341 0 .607-.072.795-.207a.672.672 0 0 0 .281-.57c0-.247-.116-.438-.349-.577-.105-.06-.337-.15-.7-.263a3.768 3.768 0 0 1-.458-.165c-.128-.067-.188-.16-.188-.273 0-.128.053-.222.165-.278.09-.049.218-.071.386-.071.195 0 .345.034.443.109.097.07.169.19.206.356h.435c-.026-.293-.135-.51-.322-.649-.177-.131-.424-.195-.74-.195-.288 0-.524.064-.712.195a.635.635 0 0 0-.3.559c0 .236.102.416.308.54.079.045.285.12.615.225.296.09.469.15.521.176.165.083.251.195.251.338 0 .112-.06.198-.172.266a.953.953 0 0 1-.465.097c-.221 0-.383-.04-.488-.116-.116-.086-.187-.232-.217-.435h-.435c.019.341.142.589.367.746.184.128.443.192.773.192Zm3.446-.053v-.375h-1.556v-.81h1.402v-.375h-1.402v-.742h1.492v-.375h-1.93v2.677h1.994Zm1.523 0V61.54h.877v-.375H33.37v.375h.878v2.302h.439Z" fill="#999" fill-rule="nonzero"/><circle fill-opacity=".5" fill="#999" cx="30" cy="67.81" r="1.406"/><circle fill-opacity=".5" fill="#999" cx="27.656" cy="228.154" r="4.688"/><path d="M30 172v1.699l2.571.001.001 3.399 1.714.001v.85H36v5.1h-1.714v.85l-1.714-.001v3.401L30 187.299V189h-4.286l.001-1.701L24 187.3v-13.6l1.715-.001V172H30Zm-.4 12.474h-4v.883h4v-.883Zm0-1.766h-4v.883h4v-.883Zm0-1.766h-4v.883h4v-.883Zm0-1.767h-4v.883h4v-.883Zm0-1.766h-4v.883h4v-.883Zm0-1.766h-4v.883h4v-.883Z" fill-opacity=".5" fill="#999"/><path d="M30 152v1.699l2.571.001.001 3.399 1.714.001v.85H36v5.1h-1.714v.85l-1.714-.001v3.401L30 167.299V169h-4.286l.001-1.701L24 167.3v-13.6l1.715-.001V152H30Zm-.4 12.474h-4v.883h4v-.883Zm0-1.766h-4v.883h4v-.883Zm0-1.766h-4v.883h4v-.883Zm0-1.767h-4v.883h4v-.883Zm0-1.766h-4v.883h4v-.883Zm0-1.766h-4v.883h4v-.883Z" fill="#A2A2A2"/><path d="M30 132v1.699l2.571.001.001 3.399 1.714.001v.85H36v5.1h-1.714v.85l-1.714-.001v3.401L30 147.299V149h-4.286l.001-1.701L24 147.3v-13.6l1.715-.001V132H30Zm-.4 12.474h-4v.883h4v-.883Zm0-1.766h-4v.883h4v-.883Zm0-1.766h-4v.883h4v-.883Zm0-1.767h-4v.883h4v-.883Zm0-1.766h-4v.883h4v-.883Zm0-1.766h-4v.883h4v-.883ZM30 112v1.699l2.571.001.001 3.399 1.714.001v.85H36v5.1h-1.714v.85l-1.714-.001v3.401L30 127.299V129h-4.286l.001-1.701L24 127.3v-13.6l1.715-.001V112H30Zm-.4 12.474h-4v.883h4v-.883Zm0-1.766h-4v.883h4v-.883Zm0-1.766h-4v.883h4v-.883Zm0-1.767h-4v.883h4v-.883Zm0-1.766h-4v.883h4v-.883Zm0-1.766h-4v.883h4v-.883Z" fill-opacity=".5" fill="#999"/><path d="M30 191v1.699l2.571.001.001 3.399 1.714.001v.85H36v5.1h-1.714v.85l-1.714-.001v3.401L30 206.299V208h-4.286l.001-1.701L24 206.3v-13.6l1.715-.001V191H30Zm-.4 12.474h-4v.883h4v-.883Zm0-1.766h-4v.883h4v-.883Zm0-1.766h-4v.883h4v-.883Zm0-1.767h-4v.883h4v-.883Zm0-1.766h-4v.883h4v-.883Zm0-1.766h-4v.883h4v-.883Z" fill-opacity=".5" fill="#FF5B5B"/><path fill="#999" fill-rule="nonzero" d="M21.563 190.497v.938l-1.876-.001v19.844h4.22v.938H18.75v-21.719zM40.313 190.497v21.72h-4.688v-.938l3.75-.001v-19.844H37.5v-.937zM21.563 188.622v-.937h-1.876v-79.75h4.22v-.938H18.75v81.625zM40.313 188.622v-81.625h-4.688v.938h3.75v79.75H37.5v.937z"/></g><path d="M281.98 264a23.583 23.583 0 0 0-.492-3.999h3.515c.522 1.246.853 2.592.96 4h-3.983Zm-.492 6.003c.268-1.266.44-2.608.492-4.003h3.98a12.834 12.834 0 0 1-.957 4.003h-3.515Zm-.522 2h2.991a13.073 13.073 0 0 1-5.347 4.728c.967-1.286 1.772-2.893 2.356-4.729Zm-6.965 0h4.9c-1.075 3.113-2.847 5.32-4.9 5.87v-5.87Zm0-6.003h5.98a22.26 22.26 0 0 1-.52 4.003H274V266Zm0-5.999h5.46c.284 1.246.457 2.592.52 4H274v-4Zm0-7.873c2.053.549 3.825 2.758 4.9 5.87H274v-5.87Zm6.965 5.87c-.584-1.834-1.385-3.445-2.356-4.729a13.087 13.087 0 0 1 5.347 4.729h-2.99Zm-8.967 0h-4.9c1.075-3.112 2.845-5.321 4.9-5.87v5.87Zm0 6.002h-5.98c.059-1.407.236-2.753.518-3.999H272v4Zm0 6.003h-5.462a22.446 22.446 0 0 1-.518-4.003H272v4.003Zm0 7.87c-2.055-.55-3.825-2.757-4.9-5.87h4.9v5.87Zm-6.963-5.87c.584 1.835 1.387 3.446 2.354 4.728a13.066 13.066 0 0 1-5.349-4.729h2.995ZM264.02 266c.055 1.395.224 2.737.492 4.003h-3.517a13.005 13.005 0 0 1-.957-4.003h3.982Zm.492-5.999a23.79 23.79 0 0 0-.492 4h-3.982c.106-1.408.439-2.754.957-4h3.517Zm.526-2.003h-2.997a13.08 13.08 0 0 1 5.349-4.729c-.965 1.284-1.768 2.895-2.352 4.729ZM287.964 264c-.492-7.49-6.476-13.476-13.963-13.968V250h-2.002v.032c-7.487.492-13.473 6.478-13.965 13.968H258v2h.034c.492 7.49 6.478 13.474 13.965 13.966V280h2.002v-.034c7.487-.492 13.471-6.476 13.963-13.966H288v-2h-.036Z" fill="#009FD1"/><g transform="translate(107 45)"><path d="M1.25 32.877c-5.67 23.137 8.489 46.49 31.627 52.163l.709.167a43.124 43.124 0 0 0 11.423 1.042l.632-.033-.015.442a45.193 45.193 0 0 1-.586 5.546l-.67 3.893 3.66-1.827.29-.156.342-.194.388-.23.43-.268.472-.306a28.86 28.86 0 0 0 4.343-3.517l.39-.394c1.674-1.722 3.072-3.622 4.11-5.708l.09-.192.168-.064c12.864-5.112 22.62-16.09 25.987-29.829C90.711 30.275 76.551 6.921 53.413 1.25 30.275-4.421 6.921 9.739 1.25 32.877ZM52.937 3.193c22.065 5.408 35.569 27.68 30.16 49.743-3.376 13.773-13.322 24.21-25.686 28.793-1.217 2.821-3.087 5.096-4.906 6.819l-.454.419c-.15.136-.3.268-.449.396l-.442.373-.433.35-.212.166-.414.315-.201.149-.39.28-.371.257-.515.342-.459.29-.393.237-.62.349-.141.073c.456-2.645.73-5.962.627-8.5a41.06 41.06 0 0 1-14.285-.946c-22.065-5.41-35.569-27.68-30.16-49.745C8.6 11.288 30.873-2.216 52.937 3.193Z" fill-opacity=".5" fill="#999" fill-rule="nonzero"/><path d="m36.402 2.556-.02 1.063-.015.646-.015.649-.072 2.618-.086 2.658c-.036 1.032-.165 2.136-.38 3.365l-.098.534-.116.587-.127.605-.142.642-.162.7-.682 2.866-.255 1.113-.151.712-.087.45-.067.394-.05.35-.033.32-.015.202-.015.4-.002 43.898.017.016.022.005.324-.02.322-.018 2.481-.156 2.322-.158 1.636-.12 1.546-.12 1.922-.164 1.336-.124 1.245-.126 1.156-.126 1.065-.128.975-.13.6-.086.976-.153c.46-.074.914-.149 1.363-.225l.67-.114 1.318-.234 1.285-.24 1.252-.246 1.216-.251c.749-.158 1.475-.319 2.179-.482l.695-.163 1.079-.264 1.036-.267c.811-.215 1.58-.432 2.302-.65l.533-.163.733-.235c.237-.078.466-.156.687-.233l.325-.115.613-.228a17.804 17.804 0 0 0 1.732-.756 5.54 5.54 0 0 0 .832-.506l.087-.071.028-.024c.015-.012.025-.018.031-.016l.008.01.003.023-.013-1.97-.008-3.131.008-1.822.016-1.402v-.107l-.002-.11-.016-.466-.006-.124-.007-.127-.036-.539-.051-.592-.065-.648-.08-.708-.38-3.116-.1-.912-.04-.505-.01-.272-.014-3.223-.023-2.25-.045-2.904-.11-5.542-.11-5.84-.035-2.837-.007-2.366.01-1.42.024-1.368.029-1.143.035-1.05.039-.749.024-.352c.575.522 1.134 1.06 1.676 1.612l-.029.893-.018.753-.015.75-.018 1.532-.003.803v.757l.017 2.314.047 3.163.22 11.33.043 3.487.012 1.849.003 1.647.004.175.019.328.064.66.434 3.593.083.741.068.68.053.625.011.148.01.145.031.55.006.13.004.127.008.485-.006.527-.015 1.73v2.92l.02 3.226c0 .498-.425 1.02-1.22 1.555l-.19.124-.305.183-.162.092-.17.091-.36.184-.189.093-.4.184-.425.186-.452.185-.117.046-.118.046-.49.186-.513.185-.538.185-.562.184-.585.184-.608.183-.63.183-.652.182-1.018.27-.704.18-1.095.266-.754.175-1.167.26-.801.172-1.235.254-1.274.249-.87.163-1.334.24-1.37.235-.93.153-.946.15-.591.088-.63.089-1.02.13-1.11.13-1.2.128-.85.084-1.818.168-1.469.123-2.098.163-1.678.12-2.378.159-2.538.155a1.804 1.804 0 0 1-1.836-1.292l-.842-.094a.525.525 0 0 1-.86-.095l-1.08-.12a.527.527 0 0 1-.42.388l-.094.008a.526.526 0 0 1-.515-.435l-.008-.095v-.281c-.517.218-.87.454-1.065.688l-.064.085c-.464.693-1.52.401-1.6-.389l-.005-.11.532-42.297-.004-.51-.013-.503-.022-.504-.03-.51-.042-.526-.051-.55-.063-.579-.074-.617-.185-1.38-.422-2.92-.152-1.13-.089-.735-.068-.661-.036-.411-.04-.589-.026-.574-.01-.386-.003-.396-.015-5.23c.578-.29 1.164-.566 1.755-.828v1.012l.006 2.977.008 2.06.008.555.012.362.017.347.022.354.046.556.04.394.073.643.126.979.119.85.37 2.546.146 1.084.12.974.064.6.053.571.042.55.032.534.023.53.007.264.009.536.001.272-.511 40.52.16-.075c.163-.072.336-.141.516-.207l.278-.096.016-.005.327-60.56c.35-.132.7-.26 1.054-.382l-.33 61.4a.886.886 0 0 1-.003.764l-.002.01.996.11v-8.768a.526.526 0 0 1 1.045-.094l.008.094v8.885l.65.072V23.517c.001-.096.003-.19.006-.282l.01-.275.015-.22.03-.328.046-.35.085-.523.119-.613.157-.731.347-1.499.086-15.413c.35-.09.7-.175 1.053-.255l-.061 10.946.042-.212c.227-1.194.371-2.253.43-3.223l.019-.41.022-.666.022-.663.079-2.627.017-.65.017-.649.044-1.985a40.92 40.92 0 0 1 1.76-.333Zm22.944 2.772-.017.409c-.019.388-.044.775-.077 1.176l-.08.872-.26 2.515-.065.682-.088 1.044-.052.715-.069 1.111-.04.773-.034.802-.043 1.27-.022.897-.024 1.429-.01 1.015-.006 1.627V51.85a.877.877 0 0 1-1.748.11l-.006-.11V21.102l.01-1.603.02-1.485.02-.93.04-1.318.052-1.236.062-1.168.049-.748.081-1.085.093-1.054.32-3.114c.09-.963.142-1.8.16-2.725.584.216 1.163.448 1.734.692ZM31.854 3.583l-.219 22.256a.526.526 0 0 1-.436.513l-.095.008a.526.526 0 0 1-.514-.437l-.007-.095.216-21.928c.35-.11.702-.216 1.055-.317Z" fill="#999"/><g fill-rule="nonzero"><use fill="#000" filter="url(#a)" xlink:href="#b"/><use fill="#E0E0E0" xlink:href="#b"/></g><ellipse fill="#FFF" opacity=".5" filter="url(#c)" cx="30.764" cy="41.158" rx="8" ry="17.5"/></g><path fill="#79CDFF" d="M52 175h7v12h-7zM238 175h7v12h-7z"/><path d="M55.5 181v92c0 7.18 5.82 13 13 13h160c7.18 0 13-5.82 13-13v-92h0" stroke="#5BAADA" stroke-width="5" stroke-linecap="round"/></g></svg>