<?xml version="1.0" encoding="UTF-8"?>
<svg width="240px" height="240px" viewBox="0 0 240 240" version="1.1" xmlns="http://www.w3.org/2000/svg" xmlns:xlink="http://www.w3.org/1999/xlink">
    <title>img/产品图/img_m6s</title>
    <g id="img/产品图/img_m6s" stroke="none" stroke-width="1" fill="none" fill-rule="evenodd">
        <path d="M193,17 C194.104569,17 195,17.8954305 195,19 L195,46.4542424 C195,47.2495308 194.528802,47.96925 193.799889,48.2873212 L184.599778,52.3019151 C183.579704,52.7470384 182.420296,52.7470384 181.400222,52.3019151 L172.200111,48.2873212 C171.471198,47.96925 171,47.2495308 171,46.4542424 L171,19 C171,17.8954305 171.895431,17 173,17 L193,17 Z M191,24 L181.413798,24 C178.202123,24 175.598607,26.6416709 175.598607,29.9004138 C175.598607,33.1591566 178.202123,35.8008275 181.413798,35.8008275 L185.184809,35.8008275 C185.890614,35.8008275 186.464809,36.3834382 186.464809,37.0995862 C186.464809,37.8157343 185.890614,38.398345 185.184809,38.398345 L175.827861,38.398345 L175,43 L185.184809,43 C188.396484,43 191,40.3583291 191,37.0995862 C191,33.8408434 188.396484,31.1991725 185.184809,31.1991725 L181.413798,31.1991725 C180.707993,31.1991725 180.133798,30.6165618 180.133798,29.9004138 C180.133798,29.1842657 180.707993,28.601655 181.413798,28.601655 L190.005506,28.601655 C190.33665,27.068129 190.668856,25.533526 191,24 Z" id="形状结合" fill="#999999" fill-rule="nonzero" opacity="0.7"></path>
        <g id="编组-2" transform="translate(71.999916, 10.000000)" fill-rule="nonzero">
            <path d="M36.5854692,0.0773743115 L36.7585318,0.122682894 L86.5792474,14.743338 C88.1222733,15.1962368 89.2457925,16.5224219 89.4356461,18.1163793 L89.5145444,18.7847573 L89.5145444,18.7847573 L89.5930287,19.4506233 L90.5025599,27.2450895 L91.2149801,33.4642019 L91.8860194,39.4321913 L92.6366478,46.2623452 L93.1039668,50.6149404 L93.755299,56.8426166 L94.2524731,61.7553108 L94.6433927,65.7424226 L94.9345499,68.8011835 L95.3979156,73.8740679 L95.6363166,76.6129399 L95.9073358,79.8730312 L96.1483722,82.9515111 L96.3594226,85.8484371 L96.506671,88.0352977 L96.6347247,90.1060299 L96.7181677,91.5828876 L96.8126271,93.450466 L96.8708724,94.7749922 L96.9183176,96.0342541 L96.9549621,97.2282641 L96.9808051,98.3570347 L96.9984591,99.7606002 L97.0000842,100.418907 L96.9935189,101.352034 L96.9831398,101.937901 L96.9831398,170.268486 L96.9772159,170.422172 L94.4517758,203.142034 C94.2848561,204.655409 92.8315874,205.989608 90.1325943,207.314473 L89.8275818,207.461651 L89.2691762,207.719182 L88.6794754,207.976914 C88.4777,208.062889 88.2707198,208.148944 88.0585459,208.235125 L87.7363911,208.364496 L87.0687428,208.623944 L86.8969746,208.688978 L86.8969746,208.688978 L86.723266,208.75409 L86.0090483,209.0154 L85.2638674,209.278298 L84.4877896,209.543062 L83.6808811,209.809969 L82.4128564,210.214954 L81.3820328,210.53296 C79.8437751,210.99968 78.1986797,211.463581 76.456038,211.921922 L75.5766313,212.150616 L74.1769587,212.504342 L72.7395425,212.855354 L72.0069841,213.029753 L72.0069841,213.029753 L71.2653541,213.203366 L69.7553651,213.548092 L69.3723879,213.633727 L69.3723879,213.633727 L68.987249,213.719134 L67.4253806,214.058393 L67.0296611,214.142593 L67.0296611,214.142593 L66.6318712,214.226539 L65.0203092,214.559687 L63.3768325,214.888402 L61.7024127,215.212398 L59.9980211,215.531388 L59.567354,215.61032 L59.567354,215.61032 L59.1348896,215.688916 L57.387362,215.99986 L56.9461386,216.076713 L56.9461386,216.076713 L56.5032089,216.153204 L54.7147311,216.455458 L54.2634979,216.530071 L54.2634979,216.530071 L53.8106494,216.604295 L51.9834073,216.897213 L50.6974027,217.096672 L49.9470385,217.20717 L48.7610016,217.371908 L47.502351,217.535443 L45.7111466,217.751626 L43.7907341,217.965693 L42.7820538,218.071936 L41.2084174,218.230319 L38.9970417,218.43967 L36.6562403,218.646947 L33.5481317,218.903148 L30.9158778,219.105807 L27.4432417,219.356277 L24.5191964,219.554385 L21.4653573,219.750492 L17.465434,219.992833 L17.2495982,219.999938 C15.5603734,220.009211 14.1087402,218.978559 13.5058576,217.508501 L7.40247523,216.873026 C7.10210905,217.602325 6.382514,218.11592 5.54256622,218.11592 C4.48309977,218.11592 3.61511437,217.298791 3.53839558,216.262343 L3.53288329,216.112851 L3.53288329,131.983941 C3.53288329,130.793271 3.4727244,129.555732 3.35542563,128.250692 L3.2701184,127.372065 L3.17189509,126.497161 L3.05815696,125.606751 L2.97242884,124.995035 L2.82705763,124.036052 L2.65924157,123.010289 L2.4663819,121.898518 L2.16578728,120.24913 L1.37767383,116.08453 L1.01577779,114.104336 L0.773403265,112.705783 L0.617377718,111.749092 L0.482182234,110.859988 L0.366695461,110.028157 L0.269796042,109.243282 L0.214968983,108.741027 L0.146556592,108.011493 L0.0937412776,107.30141 L0.0794083755,107.067255 L0.0456448349,106.367061 L0.0248618778,105.662249 L0.01593815,104.942505 L0.020794426,99.060452 L0.0462907104,90.4806367 L0.0754302603,84.9229291 L0.125515418,78.158226 L0.19078013,71.5962151 L0.27122544,65.2368864 L0.346512421,60.2953479 L0.431516188,55.4835146 L0.526237277,50.8013814 L0.630676222,46.248943 L0.715383095,42.9197235 L0.836829576,38.5942389 L0.934292715,35.4352289 L1.07274837,31.3366825 C1.08469134,31.00054 1.09673557,30.6657483 1.10888105,30.3323074 C1.11683448,30.1139545 1.1605779,29.8983698 1.23837786,29.6940961 C1.63810505,28.6445618 2.12024508,27.5479959 2.69362291,26.3778036 L3.08948836,25.5864759 C3.22601364,25.3188696 3.36714134,25.0473355 3.51296829,24.7715819 L3.96464378,23.9313704 C4.04230494,23.7891281 4.12116513,23.6457579 4.20123645,23.5012234 L4.69629477,22.6197524 C4.8662233,22.3210768 5.0410932,22.017452 5.22100132,21.7085862 L5.77593715,20.7659736 L6.36168334,19.7901636 L6.97882096,18.779405 L7.96465737,17.1939081 L8.66281571,16.088117 L9.18576219,15.2783495 L9.74668571,14.4359619 C9.84303499,14.2932449 9.94073959,14.1494682 10.039686,14.0047814 L10.6473578,13.126939 C10.8542768,12.8314835 11.0652547,12.5335858 11.2793835,12.2344437 L11.930314,11.3344825 L12.5946999,10.4342423 L13.2670921,9.54091007 C13.6043816,9.09716873 13.9426299,8.65871297 14.2787719,8.22958541 L14.9473393,7.38496575 L15.6048406,6.57240826 C16.7967857,5.11650186 17.9054661,3.85847631 18.779779,2.99761911 C19.2841195,2.50104032 20.0101556,2.30876899 20.6893985,2.48181772 L20.845194,2.52826479 L29.9659382,5.651 L31.2459382,5.962 L31.4590218,5.63587297 C31.5060889,5.56364772 31.5612867,5.49912134 31.6227925,5.44293583 L31.324497,6.11664988 C31.949959,4.73420784 32.5435396,3.32947502 33.1052801,1.9023286 C33.655369,0.512277894 35.1411054,-0.255884601 36.5854692,0.0773743115 Z M36.5029602,4.22417527 L36.4187287,4.43489785 C34.5436753,9.03755416 32.3430038,13.4204632 29.8168796,17.5826498 C27.145349,21.9844164 24.2640204,26.1440122 21.1729252,30.0609705 L20.8439382,30.471 L20.8666221,30.4443523 L20.9756445,33.3418774 L21.0579695,35.8095078 L21.1324142,38.3083361 L21.1989788,40.8383636 L21.2576636,43.3995912 L21.2711036,44.0447732 L21.2711036,44.0447732 L21.2840511,44.6919053 L21.3309166,47.2999349 L21.3414019,47.9568177 L21.3414019,47.9568177 L21.3513947,48.6156506 L21.3864416,51.2704846 L21.4136096,53.9565228 L21.4395896,58.0440901 L21.4478438,62.2018726 L21.4434993,65.0127377 L21.4312774,67.8548122 L21.4111782,70.7280969 L21.3832021,73.6325931 L21.3749773,74.363594 L21.3749773,74.363594 L21.3662603,75.0965457 L21.3264692,78.0478607 L21.2788018,81.0303897 L21.2656543,81.7808992 L21.2656543,81.7808992 L21.2520145,82.5333597 L21.1925332,85.5627114 L21.1251761,88.6232796 L21.0093742,93.272665 L20.8758536,97.9922932 L20.724615,102.782168 L20.6139465,106.014445 C20.5393796,108.127648 20.3166664,110.403165 19.9531892,112.974588 L19.8505746,113.683323 L19.7976079,114.037397 L19.6307056,115.110968 L19.4475272,116.22925 L19.1684769,117.85138 L18.6859222,120.538824 L17.8568945,125.208991 L17.6126749,126.674475 L17.4527851,127.704786 L17.3073252,128.756727 L17.2352994,129.370133 L17.1697571,130.064895 L17.134436,130.581742 L17.1163835,130.962075 C17.1076782,131.187286 17.1025175,131.410506 17.1000444,131.638179 L17.0982431,131.983834 L17.0982431,135.685317 L17.1114161,161.178915 L17.1727709,197.81236 L17.2272333,215.993735 L18.0373431,215.945876 L22.7278615,215.656236 L25.6927567,215.460791 L29.2163734,215.213861 L31.8891815,215.014237 L35.0474724,214.762125 L38.002617,214.507172 L40.2203774,214.301181 L41.2804489,214.197514 L43.3029317,213.988846 L45.1951439,213.778408 L46.9570167,213.566216 L48.1928449,213.405928 L49.3552898,213.244666 L50.4443224,213.082436 L52.2564862,212.797121 L54.0434444,212.50557 L55.8042185,212.208077 L56.2402061,212.132809 L56.2402061,212.132809 L56.6744807,212.057193 L58.3941439,211.751335 L60.0851766,211.440268 L61.7466005,211.124283 L62.1572154,211.044552 L62.1572154,211.044552 L62.5659033,210.964538 L64.1810791,210.641726 L64.5799027,210.560358 L64.5799027,210.560358 L64.9767075,210.478733 L66.5434336,210.149754 L68.0766367,209.817029 L69.5753384,209.480853 L71.0385601,209.141516 L72.4653233,208.799313 L73.8546496,208.454536 L74.5349681,208.281274 L74.5349681,208.281274 L75.2055604,208.107478 L76.5170771,207.758432 L77.7882214,207.407692 L79.0180146,207.055549 L79.3188871,206.967329 L79.3188871,206.967329 L79.6170988,206.879044 L80.7830308,206.525347 L81.7869249,206.208878 L82.0310032,206.130092 L82.0310032,206.130092 L82.2722891,206.051455 L83.2091649,205.738555 L83.660402,205.58321 L83.660402,205.58321 L84.0999886,205.428688 L84.9436615,205.122375 L85.7390849,204.820138 L86.1183597,204.670711 L86.1183597,204.670711 L86.4851601,204.522498 L87.1807886,204.229979 C87.7391543,203.98849 88.2438268,203.752879 88.691945,203.524503 C89.4054424,203.160881 89.9472019,202.829112 90.2971933,202.554031 L90.4194119,202.453581 L90.476373,202.403048 L92.9629926,170.192488 L92.96427,101.8934 L92.9775712,101.024332 L92.9801875,100.089533 L92.9670535,98.740939 L92.9349208,97.2756191 L92.8837874,95.6936479 L92.8136513,93.9951002 L92.7485776,92.6447311 L92.6163634,90.248574 L92.4892076,88.2007447 L92.3430414,86.0366376 L92.1778628,83.7563273 L91.9446504,80.7426425 L91.625573,76.8869109 L91.4499869,74.8612192 L90.9986756,69.8812003 L90.5654654,65.3304897 L90.0592916,60.2203877 L89.5465532,55.2169286 L89.1065666,51.0331767 L88.5193422,45.5772935 L87.890743,39.8701259 L87.0818154,32.6898923 L86.0627826,23.8557992 L85.4440816,18.5867491 L36.5029602,4.22417527 Z M23.3600896,8.16187358 L9.24563052,31.3337151 L8.05793815,214.927 L10.0639382,215.136 L10.0643528,198.085228 C10.0643528,197.532095 10.5142357,197.083693 11.0691943,197.083693 C11.584513,197.083693 12.0092307,197.470325 12.0672755,197.968427 L12.0740358,198.085228 L12.0739382,215.345 L13.2049382,215.463 L13.1614809,200.946014 L13.1061458,173.295639 L13.0788772,131.983941 L13.0803979,131.619939 L13.0803979,131.619939 L13.0853175,131.265788 L13.0920608,130.986775 L13.1142015,130.43121 L13.1301481,130.150413 L13.1601565,129.729224 L13.2298136,128.98591 L13.2848056,128.504207 L13.3753227,127.806377 L13.5521147,126.608327 L13.5819382,126.426 L15.0886847,31.0375528 C15.0910637,30.8869424 15.1274807,30.7393069 15.1946371,30.6054315 L15.2507166,30.5077735 L28.9209382,9.529 L27.3129382,8.979 L13.0750814,31.3487381 L12.0739913,137.501805 C12.0691426,138.015405 11.6772544,138.435068 11.1769839,138.488233 L11.0597397,138.493872 C10.5444438,138.489039 10.1233948,138.09844 10.0700547,137.599816 L10.0643973,137.482958 L11.0692388,31.0438952 C11.0705613,30.9038084 11.1013429,30.7660917 11.1590034,30.6394466 L11.225528,30.5168143 L25.2499382,8.48 L23.3600896,8.16187358 Z M11.0691943,140.997753 C11.584513,140.997753 12.0092307,141.384385 12.0672755,141.882487 L12.0740358,141.999287 L12.0740358,194.079089 C12.0740358,194.632221 11.6241529,195.080624 11.0691943,195.080624 C10.5538756,195.080624 10.1291579,194.693991 10.0711131,194.195889 L10.0643528,194.079089 L10.0643528,141.999287 C10.0643528,141.446155 10.5142357,140.997753 11.0691943,140.997753 Z M20.7550847,6.73301956 L20.6508983,6.84770048 C20.0472458,7.51201295 19.3681503,8.30815897 18.6529289,9.18463429 L17.9271216,10.0859785 L17.1859675,11.0294302 L16.4382038,12.003544 L15.6925675,12.9968744 C14.4564671,14.6620807 13.265636,16.3596674 12.3020978,17.8511891 L11.3882006,19.2931861 L10.7486801,20.3181537 L10.1404488,21.3063147 L9.56306174,22.2590499 L9.0160738,23.1777401 C8.92741768,23.3280948 8.84000965,23.4770884 8.75384045,23.6247498 L8.25161687,24.4949614 C8.17036586,24.6374089 8.09033512,24.7785817 8.01151539,24.9185085 L7.55305493,25.7433481 L7.12321361,26.5396658 C7.0539336,26.6700853 6.98582751,26.7993739 6.91888607,26.9275603 L6.53113911,27.6836839 C6.46881919,27.8075769 6.40764539,27.9304254 6.34760843,28.0522581 L6.00095455,28.7712942 C5.72332111,29.3607163 5.47364509,29.9261812 5.25076766,30.4712844 L5.11271756,30.8139186 L4.98509104,34.533088 L4.85426805,38.7183689 L4.70436196,44.1325343 L4.56959305,49.7495095 L4.44996228,55.5692526 L4.34547063,61.5917217 L4.25611907,67.8168747 L4.18190857,74.2446697 L4.1228401,80.8750648 L4.08648824,86.3252246 L4.0655847,90.4979059 L4.04619419,96.1748791 L4.03649658,101.98143 L4.03528276,104.933291 L4.04362866,105.584288 L4.05542503,106.012465 L4.07258618,106.439318 L4.09543684,106.867701 L4.12430174,107.300468 L4.15950559,107.740475 L4.22490723,108.420306 L4.27737914,108.890903 L4.40507413,109.886648 L4.52203126,110.692431 L4.65836543,111.559468 L4.81517259,112.497396 L5.05798987,113.874894 L5.3417497,115.418389 L6.12373005,119.550502 L6.36081338,120.844859 L6.56894443,122.0273 L6.64693815,122.496 L7.23810874,31.0468656 C7.2389867,30.9110559 7.26755913,30.7773297 7.32156308,30.6536503 L7.3839604,30.5336148 L21.6421517,7.12246566 L21.6879382,7.053 L20.7550847,6.73301956 Z M17.0259382,35.527 L15.7929382,113.632 L15.9720052,112.423607 C16.2864485,110.200116 16.4885887,108.226194 16.5747115,106.412895 L16.5970641,105.873636 L16.7073733,102.651921 L16.8098338,99.4614633 L16.9044461,96.3022641 L16.9912104,93.1743243 L17.0701269,90.0776447 L17.1411959,87.0122265 L17.2044176,83.9780706 L17.2845372,79.485456 L17.347002,75.0631874 L17.3788374,72.1540913 L17.4118793,67.8490739 L17.4241003,65.0181483 L17.4259297,64.3153029 L17.4259297,64.3153029 L17.4272688,63.6144118 L17.4277219,60.8303917 L17.4203302,58.0776431 L17.4050937,55.3561672 L17.3820129,52.6659649 L17.3750171,51.998301 L17.3750171,51.998301 L17.3675309,51.3325917 L17.332684,48.6893017 L17.2899934,46.0772879 L17.2394593,43.4965514 L17.1810819,40.947093 L17.1148616,38.4289139 L17.0407986,35.9420151 L17.0259382,35.527 Z" id="形状结合" fill="#999999" opacity="0.7"></path>
            <g id="编组" transform="translate(0.000000, 60.061234)">
                <path d="M0,44.8812713 C0.0380340666,53.121925 3.53320528,62.6250411 3.53320528,71.9227068 C3.53320528,111.668503 3.53320528,137.708404 3.53320528,150.042409 C3.53320528,152.038638 3.53320528,154.034866 3.53320528,156.031094 C3.53320528,156.466229 3.67511637,156.889493 3.93741346,157.236685 L4.0027392,157.323154 L4.0027392,157.323154 C1.33277849,155.473919 -0.00143984838,153.376165 8.4175472e-05,151.02989 C0.00929499793,136.84959 0.00929499793,101.967485 8.41754716e-05,46.3835733 C2.80584905e-05,15.6698442 0,15.1690768 0,44.8812713 Z" id="路径-5备份-2" fill="#BCBCBC" opacity="0.4"></path>
                <path d="M61.7854749,33.1059234 L42.061568,0 L42.061568,0 L64.5911838,33.2027225 C64.9017608,33.6604312 65.5245794,33.779705 65.9822882,33.4691281 C66.149039,33.3559797 66.2777795,33.1951607 66.3516855,33.0076872 L74.7217951,11.7756657 L74.7217951,11.7756657 L68.556204,33.1538661 C67.7496197,35.9505681 67.3403165,38.8467988 67.3403165,41.7574894 L67.3403165,111.817231 C67.3403165,112.909333 67.6379321,113.980788 68.2011762,114.916439 L73.3693653,123.501741 L73.3693653,123.501741 L67.5536026,117.291073 C66.8590667,116.549376 65.7192139,116.445219 64.9017536,117.048752 L39.2047554,136.020924 L39.2047554,136.020924 L60.9981507,116.471416 C63.1158897,114.571723 64.3257921,111.861032 64.3257921,109.016098 L64.3257921,42.3329788 C64.3257921,39.0845971 63.44809,35.8965676 61.7854749,33.1059234 Z" id="路径" fill="#999999" opacity="0.7"></path>
            </g>
        </g>
    </g>
</svg>