<?xml version="1.0" encoding="UTF-8"?>
<svg width="240px" height="240px" viewBox="0 0 240 240" version="1.1" xmlns="http://www.w3.org/2000/svg" xmlns:xlink="http://www.w3.org/1999/xlink">
    <title>img/产品图/img_m6spoe@1x</title>
    <g id="img/产品图/img_m6spoe" stroke="none" stroke-width="1" fill="none" fill-rule="evenodd">
        <g id="编组-2" transform="translate(72, 10)" fill-rule="nonzero">
            <path d="M36.7584476,0.122682894 L77.999854,12.225 L78,9 C78,7.8954305 78.8954305,7 80,7 L129,7 C130.104569,7 131,7.8954305 131,9 L131,35.9971528 C131,37.0061929 130.248357,37.8571975 129.247045,37.9818364 L105.484937,40.9396372 C105.162843,40.97973 104.837067,40.9804699 104.514794,40.9418406 L91.884854,39.427 L92.6365636,46.2623452 L93.1038826,50.6149404 L93.7552148,56.8426166 L94.2523889,61.7553108 L94.6433086,65.7424226 L94.9344657,68.8011835 L95.3978314,73.8740679 L95.6362324,76.6129399 L95.9072517,79.8730312 L96.148288,82.9515111 L96.3593385,85.8484371 L96.5065868,88.0352977 L96.6346406,90.1060299 L96.7180835,91.5828876 L96.8125429,93.450466 L96.8707882,94.7749922 L96.9182334,96.0342541 L96.9548779,97.2282641 L96.9807209,98.3570347 L96.9983749,99.7606002 L97,100.418907 L96.9934347,101.352034 L96.9830556,101.937901 L96.9830556,170.268486 L96.9771317,170.422172 L94.4516916,203.142034 C94.2785898,204.71146 92.7220892,206.088192 89.8274976,207.461651 L89.269092,207.719182 L88.6793912,207.976914 C88.3767281,208.105877 88.0623542,208.235019 87.7363069,208.364496 L87.0686586,208.623944 C86.9547935,208.667275 86.8396341,208.710656 86.7231818,208.75409 L86.0089642,209.0154 L85.2637832,209.278298 L84.4877054,209.543062 L83.680797,209.809969 L82.4127722,210.214954 L81.3819487,210.53296 C79.5873146,211.077467 77.6472626,211.618137 75.5765471,212.150616 L74.1768745,212.504342 L72.7394583,212.855354 C72.2541369,212.971874 71.7626868,213.087894 71.2652699,213.203366 L69.7552809,213.548092 C69.5006867,213.605257 69.2446412,213.662273 68.9871648,213.719134 L67.4252964,214.058393 C67.162177,214.11461 66.8976671,214.170661 66.631787,214.226539 L65.020225,214.559687 L63.3767484,214.888402 L61.7023285,215.212398 L59.997937,215.531388 C59.711428,215.58412 59.4237108,215.636631 59.1348054,215.688916 L57.3872778,215.99986 C57.093701,216.051215 56.7989765,216.102332 56.5031247,216.153204 L54.714647,216.455458 C54.4143665,216.505328 54.1129992,216.554943 53.8105652,216.604295 L51.9833232,216.897213 L50.6973186,217.096672 L49.9469543,217.20717 L48.7609174,217.371908 L47.5022668,217.535443 L45.7110625,217.751626 L43.7906499,217.965693 L42.7819697,218.071936 L41.2083333,218.230319 L38.9969576,218.43967 L36.6561562,218.646947 L33.5480475,218.903148 L30.9157936,219.105807 L27.4431575,219.356277 L24.5191122,219.554385 L21.4652731,219.750492 L17.4653498,219.992833 L17.249514,219.999938 C15.5602892,220.009211 14.1086561,218.978559 13.5057734,217.508501 L7.40239105,216.873026 C7.10202487,217.602325 6.38242983,218.11592 5.54248205,218.11592 C4.48301559,218.11592 3.61503019,217.298791 3.53831141,216.262343 L3.53279911,216.112851 L3.53279911,131.983941 C3.53279911,130.793271 3.47264023,129.555732 3.35534145,128.250692 L3.27003422,127.372065 L3.17181092,126.497161 L3.05807278,125.606751 L2.97234467,124.995035 L2.82697346,124.036052 L2.6591574,123.010289 L2.46629773,121.898518 L2.1657031,120.24913 L1.37758966,116.08453 L1.01569362,114.104336 L0.773319089,112.705783 L0.617293542,111.749092 L0.482098059,110.859988 L0.366611285,110.028157 L0.269711867,109.243282 L0.214884808,108.741027 L0.146472417,108.011493 L0.0936571021,107.30141 L0.0793242001,107.067255 L0.0455606594,106.367061 L0.0247777024,105.662249 L0.0158539746,104.942505 L0.0207102505,99.060452 L0.0462065349,90.4806367 L0.0753460849,84.9229291 L0.125431243,78.158226 L0.190695955,71.5962151 L0.271141265,65.2368864 L0.346428246,60.2953479 L0.431432013,55.4835146 L0.526153102,50.8013814 L0.630592046,46.248943 L0.71529892,42.9197235 L0.8367454,38.5942389 L0.93420854,35.4352289 L1.07266419,31.3366825 C1.08460717,31.00054 1.0966514,30.6657483 1.10879688,30.3323074 C1.11675031,30.1139545 1.16049373,29.8983698 1.23829369,29.6940961 C1.63802087,28.6445618 2.1201609,27.5479959 2.69353874,26.3778036 L3.08940418,25.5864759 C3.22592947,25.3188696 3.36705716,25.0473355 3.51288412,24.7715819 L3.96455961,23.9313704 C4.04222077,23.7891281 4.12108095,23.6457579 4.20115227,23.5012234 L4.6962106,22.6197524 C4.86613913,22.3210768 5.04100903,22.017452 5.22091714,21.7085862 L5.77585298,20.7659736 L6.36159917,19.7901636 L6.97873678,18.779405 L7.9645732,17.1939081 L8.66273153,16.088117 L9.18567801,15.2783495 L9.74660154,14.4359619 C9.84295081,14.2932449 9.94065541,14.1494682 10.0396018,14.0047814 L10.6472736,13.126939 C10.8541926,12.8314835 11.0651706,12.5335858 11.2792993,12.2344437 L11.9302298,11.3344825 L12.5946157,10.4342423 L13.2670079,9.54091007 C13.6042974,9.09716873 13.9425457,8.65871297 14.2786877,8.22958541 L14.9472551,7.38496575 L15.6047565,6.57240826 C16.7967015,5.11650186 17.9053819,3.85847631 18.7796948,2.99761911 C19.2840354,2.50104032 20.0100715,2.30876899 20.6893143,2.48181772 L20.8451098,2.52826479 L29.965854,5.651 L31.245854,5.962 L31.4589376,5.63587297 C31.5060047,5.56364772 31.5612025,5.49912134 31.6227083,5.44293583 L31.412854,5.915 L31.7875322,5.07563691 C32.2446751,4.03044058 32.6838905,2.97268842 33.1051959,1.9023286 C33.6772884,0.456675866 35.2613771,-0.316342579 36.7584476,0.122682894 Z M36.502876,4.22417527 L36.4186445,4.43489785 C34.5435912,9.03755416 32.3429196,13.4204632 29.8167955,17.5826498 C27.1452648,21.9844164 24.2639363,26.1440122 21.1728411,30.0609705 L20.843854,30.471 L20.8665379,30.4443523 L20.9755604,33.3418774 L21.0578854,35.8095078 L21.13233,38.3083361 L21.1988946,40.8383636 L21.2575794,43.3995912 C21.2667036,43.8290625 21.2754994,44.2598339 21.2839669,44.6919053 L21.3308325,47.2999349 C21.3379868,47.7372067 21.3448128,48.1757786 21.3513105,48.6156506 L21.3863574,51.2704846 L21.4135255,53.9565228 L21.4395054,58.0440901 L21.4477596,62.2018726 L21.4434152,65.0127377 L21.4311932,67.8548122 L21.4110941,70.7280969 L21.3831179,73.6325931 C21.3777988,74.1192767 21.3721516,74.6072609 21.3661761,75.0965457 L21.326385,78.0478607 L21.2787176,81.0303897 C21.2701167,81.5300791 21.2611876,82.031069 21.2519304,82.5333597 L21.192449,85.5627114 L21.1250919,88.6232796 L21.0092901,93.272665 L20.8757694,97.9922932 L20.7245309,102.782168 L20.6138623,106.014445 C20.5325166,108.319757 20.2748646,110.818237 19.8504904,113.683323 L19.7975237,114.037397 L19.6306214,115.110968 L19.447443,116.22925 L19.1683927,117.85138 L18.685838,120.538824 L17.8568104,125.208991 L17.6125907,126.674475 L17.4527009,127.704786 L17.307241,128.756727 L17.2352152,129.370133 L17.1696729,130.064895 L17.1343518,130.581742 L17.1162993,130.962075 C17.1032413,131.299891 17.0981589,131.633229 17.0981589,131.983834 L17.0981589,135.685317 L17.1113319,161.178915 L17.1726867,197.81236 L17.2271491,215.993735 L18.0372589,215.945876 L22.7277773,215.656236 L25.6926725,215.460791 L29.2162892,215.213861 L31.8890973,215.014237 L35.0473882,214.762125 L38.0025328,214.507172 L40.2202932,214.301181 L41.2803647,214.197514 L43.3028476,213.988846 L45.1950597,213.778408 L46.9569325,213.566216 L48.1927608,213.405928 L49.3552056,213.244666 L50.4442382,213.082436 L52.2564021,212.797121 L54.0433602,212.50557 L55.8041343,212.208077 C56.0953603,212.158016 56.3854545,212.107719 56.6743965,212.057193 L58.3940597,211.751335 L60.0850925,211.440268 L61.7465163,211.124283 C62.0208985,211.071225 62.2940063,211.017975 62.5658191,210.964538 L64.1809949,210.641726 C64.4475468,210.587567 64.7127631,210.533234 64.9766233,210.478733 L66.5433494,210.149754 L68.0765525,209.817029 L69.5752542,209.480853 L71.0384759,209.141516 L72.4652392,208.799313 L73.8545654,208.454536 C74.3113259,208.339214 74.7616839,208.223512 75.2054762,208.107478 L76.5169929,207.758432 L77.7881372,207.407692 L79.0179304,207.055549 C79.2193957,206.996758 79.4190972,206.937921 79.6170146,206.879044 L80.7829466,206.525347 L81.7868407,206.208878 C81.9504866,206.156306 82.1122823,206.103828 82.2722049,206.051455 L83.2090808,205.738555 C83.5137584,205.634732 83.8107606,205.531414 84.0999044,205.428688 L84.9435773,205.122375 L85.7390007,204.820138 C85.9959782,204.720129 86.244731,204.620887 86.4850759,204.522498 L87.1807044,204.229979 C87.7390701,203.98849 88.2437426,203.752879 88.6918608,203.524503 C89.4945454,203.115428 90.0798742,202.746667 90.4193277,202.453581 L90.4762888,202.403048 L92.9629084,170.192488 L92.9641858,101.8934 L92.977487,101.024332 L92.9801033,100.089533 L92.9669694,98.740939 L92.9348367,97.2756191 L92.8837032,95.6936479 L92.8135672,93.9951002 L92.7484934,92.6447311 L92.6162792,90.248574 L92.4891235,88.2007447 L92.3429573,86.0366376 L92.1777786,83.7563273 L91.9445662,80.7426425 L91.6254888,76.8869109 L91.4499027,74.8612192 L90.9985915,69.8812003 L90.5653812,65.3304897 L90.0592075,60.2203877 L89.546469,55.2169286 L89.1064824,51.0331767 L88.519258,45.5772935 L87.8906588,39.8701259 L87.784854,38.936 L79.7619732,37.9748358 C78.756666,37.8543344 78,37.001554 78,35.9890505 L77.999854,16.402 L36.502876,4.22417527 Z M23.3600054,8.16187358 L9.24554635,31.3337151 L8.05785397,214.927 L10.063854,215.136 L10.0642687,198.085228 C10.0642687,197.532095 10.5141515,197.083693 11.0691101,197.083693 C11.5844288,197.083693 12.0091465,197.470325 12.0671913,197.968427 L12.0739516,198.085228 L12.073854,215.345 L13.204854,215.463 L13.1613967,200.946014 L13.1060617,173.295639 L13.0787931,131.983941 C13.0787931,131.737067 13.0807014,131.499526 13.0852333,131.265788 L13.0919766,130.986775 L13.1141173,130.43121 L13.1300639,130.150413 L13.1600723,129.729224 L13.2297294,128.98591 L13.2847215,128.504207 L13.3752385,127.806377 L13.5520305,126.608327 L13.581854,126.426 L15.0886005,31.0375528 C15.0909795,30.8869424 15.1273965,30.7393069 15.1945529,30.6054315 L15.2506324,30.5077735 L28.920854,9.529 L27.312854,8.979 L13.0749972,31.3487381 L12.0739071,137.501805 C12.0690584,138.015405 11.6771702,138.435068 11.1768997,138.488233 L11.0596555,138.493872 C10.5443596,138.489039 10.1233106,138.09844 10.0699705,137.599816 L10.0643131,137.482958 L11.0691546,31.0438952 C11.0704771,30.9038084 11.1012587,30.7660917 11.1589192,30.6394466 L11.2254438,30.5168143 L25.249854,8.48 L23.3600054,8.16187358 Z M11.0691101,140.997753 C11.5844288,140.997753 12.0091465,141.384385 12.0671913,141.882487 L12.0739516,141.999287 L12.0739516,194.079089 C12.0739516,194.632221 11.6240687,195.080624 11.0691101,195.080624 C10.5537914,195.080624 10.1290737,194.693991 10.071029,194.195889 L10.0642687,194.079089 L10.0642687,141.999287 C10.0642687,141.446155 10.5141515,140.997753 11.0691101,140.997753 Z M20.7550005,6.73301956 L20.6508141,6.84770048 C20.0471617,7.51201295 19.3680661,8.30815897 18.6528447,9.18463429 L17.9270374,10.0859785 L17.1858833,11.0294302 L16.4381196,12.003544 L15.6924833,12.9968744 C14.456383,14.6620807 13.2655518,16.3596674 12.3020136,17.8511891 L11.3881164,19.2931861 L10.7485959,20.3181537 L10.1403647,21.3063147 L9.56297756,22.2590499 L9.01598962,23.1777401 C8.9273335,23.3280948 8.83992548,23.4770884 8.75375627,23.6247498 L8.2515327,24.4949614 C8.17028168,24.6374089 8.09025095,24.7785817 8.01143122,24.9185085 L7.55297075,25.7433481 L7.12312944,26.5396658 C7.05384942,26.6700853 6.98574333,26.7993739 6.9188019,26.9275603 L6.53105493,27.6836839 C6.46873502,27.8075769 6.40756122,27.9304254 6.34752425,28.0522581 L6.00087038,28.7712942 C5.72323693,29.3607163 5.47356092,29.9261812 5.25068348,30.4712844 L5.11263339,30.8139186 L4.98500686,34.533088 L4.85418388,38.7183689 L4.70427779,44.1325343 L4.56950887,49.7495095 L4.44987811,55.5692526 L4.34538646,61.5917217 L4.2560349,67.8168747 L4.18182439,74.2446697 L4.12275592,80.8750648 L4.08640406,86.3252246 L4.06550052,90.4979059 L4.04611002,96.1748791 L4.0364124,101.98143 L4.03519858,104.933291 L4.04354449,105.584288 L4.05534085,106.012465 L4.07250201,106.439318 L4.09535267,106.867701 L4.12421756,107.300468 L4.15942141,107.740475 L4.22482306,108.420306 L4.27729496,108.890903 L4.40498995,109.886648 L4.52194708,110.692431 L4.65828126,111.559468 L4.81508841,112.497396 L5.0579057,113.874894 L5.34166553,115.418389 L6.12364588,119.550502 L6.36072921,120.844859 L6.56886026,122.0273 L6.64685397,122.496 L7.23802457,31.0468656 C7.23890253,30.9110559 7.26747495,30.7773297 7.32147891,30.6536503 L7.38387622,30.5336148 L21.6420675,7.12246566 L21.687854,7.053 L20.7550005,6.73301956 Z M17.025854,35.527 L15.792854,113.632 L15.971921,112.423607 C16.3178087,109.977766 16.5278095,107.833905 16.59698,105.873636 L16.7072891,102.651921 L16.8097497,99.4614633 L16.904362,96.3022641 L16.9911262,93.1743243 L17.0700427,90.0776447 L17.1411117,87.0122265 L17.2043335,83.9780706 L17.2844531,79.485456 L17.3469178,75.0631874 L17.3787532,72.1540913 L17.4117952,67.8490739 L17.4240161,65.0181483 C17.4253992,64.5489332 17.4264553,64.081021 17.4271846,63.6144118 L17.4276378,60.8303917 L17.420246,58.0776431 L17.4050096,55.3561672 L17.3819287,52.6659649 C17.3774283,52.2202041 17.3726009,51.7757463 17.3674468,51.3325917 L17.3325999,48.6893017 L17.2899092,46.0772879 L17.2393751,43.4965514 L17.1809978,40.947093 L17.1147775,38.4289139 L17.0407145,35.9420151 L17.025854,35.527 Z M91.7529679,14 L85,14 L85,32 L88.5667084,32 L88.5667084,25.657967 L91.6935228,25.657967 C93.7463617,25.657967 95.3533619,25.1490385 96.5145237,24.1311813 C97.6756854,23.1133242 98.2562663,21.7225275 98.2562663,19.9587912 C98.2562663,18.7967033 97.9907447,17.7603022 97.4597014,16.8495879 C96.9286582,15.9388736 96.1697419,15.2362637 95.1829525,14.7417582 C94.1961632,14.2472527 93.052835,14 91.7529679,14 Z M105.295284,17.6 C104.086486,17.6 103.012183,17.8807487 102.072376,18.442246 C101.132569,19.0037433 100.405297,19.8090909 99.8905618,20.8582888 C99.3758264,21.9074866 99.1184586,23.1219251 99.1184586,24.5016043 L99.1184586,25.1946524 C99.1251004,26.542246 99.3874494,27.7342246 99.9055058,28.7705882 C100.423562,29.8069519 101.154154,30.6042781 102.097283,31.1625668 C103.040411,31.7208556 104.113053,32 105.31521,32 C106.530649,32 107.608273,31.7176471 108.54808,31.1529412 C109.487888,30.5882353 110.210178,29.7860963 110.714951,28.7465241 C111.219723,27.7069519 111.47211,26.4973262 111.47211,25.1176471 L111.47211,24.4919786 C111.47211,23.1187166 111.214742,21.9074866 110.700007,20.8582888 C110.185271,19.8090909 109.458,19.0037433 108.518192,18.442246 C107.578385,17.8807487 106.504082,17.6 105.295284,17.6 Z M124.975569,14 L113.077526,14 L113.077526,32 L125,32 L125,29.0206044 L116.742221,29.0206044 L116.742221,24.1991758 L123.778435,24.1991758 L123.778435,21.293956 L116.742221,21.293956 L116.742221,17.0041209 L124.975569,17.0041209 L124.975569,14 Z M105.295284,20.3 C106.144179,20.3 106.797604,20.6562874 107.255561,21.3688623 C107.713517,22.0814371 107.942495,23.1233533 107.942495,24.4946108 L107.942495,25.1323353 C107.93691,26.4916168 107.707932,27.5260479 107.255561,28.2356287 C106.803189,28.9452096 106.155349,29.3 105.312039,29.3 C104.451974,29.3 103.792964,28.9317365 103.335008,28.1952096 C102.877051,27.4586826 102.648073,26.4227545 102.648073,25.0874251 L102.648073,24.4497006 C102.653658,23.0904192 102.885429,22.058982 103.343385,21.3553892 C103.801341,20.6517964 104.451974,20.3 105.295284,20.3 Z M91.8361911,17.1644385 C92.7159792,17.1804813 93.4055428,17.4532086 93.904882,17.9826203 C94.4042212,18.5120321 94.6538908,19.2058824 94.6538908,20.0641711 C94.6538908,20.8983957 94.4062027,21.540107 93.9108265,21.9893048 C93.4154504,22.4385027 92.6961642,22.6631016 91.7529679,22.6631016 L88.5667084,22.6631016 L88.5667084,17.1644385 Z" id="形状结合" fill="#999999" opacity="0.7"></path>
            <g id="编组" transform="translate(0, 60.0612)">
                <path d="M0.518274708,44.8812713 C0.556308775,53.121925 3.5,62.6411003 3.5,71.9387659 L3.53947449,149.862519 L3.50467338,155.887209 C3.5016474,156.411061 3.67625382,156.920473 4,157.33232 L4,157.33232 L4,157.33232 L2.37627146,156.609164 C0.931060821,155.965514 -7.79985911e-15,154.531624 -7.99360578e-15,152.949563 L0,46.3835733 L0,46.3835733 C0.345516472,15.6698442 0.518274708,15.1690768 0.518274708,44.8812713 Z" id="路径-5备份-2" fill="#BCBCBC" opacity="0.4"></path>
                <path d="M61.7853907,33.1059234 L42.0614838,1.42108547e-14 L42.0614838,1.42108547e-14 L64.5910996,33.2027225 C64.9016766,33.6604312 65.5244953,33.779705 65.982204,33.4691281 C66.1489549,33.3559797 66.2776953,33.1951607 66.3516013,33.0076872 L74.721711,11.7756657 L74.721711,11.7756657 L68.5561198,33.1538661 C67.7495355,35.9505681 67.3402323,38.8467988 67.3402323,41.7574894 L67.3402323,111.817231 C67.3402323,112.909333 67.637848,113.980788 68.201092,114.916439 L73.3692811,123.501741 L73.3692811,123.501741 L67.5535184,117.291073 C66.8589825,116.549376 65.7191297,116.445219 64.9016694,117.048752 L39.2046712,136.020924 L39.2046712,136.020924 L60.9980665,116.471416 C63.1158055,114.571723 64.3257079,111.861032 64.3257079,109.016098 L64.3257079,42.3329788 C64.3257079,39.0845971 63.4480058,35.8965676 61.7853907,33.1059234 Z" id="路径" fill="#999999" opacity="0.7"></path>
            </g>
        </g>
    </g>
</svg>