<?xml version="1.0" encoding="UTF-8"?>
<svg width="240px" height="240px" viewBox="0 0 240 240" version="1.1" xmlns="http://www.w3.org/2000/svg" xmlns:xlink="http://www.w3.org/1999/xlink">
    <title>img/产品图/img_nano</title>
    <defs>
        <linearGradient x1="50.8815548%" y1="2.71135731%" x2="51.8578322%" y2="96.3309425%" id="linearGradient-1">
            <stop stop-color="#999999" stop-opacity="0" offset="0%"></stop>
            <stop stop-color="#999999" offset="62.5336813%"></stop>
            <stop stop-color="#999999" offset="85.3460946%"></stop>
            <stop stop-color="#999999" stop-opacity="0" offset="100%"></stop>
        </linearGradient>
    </defs>
    <g id="img/产品图/img_nano" stroke="none" stroke-width="1" fill="none" fill-rule="evenodd" opacity="0.7">
        <g id="编组" transform="translate(60.000000, 31.000000)" fill-rule="nonzero">
            <path d="M38.7674677,18.6901527 L61.2868522,131.152004 C62.0333629,134.88008 65.3730157,137.516826 69.1725619,137.377985 L103.80553,136.112445 C106.15586,136.02656 108.029525,134.119219 108.073531,131.767732 L110.210372,17.5838395 L110.210372,17.5838395 L112.968753,136.602928 C112.975894,136.911047 112.961593,137.219288 112.925953,137.525422 L110.210372,160.851399 L110.210372,160.851399 L108.43401,143.9962 C108.187703,141.659094 106.159499,139.920882 103.812234,140.035245 L67.0636432,141.825709 C64.1891849,141.965758 61.4820852,143.21907 59.515577,145.320253 L38.7674677,167.489279 L38.7674677,167.489279 L56.1209908,142.000005 C57.0696325,140.606618 57.4533461,138.90481 57.1944401,137.239151 L38.7674677,18.6901527 L38.7674677,18.6901527 Z" id="路径" fill="url(#linearGradient-1)"></path>
            <path d="M36.3508324,0 C30.8458389,0.118916729 26.2742599,1.40379229 23.7079708,3.96700288 C21.092705,6.57913136 19.6356288,10.3173756 19.2353483,17.1411934 L19.1843029,18.162055 L14.2528705,173.038812 C14.1893868,175.032628 15.4693316,176.822388 17.3782322,177.409037 L19.3616302,178.018581 C22.0040659,178.830663 24.7750288,179.143072 27.5322185,178.939766 L106.432197,173.121922 L106.566727,173.095049 C110.64844,172.279685 113.608328,171.012684 115.45221,169.171013 C118.462877,166.163958 120.148744,159.748281 119.989671,150.96341 L117.208175,22.6315395 L117.192646,21.5832648 L117.169371,20.5794293 C117.164806,20.4157294 117.159886,20.2538082 117.154597,20.0936292 L117.118313,19.1531706 L117.07243,18.2527751 L117.016206,17.3906924 C117.005933,17.2501075 116.995197,17.1110459 116.983985,16.9734713 L116.91086,16.1655757 C116.343995,10.4993542 114.837726,7.4476702 111.164357,4.11111035 L110.692889,3.69173996 L110.276291,3.33701728 C110.2075,3.27980671 110.138996,3.22354124 110.070727,3.16820613 L109.663521,2.84724187 C109.595986,2.79556923 109.528582,2.74479746 109.461259,2.69491182 L109.057868,2.40611359 C107.646474,1.43171147 106.224883,0.835087479 104.314872,0.479693965 L103.755451,0.3845991 C103.564272,0.355010207 103.36825,0.32749139 103.166971,0.301924695 L102.546952,0.230963018 L101.892917,0.171006341 L101.202387,0.121346932 L100.472883,0.0812770621 L99.7019258,0.0500890013 C99.5698409,0.0455918236 99.4359255,0.0414352325 99.300128,0.0376044836 L98.4623446,0.0184121425 L97.576912,0.00633228521 L96.6413515,0 L36.3508324,0 Z M36.3989425,4.42473097 L97.0267493,4.4270616 L97.8369158,4.43288565 L98.9583217,4.45045523 L99.9749213,4.48041461 L100.895497,4.52477704 L101.460204,4.56334791 L101.98874,4.60981144 L102.483706,4.66476418 L102.947704,4.72880264 C103.022601,4.74026601 103.096316,4.75213279 103.168903,4.76441544 L103.591329,4.84320097 C104.479145,5.025146 105.194706,5.28157101 105.857116,5.63977944 L106.159503,5.81243305 C106.309243,5.90247289 106.457128,5.99815685 106.604623,6.09982046 L106.899524,6.31122 C106.948732,6.34781521 106.998004,6.38509969 107.047396,6.42308585 L107.345612,6.65952252 L107.803992,7.04705845 L107.961034,7.18530361 C108.101267,7.30980556 108.237497,7.43341499 108.369835,7.55645806 L108.755285,7.92421436 C110.625281,9.75776202 111.644807,11.5372636 112.191106,14.3634878 L112.294168,14.9430151 C112.358818,15.3391057 112.415503,15.7551093 112.465116,16.1936351 L112.534344,16.8686418 L112.593634,17.5793887 C112.602725,17.7009336 112.61143,17.8240492 112.619763,17.9487763 L112.665406,18.7168029 C112.672306,18.848139 112.678862,18.9811681 112.685088,19.1159311 L112.718592,19.9456404 L112.755457,21.2725059 L112.778263,22.7040039 L115.547749,150.506477 C115.608173,152.764293 115.538971,154.82455 115.362696,156.664419 L115.273818,157.497857 C114.776181,161.722243 113.689415,164.673441 112.319326,166.041887 L112.168332,166.18554 C111.067741,167.184504 109.050951,168.043228 106.122389,168.668069 L105.822135,168.729358 L27.2060173,174.526523 C24.9985954,174.689291 22.7801466,174.439175 20.6645975,173.789017 L18.6811994,173.179473 L23.6118308,18.3244985 L23.6568623,17.4090567 C23.6738045,17.1120445 23.692678,16.8230725 23.7134815,16.5418561 L23.78168,15.7211895 C24.2132622,11.0663733 25.2354527,8.69960586 26.8408553,7.09612915 C28.4183582,5.52051866 31.9757089,4.52069934 36.3989425,4.42473097 Z" id="矩形" fill="#999999"></path>
            <path d="M38.6926653,0.0759080819 L38.7596267,4.50065546 L17.270427,4.8258646 L16.5261815,4.84360008 L15.835157,4.86759849 L15.1945279,4.89849405 L14.601469,4.93692093 C14.1262893,4.97225756 13.6977186,5.01609994 13.3083991,5.07009962 L12.8595853,5.13988045 C11.3513828,5.40191751 10.483654,5.85478273 9.71126994,6.620836 L9.49271228,6.84833619 L9.27651803,7.09351481 C8.98511921,7.43656 8.71166011,7.9119951 8.46005494,8.52858675 L8.31174562,8.91555065 C8.26320422,9.05023164 8.21556828,9.19062902 8.16886913,9.33681293 L8.03161336,9.79279438 C8.00921623,9.87170793 7.98706112,9.95208564 7.96515195,10.0339363 L7.83667952,10.5427855 C7.79486001,10.7183404 7.75405557,10.8998571 7.71429751,11.0874059 L7.5981938,11.6682182 L7.48855627,12.2856433 L7.38557281,12.9401019 L7.2894313,13.6320149 C7.27398831,13.7504783 7.25883824,13.8705199 7.24398499,13.9921483 L7.15845868,14.7410319 L7.08024403,15.5284218 L7.00952892,16.3547388 C6.99837847,16.4957257 6.98754833,16.638352 6.97704241,16.7826266 L6.91792889,17.6681234 L6.86678461,18.5935993 C6.85893511,18.7512003 6.85142549,18.9104846 6.84425966,19.0714609 L6.80542154,20.0576946 L4.44299118,88.6898106 L8.51905609,99.5598593 C8.59577533,99.7644554 8.64159194,99.9788896 8.65535962,100.196135 L8.65840187,100.414057 L6.21575684,169.447045 L18.2102828,172.928403 L16.9739295,177.177869 L4.97940349,173.69651 C3.10324413,173.151963 1.8145546,171.448699 1.78565853,169.514854 L1.78795342,169.290748 L4.21481694,100.697734 L0.139419977,89.8299258 C0.0628892848,89.6258325 0.0171081347,89.4119457 0.00321779729,89.1952404 L0,88.9778539 L2.39777802,19.3565931 L2.44583555,18.2887828 L2.50388707,17.2609107 C2.52491293,16.924881 2.54761901,16.5954146 2.57201985,16.2724185 L2.65032119,15.3227478 L2.73887837,14.4113403 C3.26992551,9.35405475 4.29916675,6.11287987 5.89807546,4.23058693 C7.81289763,1.97638928 9.80087262,0.975010864 13.6599896,0.590162157 L14.3607999,0.52851813 C14.6011218,0.510017101 14.8482842,0.493519881 15.1026531,0.47889696 L15.8877452,0.440521577 L16.718272,0.412614914 L17.5964291,0.394399901 L38.6926653,0.0759080819 Z" id="直线-26" fill="#999999"></path>
        </g>
    </g>
</svg>