<svg width="300" height="300" xmlns="http://www.w3.org/2000/svg"><g fill="none" fill-rule="evenodd"><g transform="translate(158.5 18.636)"><path d="m47.045 0 2.926.121.456 2.798c7.375 45.496 11.064 80.804 11.064 105.945 0 5.563-.233 9.522-.77 14.151l-.2 1.654-.885 6.886-.207 1.783-.15 1.385-.095.937c-.876 8.804-1.334 19.241-1.377 35.218l-.004 2.56.008 3.215.018 2.461c.155 16.668 1.018 27.343 2.474 35.003l.143.73.19.885c.593 2.7 1.626 6.835 1.694 7.153.451 2.113.66 3.993.66 6.343v24.513c0 3.99-3.188 6.34-8.925 7.11l-1.7-1.487h-41.74l-1.699 1.487c-5.62-.754-8.794-3.025-8.921-6.868L0 253.741 0 233h3v20.741c0 1.756 1.271 3.011 4.164 3.735l.294.07.168.037L7.625 233h3v23.363h41.74v-29.55c.05-4.162-.636-7.786-2.187-12.936l-1.403-4.61-.297-1.007-.273-.962c-.624-2.264-.707-3.124-.714-4.66v-72.274c0-4.109.595-8.084 1.997-14.658l.913-4.228.518-2.482.21-1.05c.971-4.925 1.294-7.78 1.237-10.991l-.082-4.305-.093-4.354-.11-4.624c-.632-24.976-1.735-46.747-3.31-65.31H14.82l-.226 2.24c-1.938 19.532-3.211 42.525-3.819 68.976l-.068 3.125-.083 4.252-.005.488c-.01 3.173.443 6.376 1.69 12.57l.301 1.485.724 3.479.416 2.038.218 1.094c1.047 5.327 1.483 8.522 1.528 11.704l.004.55-.002 72.363-.005.364c-.037 1.714-.253 2.845-1.286 6.305l-.333 1.104-.88 2.862c-1.04 3.368-1.719 6.059-2.074 8.64H7.893c.32-2.546.928-5.144 1.851-8.257l.192-.64 1.322-4.318.277-.934c.705-2.417.902-3.43.951-4.624l.014-.612v-72.252l-.004-.57c-.049-3.046-.498-6.215-1.578-11.648l-.321-1.59-1.12-5.41-.496-2.501-.198-1.036c-.849-4.53-1.172-7.31-1.163-10.152l.006-.556.034-1.82.076-3.753.085-3.708c.3-12.285.743-23.82 1.332-34.604l.09-1.612.178-3.069-.125.928c-3.141 23.53-4.739 43.121-4.794 58.766v1.638c.017 4.737.183 8.288.54 12.273l.064.708.135 1.374.795 7.648.131 1.401c.78 8.626 1.216 18.53 1.313 33.6l.016 3.388.005 3.379-.008 3.287-.015 2.447c-.131 16.04-.829 26.632-2.015 34.377l-.058.373L5.23 215l-.169.942-.188.981a278.21 278.21 0 0 1-.656 3.235L3.828 222H.761l.868-4.15c.201-.991.393-1.962.535-2.739l.108-.61.171-1.055.173-1.147.169-1.211c.989-7.41 1.575-17.407 1.693-31.977l.016-2.457.007-3.216-.003-2.576-.013-3.346c-.081-14.688-.477-24.472-1.191-32.87l-.12-1.365-.208-2.178-.529-5.054-.318-3.125-.116-1.297-.11-1.347c-.255-3.345-.378-6.567-.391-10.637v-1.552C1.58 83.746 5.356 50.03 12.824 6.926l.704-4.027.496-2.798L16.956 0l3.84 15.363h2.205v-15h4v15h3v-15h4v15h3v-15h4v15h2.203L47.045 0Zm6.586 45.655.205 4.015.15 3.1c.61 13.007 1.059 27.107 1.346 42.302l.033 1.829c.077 4.29-.458 7.87-2.123 15.638l-.691 3.194c-1.41 6.542-2.024 10.438-2.059 14.282l.002 72.803.01.4.013.249c.076 1.24.366 2.413 1.424 5.908l1.114 3.651c1.63 5.412 2.365 9.297 2.31 13.806v30.75l.168-.036c3.1-.71 4.458-1.99 4.458-3.805v-24.513c0-1.94-.154-3.497-.489-5.2l-.139-.66-.996-4.115-.456-1.958a86.365 86.365 0 0 1-.443-2.04l-.18-.933-.134-.743c-1.525-8.646-2.35-20.825-2.35-40.141l.003-2.55.015-3.365.021-2.503c.145-14.19.678-23.702 1.607-32.03l.251-2.15.882-6.852.158-1.312c.471-4.066.701-7.587.743-12.216l.007-1.596-.006-1.67-.016-1.7c-.19-15.148-1.642-33.801-4.355-55.954l-.483-3.885ZM15.953 8.357a489.4 489.4 0 0 0-.813 7.007l2.564-.001-1.751-7.006Zm31.95.579-1.606 6.427h2.213a633.972 633.972 0 0 0-.451-4.846l-.156-1.581Z" fill-opacity=".7" fill="#999" fill-rule="nonzero"/><path d="M35.5 98.864h-8a4.5 4.5 0 0 0-4.5 4.5v8a4.5 4.5 0 0 0 4.5 4.5h8a4.5 4.5 0 0 0 4.5-4.5v-8a4.5 4.5 0 0 0-4.5-4.5Zm-8 1h8a3.5 3.5 0 0 1 3.5 3.5v8a3.5 3.5 0 0 1-3.5 3.5h-8a3.5 3.5 0 0 1-3.5-3.5v-8a3.5 3.5 0 0 1 3.5-3.5Z" fill-opacity=".7" fill="#999" fill-rule="nonzero"/><text font-family="PingFangSC-Semibold, PingFang SC" font-size="4" font-weight="500" fill="#999">
                <tspan x="22.081" y="95.364">CONNECT</tspan>
            </text><text font-family="PingFangSC-Semibold, PingFang SC" font-size="4" font-weight="500" fill="#999">
                <tspan x="27.273" y="211.364">WAN</tspan>
            </text><text font-family="PingFangSC-Semibold, PingFang SC" font-size="4" font-weight="500" fill="#999">
                <tspan x="27.995" y="127.364">LAN</tspan>
            </text><text font-family="PingFangSC-Semibold, PingFang SC" font-size="4" font-weight="500" fill="#999">
                <tspan x="25.057" y="238.364">POWER</tspan>
            </text><text font-family="PingFangSC-Semibold, PingFang SC" font-size="4" font-weight="500" fill="#999">
                <tspan x="25.007" y="76.364">RESET</tspan>
            </text><circle fill-opacity=".5" fill="#999" cx="32.001" cy="80.864" r="1.5"/><circle fill-opacity=".5" fill="#999" cx="29.501" cy="227.364" r="5"/><path d="M32 132.364v2.099h3.215v4.2h2.143v1.05h2.143v6.3h-2.142l-.001 1.05h-2.142l-.001 4.2H32v2.1h-5.358v-2.1h-2.142v-16.8h2.143v-2.1H32Zm-.5 15.409h-5v1.09h5v-1.09Zm0-2.182h-5v1.091h5v-1.09Zm0-2.182h-5v1.091h5v-1.09Zm0-2.182h-5v1.091h5v-1.09Zm0-2.181h-5v1.09h5v-1.09Zm0-2.182h-5v1.09h5v-1.09ZM32 157.364v2.099h3.215v4.2h2.143v1.05h2.143v6.3h-2.142l-.001 1.05h-2.142l-.001 4.2H32v2.1h-5.358v-2.1h-2.142v-16.8h2.143v-2.1H32Zm-.5 15.409h-5v1.09h5v-1.09Zm0-2.182h-5v1.091h5v-1.09Zm0-2.182h-5v1.091h5v-1.09Zm0-2.182h-5v1.091h5v-1.09Zm0-2.181h-5v1.09h5v-1.09Zm0-2.182h-5v1.09h5v-1.09Z" fill-opacity=".5" fill="#999"/><path d="M32 182.364v2.099h3.215v4.2h2.143v1.05h2.143v6.3h-2.142l-.001 1.05h-2.142l-.001 4.2H32v2.1h-5.358v-2.1h-2.142v-16.8h2.143v-2.1H32Zm-.5 15.409h-5v1.09h5v-1.09Zm0-2.182h-5v1.091h5v-1.09Zm0-2.182h-5v1.091h5v-1.09Zm0-2.182h-5v1.091h5v-1.09Zm0-2.181h-5v1.09h5v-1.09Zm0-2.182h-5v1.09h5v-1.09Z" fill-opacity=".5" fill="#C97676"/><path stroke="#999" stroke-linecap="square" d="M22.5 182.364h-2v27.5H25M40.5 182.364h2v27.5h-4M22.5 179.364h-2v-53H25M40.5 179.364h2v-53h-4"/></g><path d="M66.733 184a1 1 0 0 1 .993.883l.007.117v46.633c0 7.078 5.655 12.834 12.693 12.997l.307.003 61.767-.133v2l-61.767.133c-8.18 0-14.83-6.546-14.997-14.686l-.003-.314V185a1 1 0 0 1 1-1Z" fill="#9F9FA0" fill-rule="nonzero"/><path d="M134.596 248.603c-.185 0-.334-.27-.334-.607v-4.245c0-.334.15-.605.334-.605h7.33c.186 0 .336.27.336.605v4.245c0 .336-.15.607-.335.607h-7.331ZM181.597 248.239c0 .947-.729 1.723-1.656 1.798l-.149.006h-11.194v-1.635h11.194a.17.17 0 0 0 .161-.116l.01-.053v-4.28a.17.17 0 0 0-.117-.162l-.054-.009h-11.194v-1.635h11.194c.948 0 1.724.73 1.8 1.658l.005.148v4.28Z" fill="#999" fill-rule="nonzero"/><path d="M153.136 249.144v-6.097c0-.707-.572-1.279-1.278-1.279h-9.264c-.707 0-1.279.572-1.279 1.279v6.097c0 .706.572 1.278 1.279 1.278h9.264c.706 0 1.278-.572 1.278-1.278m-1.308-.03-9.204.03-.03-6.067 9.234-.03v6.068" fill="#9F9FA0"/><path d="M169.822 250.639v-9.135c0-.97-.787-1.756-1.755-1.756h-14.548c-.97 0-1.756.785-1.756 1.756v9.135c0 .97.786 1.755 1.756 1.755h14.548c.968 0 1.755-.786 1.755-1.755m-1.635 0a.12.12 0 0 1-.12.12h-14.548a.12.12 0 0 1-.12-.12v-9.135a.12.12 0 0 1 .12-.121h14.548a.12.12 0 0 1 .12.12v9.136" fill="#9F9FA0"/><path d="M145.117 249.71a.562.562 0 0 1-.563-.563v-1.89a.562.562 0 1 1 1.125 0v1.89c0 .312-.25.563-.562.563M145.117 245.56a.562.562 0 0 1-.563-.561v-1.891a.562.562 0 1 1 1.125 0v1.891c0 .31-.25.562-.562.562M147.674 249.71a.562.562 0 0 1-.562-.563v-1.89a.562.562 0 1 1 1.125 0v1.89a.562.562 0 0 1-.563.563M147.674 245.56a.562.562 0 0 1-.562-.561v-1.891a.562.562 0 1 1 1.125 0v1.891c0 .31-.252.562-.563.562M150.231 249.855a.561.561 0 0 1-.562-.564v-1.89a.561.561 0 1 1 1.124 0v1.89c0 .312-.25.564-.562.564M150.231 245.478a.561.561 0 0 1-.562-.564v-1.89a.561.561 0 1 1 1.124 0v1.89c0 .312-.25.564-.562.564" fill="#999" fill-rule="nonzero"/><path fill="#9F9FA0" fill-rule="nonzero" d="M79 148v34.69l-5.964.212-.072-1.998 4.035-.145V150h-20v30.904H61v2h-6V148z"/><path d="M67 165c-3.842 0-7 2.807-7 6.333v8.334c0 3.526 3.158 6.333 7 6.333s7-2.807 7-6.333v-8.334c0-3.526-3.158-6.333-7-6.333Zm0 2c2.786 0 5 1.968 5 4.333v8.334c0 2.365-2.214 4.333-5 4.333s-5-1.968-5-4.333v-8.334c0-2.365 2.214-4.333 5-4.333Z" fill="#9F9FA0" fill-rule="nonzero"/><path fill="#999" fill-rule="nonzero" d="M70.782 158.827h1.388v-3.65h-1.388zM62.455 158.827h1.388v-3.65h-1.388z"/><path d="M174.003 95.178C174.174 86.215 181.495 79 190.5 79 199.612 79 207 86.388 207 95.499c0 9.113-7.388 16.501-16.501 16.501-9.004 0-16.325-7.215-16.496-16.18l-.003-.321.003-.32Zm1.997.32c0 8.01 6.492 14.502 14.499 14.502 8.009 0 14.501-6.492 14.501-14.501C205 87.492 198.508 81 190.499 81 182.492 81 176 87.492 176 95.499ZM174.003 252.178c.171-8.963 7.492-16.178 16.496-16.178 9.113 0 16.501 7.388 16.501 16.499 0 9.113-7.388 16.501-16.501 16.501-9.004 0-16.325-7.215-16.496-16.18l-.003-.321.003-.32Zm1.997.32c0 8.01 6.492 14.502 14.499 14.502 8.009 0 14.501-6.492 14.501-14.501 0-8.007-6.492-14.499-14.501-14.499-8.007 0-14.499 6.492-14.499 14.499Z" fill-opacity=".9" fill="#F84343" fill-rule="nonzero"/><g fill="#999"><g transform="translate(91 65.122)"><text font-family="PingFangSC-Semibold, PingFang SC" font-size="11.429" font-weight="500">
                    <tspan x="1.446" y="12">RESET</tspan>
                </text><ellipse fill-opacity=".5" cx="21.429" cy="24.529" rx="4.286" ry="4.35"/></g><path d="M111 45c18.778 0 34 15.222 34 34 0 .912-.036 1.816-.106 2.71L160.5 91l-18.27 1.463C137.015 104.544 124.995 113 111 113c-18.778 0-34-15.222-34-34s15.222-34 34-34Zm0 2c-17.673 0-32 14.327-32 32 0 17.673 14.327 32 32 32 12.745 0 24.108-7.519 29.218-18.93l.176-.4.477-1.105 13.211-1.058-11.28-6.714.098-1.24c.066-.846.1-1.697.1-2.553 0-17.673-14.327-32-32-32Z" fill-rule="nonzero" opacity=".6"/></g></g></svg>