<svg width="300" height="300" xmlns="http://www.w3.org/2000/svg"><defs><filter x="-112.5%" y="-51.4%" width="325%" height="202.9%" filterUnits="objectBoundingBox" id="a"><feGaussianBlur stdDeviation="6" in="SourceGraphic"/></filter></defs><g fill="none" fill-rule="evenodd"><g transform="translate(99 10)"><path d="m47.8 0 2.971.123.464 2.84c7.493 46.178 11.24 98.254 11.24 123.772 0 5.647-.236 9.665-.78 14.364l-.205 1.678-.898 6.99-.21 1.81-.152 1.405-.097.951c-.891 8.936-1.356 19.53-1.4 35.746l-.004 2.598.008 3.263.018 2.499c.159 16.917 1.035 27.752 2.514 35.527l.145.74.193.899c.603 2.742 1.653 6.937 1.722 7.26.458 2.145.671 4.054.671 6.438v24.881c0 4.049-3.24 6.435-9.069 7.216l-1.726-1.509h-42.41L9.07 281c-5.71-.765-8.936-3.07-9.065-6.97L0 273.784v-24.88c0-2.155.151-3.917.476-5.822l.121-.671 1.057-5.057c.205-1.005.4-1.99.544-2.779l.11-.62.174-1.07.176-1.164.17-1.23c1.006-7.52 1.602-17.667 1.722-32.455l.015-2.494.007-3.265-.003-2.614-.013-3.396c-.082-14.909-.484-24.84-1.21-33.364l-.122-1.385-.211-2.21-.537-5.13-.324-3.172-.118-1.316-.111-1.367c-.26-3.395-.384-6.666-.398-10.797v-1.575C1.605 101.24 5.441 50.78 13.03 7.03l.715-4.087.504-2.84L17.228 0l3.901 15.593h2.24V.37h4.064v15.224h3.048V.37h4.064v15.224h3.048V.37h4.064v15.224h2.239L47.799 0ZM9.39 68.414l.181-3.115-.126.943c-3.192 23.883-4.815 43.767-4.871 59.646v1.663c.016 4.807.185 8.411.548 12.457l.066.719.136 1.394.808 7.762.133 1.422c.793 8.755 1.236 18.808 1.334 34.104l.016 3.439.005 3.43-.007 3.335-.016 2.484c-.133 16.28-.842 27.031-2.047 34.893l-.059.378-.178 1.095-.171.956-.191.995a282.126 282.126 0 0 1-.667 3.284l-.692 3.28-.11.61a29.559 29.559 0 0 0-.43 4.732l-.004.583v24.881c0 1.783 1.291 3.057 4.23 3.79l.3.072.17.037v-31.212c-.053-4.39.627-8.146 2.152-13.283l.195-.65 1.343-4.383.28-.948c.718-2.453.918-3.481.968-4.693l.014-.622v-73.334l-.004-.58c-.05-3.09-.506-6.307-1.604-11.821l-.326-1.613-1.137-5.493-.505-2.538-.2-1.052c-.863-4.598-1.191-7.419-1.182-10.303l.005-.565.035-1.848.078-3.809.086-3.763c.304-12.47.755-24.177 1.354-35.123l.09-1.636Zm45.1-5.835.209 4.075.152 3.147c.62 13.201 1.076 27.513 1.367 42.936l.035 1.856c.078 4.355-.467 7.987-2.158 15.872l-.702 3.242c-1.433 6.64-2.056 10.595-2.092 14.496l.001 73.895.011.405.013.253c.077 1.258.372 2.45 1.447 5.997l1.132 3.706c1.656 5.493 2.402 9.436 2.348 14.012v31.212l.17-.037c3.15-.721 4.529-2.02 4.529-3.862v-24.88c0-1.969-.156-3.55-.496-5.28l-.142-.668-1.012-4.177-.463-1.987a87.584 87.584 0 0 1-.45-2.071l-.183-.947-.136-.754c-1.55-8.775-2.389-21.137-2.389-40.743l.004-2.589.016-3.414.021-2.541c.147-14.402.689-24.057 1.632-32.51l.256-2.183.896-6.954.16-1.332c.479-4.127.713-7.7.755-12.399l.007-1.62-.006-1.695-.016-1.725c-.193-15.375-1.668-34.308-4.425-56.793l-.491-3.943Zm-4.938-43.942H15.058l-.23 2.273c-1.969 19.825-3.262 59.403-3.88 86.25l-.07 3.172-.083 4.316-.005.495c-.01 3.22.45 6.472 1.716 12.76l.307 1.505.735 3.532.423 2.068.221 1.111c1.064 5.406 1.507 8.65 1.553 11.88l.004.559-.002 73.447-.005.369c-.037 1.74-.257 2.887-1.307 6.4l-.338 1.12-.894 2.904c-1.65 5.334-2.403 8.994-2.41 13.17l.002.485v29.992h42.41v-29.992c.05-4.225-.647-7.904-2.223-13.13l-1.425-4.679-.302-1.022-.277-.977c-.635-2.298-.719-3.171-.726-4.73v-73.357c0-4.17.604-8.205 2.03-14.878l.926-4.29.527-2.52.213-1.065c.987-5 1.315-7.899 1.257-11.157l-.083-4.37-.095-4.42-.112-4.692c-.642-25.35-1.763-63.688-3.363-82.529ZM16.208 8.482a496.245 496.245 0 0 0-.826 7.112h2.605l-1.78-7.112Zm32.463.588-1.633 6.523h2.249a642.829 642.829 0 0 0-.458-4.919L48.67 9.07Z" fill-opacity=".7" fill="#999" fill-rule="nonzero"/><path d="M36.07 91.692h-8.13a4.564 4.564 0 0 0-4.563 4.564v8.112a4.564 4.564 0 0 0 4.564 4.564h8.128a4.564 4.564 0 0 0 4.564-4.564v-8.112a4.564 4.564 0 0 0-4.564-4.564Zm-8.13 1h8.13a3.564 3.564 0 0 1 3.563 3.564v8.112a3.564 3.564 0 0 1-3.564 3.564h-8.128a3.564 3.564 0 0 1-3.564-3.564v-8.112a3.564 3.564 0 0 1 3.564-3.564Z" fill-opacity=".7" fill="#999" fill-rule="nonzero"/><path d="M23.987 88.46c.312 0 .58-.09.804-.269.24-.19.39-.454.455-.795h-.463c-.057.219-.154.385-.293.495a.83.83 0 0 1-.508.15c-.317 0-.552-.101-.703-.296-.138-.183-.207-.447-.207-.788 0-.333.07-.593.211-.78.155-.21.382-.312.687-.312.203 0 .37.04.5.13.134.09.224.227.272.418h.464a1.07 1.07 0 0 0-.382-.698c-.22-.179-.504-.268-.846-.268-.463 0-.817.15-1.06.459-.216.268-.321.62-.321 1.051 0 .439.101.788.308 1.048.236.3.598.454 1.082.454Zm2.995 0c.443 0 .792-.143 1.048-.427.244-.272.366-.63.366-1.076 0-.446-.122-.808-.366-1.08-.256-.288-.605-.43-1.048-.43-.447 0-.797.142-1.049.434-.244.276-.361.634-.361 1.076 0 .439.117.796.361 1.072.252.284.602.43 1.049.43Zm0-.419c-.301 0-.537-.101-.7-.3-.158-.195-.235-.455-.235-.784 0-.333.077-.593.236-.787.166-.203.398-.305.699-.305.3 0 .532.093.695.288.158.195.24.463.24.804s-.082.605-.24.796c-.163.19-.394.288-.695.288Zm2.337.362v-2.12h.016l1.45 2.12h.464v-2.9h-.48v2.092h-.016l-1.434-2.091h-.476v2.899h.476Zm2.975 0v-2.12h.016l1.45 2.12h.464v-2.9h-.48v2.092h-.016l-1.434-2.091h-.476v2.899h.476Zm4.661 0v-.406H35.27v-.877h1.52v-.406h-1.52v-.804h1.617v-.406h-2.093v2.899h2.162Zm1.715.056c.313 0 .581-.089.805-.268.24-.19.39-.454.455-.795h-.463c-.057.219-.155.385-.293.495a.83.83 0 0 1-.508.15c-.317 0-.553-.101-.703-.296-.138-.183-.207-.447-.207-.788 0-.333.069-.593.211-.78.155-.21.382-.312.687-.312.203 0 .37.04.5.13.134.09.223.227.272.418h.463a1.07 1.07 0 0 0-.382-.698c-.219-.179-.504-.268-.845-.268-.463 0-.817.15-1.06.459-.216.268-.322.62-.322 1.051 0 .439.102.788.31 1.048.235.3.597.454 1.08.454Zm2.91-.056V85.91h.951v-.406h-2.377v.406h.95v2.493h.476ZM29.07 231.042l.57-2.18h.016l.565 2.18h.504l.837-2.899h-.536l-.545 2.205h-.016l-.573-2.205H29.4l-.573 2.205h-.016l-.545-2.205h-.536l.833 2.9h.508Zm3.02 0 .265-.726h1.215l.264.726h.508l-1.11-2.899h-.54l-1.11 2.9h.508Zm1.337-1.116h-.93l.46-1.271h.015l.455 1.27Zm1.675 1.116v-2.119h.016l1.451 2.12h.463v-2.9h-.48v2.091h-.015l-1.435-2.09h-.476v2.898h.476ZM30.768 117.634v-.406h-1.57v-2.493h-.47v2.9h2.04Zm.589 0 .264-.727h1.215l.264.727h.508l-1.11-2.899h-.54l-1.11 2.9h.509Zm1.337-1.116h-.93l.458-1.271h.017l.455 1.27Zm1.674 1.116v-2.12h.017l1.45 2.12h.464v-2.899h-.48v2.091h-.016l-1.435-2.09h-.475v2.898h.475ZM26.218 258.447v-1.112h.72c.706 0 1.06-.3 1.06-.898 0-.592-.354-.889-1.053-.889h-1.203v2.899h.476Zm.69-1.518h-.69v-.975h.69c.208 0 .362.037.46.114.097.073.15.195.15.37 0 .174-.049.3-.146.377-.098.073-.252.114-.463.114Zm2.785 1.575c.443 0 .792-.142 1.048-.427.244-.272.366-.629.366-1.075 0-.447-.122-.808-.366-1.08-.256-.289-.605-.43-1.048-.43-.447 0-.797.141-1.049.434-.244.276-.362.633-.362 1.076 0 .438.118.795.362 1.071.252.285.602.43 1.049.43Zm0-.418c-.301 0-.537-.102-.7-.3-.158-.196-.235-.456-.235-.784 0-.333.077-.593.236-.788.166-.203.398-.305.699-.305.3 0 .532.094.695.289.158.195.24.463.24.804 0 .34-.082.605-.24.795-.163.191-.395.289-.695.289Zm2.938.36.569-2.18h.016l.565 2.18h.504l.837-2.898h-.536l-.545 2.205h-.016l-.573-2.205h-.492l-.573 2.205h-.016l-.545-2.205h-.536l.833 2.899h.508Zm4.958 0v-.405h-1.686v-.877h1.52v-.406h-1.52v-.804h1.617v-.406h-2.093v2.899h2.162Zm.923 0v-1.18h.752c.162 0 .288.032.373.105.082.07.13.183.147.341l.036.357a.728.728 0 0 0 .126.378h.517a.704.704 0 0 1-.175-.426l-.049-.467c-.033-.284-.175-.45-.427-.508v-.008a.63.63 0 0 0 .37-.256.69.69 0 0 0 .122-.402c0-.276-.093-.487-.272-.633-.171-.134-.407-.199-.703-.199h-1.293v2.899h.476Zm.752-1.587h-.752v-.905h.752c.195 0 .337.033.426.106.09.069.134.182.134.34 0 .147-.044.26-.134.342-.097.077-.24.117-.426.117ZM26.167 69.118v-1.182h.752c.162 0 .288.033.374.106.081.069.13.183.146.34l.037.358a.728.728 0 0 0 .126.378h.516a.704.704 0 0 1-.175-.427l-.049-.466c-.032-.285-.175-.451-.427-.508v-.008a.63.63 0 0 0 .37-.256.69.69 0 0 0 .122-.402c0-.276-.093-.487-.272-.633-.17-.134-.407-.199-.703-.199H25.69v2.899h.476Zm.752-1.588h-.752v-.905h.752c.195 0 .337.032.427.106.089.069.134.182.134.34 0 .147-.045.26-.134.342-.098.077-.24.117-.427.117Zm3.767 1.588v-.406H29v-.877h1.52v-.406H29v-.804h1.617v-.406h-2.093v2.899h2.162Zm1.52.057c.37 0 .659-.078.862-.224a.728.728 0 0 0 .305-.617c0-.268-.126-.475-.378-.625-.114-.065-.366-.162-.76-.284a4.086 4.086 0 0 1-.496-.179c-.138-.073-.203-.174-.203-.296 0-.138.057-.24.178-.3.098-.053.236-.078.42-.078.21 0 .373.037.479.118.105.077.183.207.223.386h.472c-.029-.317-.147-.553-.35-.703-.19-.142-.46-.21-.8-.21-.313 0-.57.068-.773.21a.687.687 0 0 0-.325.605c0 .256.11.45.333.585.086.049.31.13.667.243.321.098.508.163.565.191.179.09.272.211.272.366 0 .121-.065.215-.187.288-.122.069-.292.105-.504.105-.24 0-.414-.044-.528-.125-.126-.094-.203-.252-.236-.471h-.471c.02.37.154.637.398.808.2.138.48.207.837.207Zm3.735-.057v-.406h-1.686v-.877h1.52v-.406h-1.52v-.804h1.617v-.406H33.78v2.899h2.162Zm1.65 0v-2.493h.951v-.406h-2.377v.406h.95v2.493h.476Z" fill="#999" fill-rule="nonzero"/><ellipse fill-opacity=".5" fill="#999" cx="32.513" cy="73.415" rx="1.524" ry="1.522"/><ellipse fill-opacity=".5" fill="#999" cx="29.973" cy="247.011" rx="5.08" ry="5.075"/><path d="M32.513 186.217v1.84H35.3v3.68l1.858.001v.92h1.858v5.522h-1.857l-.001.92H35.3l-.001 3.681h-2.786v1.84h-4.646v-1.84H26.01v-14.724h1.859v-1.84h4.644Zm-.433 13.505h-4.336v.956h4.336v-.956Zm0-1.913h-4.336v.956h4.336v-.956Zm0-1.912h-4.336v.956h4.336v-.956Zm0-1.912h-4.336v.956h4.336v-.956Zm0-1.912h-4.336v.956h4.336v-.956Zm0-1.913h-4.336v.957h4.336v-.957ZM32.513 164.563v1.84H35.3v3.681l1.858.001v.92h1.858v5.522h-1.857l-.001.92H35.3l-.001 3.681h-2.786v1.84h-4.646v-1.84H26.01v-14.724h1.859v-1.84h4.644Zm-.433 13.505h-4.336v.957h4.336v-.957Zm0-1.912h-4.336v.956h4.336v-.956Zm0-1.912h-4.336v.956h4.336v-.956Zm0-1.912h-4.336v.956h4.336v-.956Zm0-1.912h-4.336v.956h4.336v-.956Zm0-1.913h-4.336v.956h4.336v-.956ZM32.513 142.91v1.84H35.3v3.681h1.858v.92l1.858.001v5.522h-1.857l-.001.92H35.3l-.001 3.681h-2.786v1.84h-4.646v-1.84H26.01v-14.724h1.859v-1.84h4.644Zm-.433 13.505h-4.336v.957h4.336v-.957Zm0-1.912h-4.336v.956h4.336v-.956Zm0-1.912h-4.336v.956h4.336v-.956Zm0-1.912h-4.336v.956h4.336v-.956Zm0-1.912h-4.336v.956h4.336v-.956Zm0-1.913h-4.336v.956h4.336v-.956ZM32.513 121.257v1.84H35.3v3.681h1.858v.92l1.858.001v5.522h-1.857l-.001.92H35.3l-.001 3.68h-2.786v1.841h-4.646v-1.84H26.01v-14.724h1.859v-1.84h4.644Zm-.433 13.505h-4.336v.956h4.336v-.956Zm0-1.912h-4.336v.956h4.336v-.956Zm0-1.912h-4.336v.956h4.336v-.956Zm0-1.912h-4.336v.956h4.336v-.956Zm0-1.913h-4.336v.957h4.336v-.957Zm0-1.912h-4.336v.956h4.336v-.956Z" fill-opacity=".5" fill="#999"/><path d="M32.513 206.787v1.84H35.3v3.68l1.858.001v.92h1.858v5.522h-1.857l-.001.92H35.3l-.001 3.682-2.786-.001v1.841h-4.646v-1.841H26.01v-14.724h1.859v-1.84h4.644Zm-.433 13.505h-4.336v.956h4.336v-.956Zm0-1.912h-4.336v.956h4.336v-.956Zm0-1.912h-4.336v.956h4.336v-.956Zm0-1.913h-4.336v.956h4.336v-.956Zm0-1.912h-4.336v.956h4.336v-.956Zm0-1.912h-4.336v.956h4.336v-.956Z" fill-opacity=".5" fill="#FF5B5B"/><path fill="#999" fill-rule="nonzero" d="M23.369 206.243v1.015l-2.033-.001v21.484h4.573v1.016H20.32v-23.514zM43.69 206.243v23.514h-5.08v-1.015l4.063-.001v-21.484h-2.032v-1.014zM23.369 204.213v-1.015h-2.033v-86.341h4.573v-1.016H20.32v88.372zM43.69 204.213V115.84h-5.08v1.015l4.063.001v86.342l-2.032-.001v1.015z"/></g><path d="M106.003 109.585C106.224 95.97 117.332 85 130.998 85 144.806 85 156 96.193 156 109.998 156 123.806 144.806 135 130.998 135c-13.667 0-24.774-10.972-24.995-24.588l-.003-.414.003-.413Zm1.997.413C108 122.702 118.298 133 130.998 133 143.702 133 154 122.702 154 109.998 154 97.298 143.702 87 130.998 87 118.298 87 108 97.298 108 109.998Z" fill-opacity=".9" fill="#F84343" fill-rule="nonzero"/><g transform="translate(174 43)"><path d="M1.25 32.877c-5.67 23.137 8.489 46.49 31.627 52.163l.709.167a43.124 43.124 0 0 0 11.423 1.042l.632-.033-.015.442a45.193 45.193 0 0 1-.586 5.546l-.67 3.893 3.66-1.827.29-.156.342-.194.388-.23.43-.268.472-.306a28.86 28.86 0 0 0 4.343-3.517l.39-.394c1.674-1.722 3.072-3.622 4.11-5.708l.09-.192.168-.064c12.864-5.112 22.62-16.09 25.987-29.829C90.711 30.275 76.551 6.921 53.413 1.25 30.275-4.421 6.921 9.739 1.25 32.877ZM52.937 3.193c22.065 5.408 35.569 27.68 30.16 49.743-3.376 13.773-13.322 24.21-25.686 28.793-1.217 2.821-3.087 5.096-4.906 6.819l-.454.419c-.15.136-.3.268-.449.396l-.442.373-.433.35-.212.166-.414.315-.201.149-.39.28-.371.257-.515.342-.459.29-.393.237-.62.349-.141.073c.456-2.645.73-5.962.627-8.5a41.06 41.06 0 0 1-14.285-.946c-22.065-5.41-35.569-27.68-30.16-49.745C8.6 11.288 30.873-2.216 52.937 3.193Z" fill-opacity=".5" fill="#999" fill-rule="nonzero"/><path d="m36.402 2.556-.02 1.063-.015.646-.015.649-.072 2.618-.086 2.658c-.036 1.032-.165 2.136-.38 3.365l-.098.534-.116.587-.127.605-.142.642-.162.7-.682 2.866-.255 1.113-.151.712-.087.45-.067.394-.05.35-.033.32-.015.202-.015.4-.002 43.898.017.016.022.005.324-.02.322-.018 2.481-.156 2.322-.158 1.636-.12 1.546-.12 1.922-.164 1.336-.124 1.245-.126 1.156-.126 1.065-.128.975-.13.6-.086.976-.153c.46-.074.914-.149 1.363-.225l.67-.114 1.318-.234 1.285-.24 1.252-.246 1.216-.251c.749-.158 1.475-.319 2.179-.482l.695-.163 1.079-.264 1.036-.267c.811-.215 1.58-.432 2.302-.65l.533-.163.733-.235c.237-.078.466-.156.687-.233l.325-.115.613-.228a17.804 17.804 0 0 0 1.732-.756 5.54 5.54 0 0 0 .832-.506l.087-.071.028-.024c.015-.012.025-.018.031-.016l.008.01.003.023-.013-1.97-.008-3.131.008-1.822.016-1.402v-.107l-.002-.11-.016-.466-.006-.124-.007-.127-.036-.539-.051-.592-.065-.648-.08-.708-.38-3.116-.1-.912-.04-.505-.01-.272-.014-3.223-.023-2.25-.045-2.904-.11-5.542-.11-5.84-.035-2.837-.007-2.366.01-1.42.024-1.368.029-1.143.035-1.05.039-.749.024-.352c.575.522 1.134 1.06 1.676 1.612l-.029.893-.018.753-.015.75-.018 1.532-.003.803v.757l.017 2.314.047 3.163.22 11.33.043 3.487.012 1.849.003 1.647.004.175.019.328.064.66.434 3.593.083.741.068.68.053.625.011.148.01.145.031.55.006.13.004.127.008.485-.006.527-.015 1.73v2.92l.02 3.226c0 .498-.425 1.02-1.22 1.555l-.19.124-.305.183-.162.092-.17.091-.36.184-.189.093-.4.184-.425.186-.452.185-.117.046-.118.046-.49.186-.513.185-.538.185-.562.184-.585.184-.608.183-.63.183-.652.182-1.018.27-.704.18-1.095.266-.754.175-1.167.26-.801.172-1.235.254-1.274.249-.87.163-1.334.24-1.37.235-.93.153-.946.15-.591.088-.63.089-1.02.13-1.11.13-1.2.128-.85.084-1.818.168-1.469.123-2.098.163-1.678.12-2.378.159-2.538.155a1.804 1.804 0 0 1-1.836-1.292l-.842-.094a.525.525 0 0 1-.86-.095l-1.08-.12a.527.527 0 0 1-.42.388l-.094.008a.526.526 0 0 1-.515-.435l-.008-.095v-.281c-.517.218-.87.454-1.065.688l-.064.085c-.464.693-1.52.401-1.6-.389l-.005-.11.532-42.297-.004-.51-.013-.503-.022-.504-.03-.51-.042-.526-.051-.55-.063-.579-.074-.617-.185-1.38-.422-2.92-.152-1.13-.089-.735-.068-.661-.036-.411-.04-.589-.026-.574-.01-.386-.003-.396-.015-5.23c.578-.29 1.164-.566 1.755-.828v1.012l.006 2.977.008 2.06.008.555.012.362.017.347.022.354.046.556.04.394.073.643.126.979.119.85.37 2.546.146 1.084.12.974.064.6.053.571.042.55.032.534.023.53.007.264.009.536.001.272-.511 40.52.16-.075c.163-.072.336-.141.516-.207l.278-.096.016-.005.327-60.56c.35-.132.7-.26 1.054-.382l-.33 61.4a.886.886 0 0 1-.003.764l-.002.01.996.11v-8.768a.526.526 0 0 1 1.045-.094l.008.094v8.885l.65.072V23.517c.001-.096.003-.19.006-.282l.01-.275.015-.22.03-.328.046-.35.085-.523.119-.613.157-.731.347-1.499.086-15.413c.35-.09.7-.175 1.053-.255l-.061 10.946.042-.212c.227-1.194.371-2.253.43-3.223l.019-.41.022-.666.022-.663.079-2.627.017-.65.017-.649.044-1.985a40.92 40.92 0 0 1 1.76-.333Zm22.944 2.772-.017.409c-.019.388-.044.775-.077 1.176l-.08.872-.26 2.515-.065.682-.088 1.044-.052.715-.069 1.111-.04.773-.034.802-.043 1.27-.022.897-.024 1.429-.01 1.015-.006 1.627V51.85a.877.877 0 0 1-1.748.11l-.006-.11V21.102l.01-1.603.02-1.485.02-.93.04-1.318.052-1.236.062-1.168.049-.748.081-1.085.093-1.054.32-3.114c.09-.963.142-1.8.16-2.725.584.216 1.163.448 1.734.692ZM31.854 3.583l-.219 22.256a.526.526 0 0 1-.436.513l-.095.008a.526.526 0 0 1-.514-.437l-.007-.095.216-21.928c.35-.11.702-.216 1.055-.317Z" fill="#999"/><path d="M31 27.545a.57.57 0 0 1 .559.483l.007.093-.229 26.929a.57.57 0 0 1-1.134.083l-.007-.093.229-26.93a.57.57 0 0 1 .575-.565Z" fill="#2A75FF" fill-rule="nonzero"/><ellipse fill="#367DFF" opacity=".5" filter="url(#a)" cx="30.764" cy="41.158" rx="8" ry="17.5"/></g></g></svg>