<svg width="300" height="300" xmlns="http://www.w3.org/2000/svg" xmlns:xlink="http://www.w3.org/1999/xlink"><defs><filter x="-438.2%" y="-21.4%" width="976.4%" height="142.8%" filterUnits="objectBoundingBox" id="a"><feOffset in="SourceAlpha" result="shadowOffsetOuter1"/><feGaussianBlur stdDeviation="2" in="shadowOffsetOuter1" result="shadowBlurOuter1"/><feColorMatrix values="0 0 0 0 1 0 0 0 0 1 0 0 0 0 1 0 0 0 0.975914695 0" in="shadowBlurOuter1"/></filter><filter x="-112.5%" y="-51.4%" width="325%" height="202.9%" filterUnits="objectBoundingBox" id="c"><feGaussianBlur stdDeviation="6" in="SourceGraphic"/></filter><path d="M31 27.545a.57.57 0 0 1 .559.483l.007.093-.229 26.929a.57.57 0 0 1-1.134.083l-.007-.093.229-26.93a.57.57 0 0 1 .575-.565Z" id="b"/></defs><g fill="none" fill-rule="evenodd"><g transform="translate(213 18.596)"><path d="m44.104 0 2.743.114.428 2.623c6.914 42.652 10.372 75.753 10.372 99.323 0 5.215-.218 8.927-.721 13.267l-.188 1.55-.83 6.455-.194 1.673-.14 1.298-.09.878c-.821 8.254-1.25 18.039-1.29 33.017l-.004 2.4.007 3.014.017 2.308c.146 15.626.955 25.633 2.32 32.815l.133.683.178.83c.557 2.533 1.525 6.408 1.59 6.707.422 1.98.618 3.743.618 5.946v22.981c0 3.74-2.989 5.944-8.368 6.665l-1.593-1.393H9.961l-1.593 1.393c-5.27-.706-8.245-2.836-8.364-6.438L0 237.882v-22.98c0-1.991.14-3.618.439-5.377l.112-.62.976-4.671c.188-.929.368-1.839.501-2.567l.101-.572.161-.99.162-1.075.158-1.135c.927-6.947 1.477-16.32 1.588-29.978l.014-2.304.007-3.015-.003-2.415-.012-3.137c-.076-13.77-.447-22.942-1.117-30.816l-.112-1.28-.195-2.04-.496-4.739-.298-2.93-.11-1.215-.102-1.263c-.24-3.136-.354-6.157-.367-9.973v-1.455c.074-22.823 3.613-54.43 10.615-94.842l.66-3.775.465-2.624L15.896 0l3.6 14.403h2.067V.34h3.75v14.062h2.812V.34h3.75v14.062h2.813V.34h3.75v14.062h2.065L44.104 0ZM8.664 48.19l.168-2.876-.118.87C5.77 68.244 4.272 86.61 4.22 101.278v1.535c.016 4.44.171 7.77.506 11.506l.06.664.126 1.288.746 7.17.123 1.313c.732 8.087 1.14 17.372 1.23 31.5l.016 3.176.004 3.168-.006 3.081-.015 2.295c-.123 15.037-.777 24.967-1.889 32.228l-.054.35-.165 1.01-.158.884-.176.92c-.189.966-.41 2.048-.615 3.032l-.639 3.03-.101.563a27.33 27.33 0 0 0-.397 4.371l-.003.54v22.98c0 1.647 1.19 2.823 3.902 3.501l.277.067.156.034v-28.83c-.048-4.055.58-7.523 1.987-12.269l.18-.6 1.239-4.048.26-.875c.66-2.266.845-3.216.891-4.336l.013-.574v-67.736l-.004-.534c-.046-2.856-.466-5.827-1.48-10.92l-.3-1.49-1.05-5.073-.465-2.344-.185-.972c-.796-4.247-1.1-6.853-1.09-9.517l.005-.521.031-1.707.072-3.518.08-3.477c.28-11.517.696-22.33 1.249-32.44l.084-1.512Zm41.614-5.389.193 3.764.14 2.907c.573 12.194.993 25.413 1.262 39.658l.032 1.715c.072 4.022-.43 7.377-1.991 14.66l-.648 2.994c-1.322 6.134-1.897 9.787-1.93 13.39l.001 68.253.01.374.012.234c.071 1.162.344 2.262 1.335 5.539l1.045 3.423c1.527 5.073 2.216 8.716 2.166 12.943v28.829l.157-.034c2.907-.667 4.179-1.866 4.179-3.568v-22.98c0-1.819-.145-3.279-.458-4.876l-.13-.618-.934-3.858-.428-1.836a80.97 80.97 0 0 1-.416-1.913l-.168-.875-.126-.696c-1.43-8.105-2.204-19.523-2.204-37.632l.004-2.391.014-3.154.02-2.347c.135-13.302.635-22.22 1.506-30.029l.236-2.015.827-6.423.148-1.23c.441-3.813.657-7.113.696-11.453l.006-1.496-.005-1.566-.015-1.593c-.178-14.202-1.54-31.689-4.083-52.458l-.453-3.642Zm-4.556-25.586H13.895l-.213 2.099c-1.817 18.311-3.01 39.867-3.58 64.665l-.064 2.93-.077 3.986-.005.458c-.01 2.975.415 5.978 1.583 11.785l.284 1.39.678 3.263.39 1.91.204 1.026c.982 4.994 1.391 7.99 1.433 10.973l.003.516-.001 67.84-.005.341c-.034 1.606-.237 2.667-1.206 5.911l-.312 1.035-.825 2.683c-1.522 4.926-2.217 8.307-2.223 12.165l.002.447v27.702h39.131v-27.702c.047-3.903-.596-7.3-2.05-12.129l-1.316-4.32-.278-.945-.256-.902c-.585-2.123-.663-2.93-.67-4.369v-67.757c0-3.852.558-7.578 1.873-13.742l.855-3.963.486-2.327.197-.984c.91-4.618 1.213-7.295 1.16-10.305l-.077-4.035-.088-4.083-.103-4.334c-.592-23.416-1.627-43.826-3.103-61.228Zm-30.767-9.38a458.813 458.813 0 0 0-.762 6.568h2.404l-1.642-6.568Zm29.954.542-1.506 6.026h2.074a594.35 594.35 0 0 0-.423-4.544l-.145-1.482Z" fill-opacity=".7" fill="#999" fill-rule="nonzero"/><text font-family="PingFangSC-Semibold, PingFang SC" font-size="3.75" font-weight="500" fill="#999">
                <tspan x="26.036" y="198.404">WAN</tspan>
            </text><text font-family="PingFangSC-Semibold, PingFang SC" font-size="3.75" font-weight="500" fill="#999">
                <tspan x="26.713" y="119.654">LAN</tspan>
            </text><text font-family="PingFangSC-Semibold, PingFang SC" font-size="3.75" font-weight="500" fill="#999">
                <tspan x="23.959" y="223.716">POWER</tspan>
            </text><text font-family="PingFangSC-Semibold, PingFang SC" font-size="3.75" font-weight="500" fill="#999">
                <tspan x="23.943" y="66">RESET</tspan>
            </text><circle fill-opacity=".5" fill="#999" cx="30.875" cy="69.406" r="1.406"/><path d="M32 89.5h-6a4.5 4.5 0 0 0-4.5 4.5v6a4.5 4.5 0 0 0 4.5 4.5h6a4.5 4.5 0 0 0 4.5-4.5v-6a4.5 4.5 0 0 0-4.5-4.5Zm-6 1h6a3.5 3.5 0 0 1 3.5 3.5v6a3.5 3.5 0 0 1-3.5 3.5h-6a3.5 3.5 0 0 1-3.5-3.5v-6a3.5 3.5 0 0 1 3.5-3.5Z" fill-opacity=".7" fill="#999" fill-rule="nonzero"/><text font-family="PingFangSC-Semibold, PingFang SC" font-size="4" font-weight="500" fill="#999">
                <tspan x="19.58" y="86">CONNECT</tspan>
            </text><circle fill-opacity=".5" fill="#999" cx="28.125" cy="213.154" r="4.688"/><path d="M30.469 124.091v1.968h3.013l.001 3.938h2.008l.001.984H37.5v5.907h-2.008v.984h-2.009v3.938h-3.014v1.969h-5.023l.001-1.97h-2.01v-15.75h2.01v-1.968h5.022ZM30 138.537h-4.688v1.023H30v-1.023Zm0-2.045h-4.688v1.022H30v-1.022Zm0-2.046h-4.688v1.023H30v-1.023Zm0-2.045h-4.688v1.022H30v-1.022Zm0-2.046h-4.688v1.023H30v-1.023Zm0-2.045h-4.688v1.023H30v-1.023Z" fill-opacity=".5" fill="#999"/><path d="m25.446 147.529.001 1.968h-2.01v15.75h2.01v1.97h5.022v-1.97h3.013l.001-3.937h2.008l.001-.985H37.5v-5.906h-2.008v-.984h-2.009v-3.938h-3.014v-1.968h-5.023Z" fill="#A2A2A2"/><path d="M30.469 170.966v1.968h3.013l.001 3.938h2.008l.001.984H37.5v5.907h-2.008v.984h-2.009v3.938h-3.014v1.969h-5.023l.001-1.97h-2.01v-15.75h2.01v-1.968h5.022ZM30 185.412h-4.688v1.023H30v-1.023Zm0-2.045h-4.688v1.022H30v-1.022Zm0-2.046h-4.688v1.023H30v-1.023Zm0-2.045h-4.688v1.022H30v-1.022Zm0-2.046h-4.688v1.023H30v-1.023Zm0-2.045h-4.688v1.023H30v-1.023Z" fill-opacity=".5" fill="#C97676"/><path stroke="#999" stroke-width=".938" stroke-linecap="square" d="M21.563 170.966h-1.875v25.781h4.218M38.438 170.966h1.874v25.781h-3.75M21.563 168.154h-1.875v-49.688h4.218M38.438 168.154h1.874v-49.688h-3.75"/></g><g transform="translate(27.469 18.596)"><path d="m44.104 0 2.743.114.428 2.623c6.914 42.652 10.372 75.753 10.372 99.323 0 5.215-.218 8.927-.721 13.267l-.188 1.55-.83 6.455-.194 1.673-.14 1.298-.09.878c-.821 8.254-1.25 18.039-1.29 33.017l-.004 2.4.007 3.014.017 2.308c.146 15.626.955 25.633 2.32 32.815l.133.683.178.83c.557 2.533 1.525 6.408 1.59 6.707.422 1.98.618 3.743.618 5.946v1.503h-.022c-.95 0-1.882.075-2.79.22v-1.723c0-1.818-.145-3.278-.458-4.875l-.13-.618-.934-3.858-.428-1.836a80.97 80.97 0 0 1-.416-1.913l-.168-.875-.126-.696c-1.43-8.105-2.204-19.523-2.204-37.632l.004-2.391.014-3.154.02-2.347c.135-13.302.635-22.22 1.506-30.029l.236-2.015.827-6.423.148-1.23c.441-3.813.657-7.113.696-11.453l.006-1.496-.005-1.566-.015-1.593c-.178-14.202-1.54-31.689-4.083-52.458l-.453-3.642.193 3.764.14 2.907c.573 12.194.993 25.413 1.262 39.658l.032 1.715c.072 4.022-.43 7.377-1.991 14.66l-.648 2.994c-1.322 6.134-1.897 9.787-1.93 13.39l.001 68.253.01.374.012.234c.071 1.162.344 2.262 1.335 5.539l1.045 3.423c1.527 5.073 2.216 8.716 2.166 12.943v5.26c-.99.442-1.93.973-2.813 1.583v-6.86c.047-3.903-.596-7.3-2.05-12.129l-1.316-4.32-.278-.945-.256-.902c-.585-2.123-.663-2.93-.67-4.369v-67.757c0-3.852.558-7.578 1.873-13.742l.855-3.963.486-2.327.197-.984c.91-4.618 1.213-7.295 1.16-10.305l-.077-4.035-.088-4.083-.103-4.334c-.592-23.416-1.627-43.826-3.103-61.228H13.895l-.213 2.099c-1.817 18.311-3.01 39.867-3.58 64.665l-.064 2.93-.077 3.986-.005.458c-.01 2.975.415 5.978 1.583 11.785l.284 1.39.678 3.263.39 1.91.204 1.026c.982 4.994 1.391 7.99 1.433 10.973l.003.516-.001 67.84-.005.341c-.034 1.606-.237 2.667-1.206 5.911l-.312 1.035-.825 2.683c-1.522 4.926-2.217 8.307-2.223 12.165l.002.447v27.702h32.792c.39.985.866 1.926 1.42 2.814H9.961l-1.593 1.393c-5.27-.706-8.245-2.836-8.364-6.438L0 237.882v-22.98c0-1.991.14-3.618.439-5.377l.112-.62.976-4.671c.188-.929.368-1.839.501-2.567l.101-.572.161-.99.162-1.075.158-1.135c.927-6.947 1.477-16.32 1.588-29.978l.014-2.304.007-3.015-.003-2.415-.012-3.137c-.076-13.77-.447-22.942-1.117-30.816l-.112-1.28-.195-2.04-.496-4.739-.298-2.93-.11-1.215-.102-1.263c-.24-3.136-.354-6.157-.367-9.973v-1.455c.074-22.823 3.613-54.43 10.615-94.842l.66-3.775.465-2.624L15.896 0l3.6 14.403h2.067V.34h3.75v14.062h2.812V.34h3.75v14.062h2.813V.34h3.75v14.062h2.065L44.104 0ZM8.832 45.314l-.118.87C5.77 68.244 4.272 86.61 4.22 101.278v1.535c.016 4.44.171 7.77.506 11.506l.06.664.126 1.288.746 7.17.123 1.313c.732 8.087 1.14 17.372 1.23 31.5l.016 3.176.004 3.168-.006 3.081-.015 2.295c-.123 15.037-.777 24.967-1.889 32.228l-.054.35-.165 1.01-.158.884-.176.92c-.189.966-.41 2.048-.615 3.032l-.639 3.03-.101.563a27.33 27.33 0 0 0-.397 4.371l-.003.54v22.98c0 1.647 1.19 2.823 3.902 3.501l.277.067.156.034v-28.83c-.048-4.055.58-7.523 1.987-12.269l.18-.6 1.239-4.048.26-.875c.66-2.266.845-3.216.891-4.336l.013-.574v-67.736l-.004-.534c-.046-2.856-.466-5.827-1.48-10.92l-.3-1.49-1.05-5.073-.465-2.344-.185-.972c-.796-4.247-1.1-6.853-1.09-9.517l.005-.521.031-1.707.072-3.518.08-3.477c.28-11.517.696-22.33 1.249-32.44l.084-1.512.167-2.877Zm6.123-37.48a458.813 458.813 0 0 0-.762 6.57l2.404-.001-1.642-6.568Zm29.954.543-1.506 6.026h2.074a594.35 594.35 0 0 0-.423-4.544l-.145-1.482Z" fill-opacity=".7" fill="#999" fill-rule="nonzero"/><text font-family="PingFangSC-Semibold, PingFang SC" font-size="3.75" font-weight="500" fill="#999">
                <tspan x="25.567" y="198.404">WAN</tspan>
            </text><text font-family="PingFangSC-Semibold, PingFang SC" font-size="3.75" font-weight="500" fill="#999">
                <tspan x="26.244" y="119.654">LAN</tspan>
            </text><text font-family="PingFangSC-Semibold, PingFang SC" font-size="3.75" font-weight="500" fill="#999">
                <tspan x="23.49" y="223.716">POWER</tspan>
            </text><text font-family="PingFangSC-Semibold, PingFang SC" font-size="3.75" font-weight="500" fill="#999">
                <tspan x="23.474" y="66">RESET</tspan>
            </text><circle fill-opacity=".5" fill="#999" cx="30.406" cy="69.406" r="1.406"/><path d="M32.531 89.904h-6a4.5 4.5 0 0 0-4.5 4.5v6a4.5 4.5 0 0 0 4.5 4.5h6a4.5 4.5 0 0 0 4.5-4.5v-6a4.5 4.5 0 0 0-4.5-4.5Zm-6 1h6a3.5 3.5 0 0 1 3.5 3.5v6a3.5 3.5 0 0 1-3.5 3.5h-6a3.5 3.5 0 0 1-3.5-3.5v-6a3.5 3.5 0 0 1 3.5-3.5Z" fill-opacity=".7" fill="#999" fill-rule="nonzero"/><text font-family="PingFangSC-Semibold, PingFang SC" font-size="4" font-weight="500" fill="#999">
                <tspan x="20.111" y="86.404">CONNECT</tspan>
            </text><circle fill-opacity=".5" fill="#999" cx="27.656" cy="213.154" r="4.688"/><path d="M30 124.091v1.968h3.013l.001 3.938h2.008l.001.984h2.008v5.907h-2.008v.984h-2.009v3.938H30v1.969h-5.022v-1.97h-2.01v-15.75h2.01v-1.968H30Zm-.469 14.446h-4.687v1.023h4.687v-1.023Zm0-2.045h-4.687v1.022h4.687v-1.022Zm0-2.046h-4.687v1.023h4.687v-1.023Zm0-2.045h-4.687v1.022h4.687v-1.022Zm0-2.046h-4.687v1.023h4.687v-1.023Zm0-2.045h-4.687v1.023h4.687v-1.023Z" fill-opacity=".5" fill="#999"/><path d="M24.978 147.529v1.968h-2.01v15.75h2.01v1.97H30v-1.97h3.013l.001-3.937h2.008l.001-.985h2.008v-5.906h-2.008v-.984h-2.009v-3.938H30v-1.968h-5.022Z" fill="#A2A2A2"/><path d="M30 170.966v1.968h3.013l.001 3.938h2.008l.001.984h2.008v5.907h-2.008v.984h-2.009v3.938H30v1.969h-5.022v-1.97h-2.01v-15.75h2.01v-1.968H30Zm-.469 14.446h-4.687v1.023h4.687v-1.023Zm0-2.045h-4.687v1.022h4.687v-1.022Zm0-2.046h-4.687v1.023h4.687v-1.023Zm0-2.045h-4.687v1.022h4.687v-1.022Zm0-2.046h-4.687v1.023h4.687v-1.023Zm0-2.045h-4.687v1.023h4.687v-1.023Z" fill-opacity=".5" fill="#C97676"/><path stroke="#999" stroke-width=".938" stroke-linecap="square" d="M21.094 170.966h-1.875v25.781h4.218M37.969 170.966h1.875v25.781h-3.75M21.094 168.154h-1.875v-49.688h4.218M37.969 168.154h1.875v-49.688h-3.75"/></g><path d="M95.98 251a23.583 23.583 0 0 0-.492-3.999h3.515c.522 1.246.853 2.592.96 4H95.98Zm-.492 6.003c.268-1.266.44-2.608.492-4.003h3.98a12.834 12.834 0 0 1-.957 4.003h-3.515Zm-.522 2h2.991a13.073 13.073 0 0 1-5.347 4.728c.967-1.286 1.772-2.893 2.356-4.729Zm-6.965 0h4.9c-1.075 3.113-2.847 5.32-4.9 5.87v-5.87ZM88 253h5.98a22.26 22.26 0 0 1-.52 4.003H88V253ZM88 247h5.46c.284 1.246.457 2.592.52 4H88v-4Zm0-7.873c2.053.549 3.825 2.758 4.9 5.87H88v-5.87Zm6.965 5.87c-.584-1.834-1.385-3.445-2.356-4.729a13.087 13.087 0 0 1 5.347 4.729h-2.99Zm-8.967 0h-4.9c1.075-3.112 2.845-5.321 4.9-5.87v5.87ZM86 251h-5.98c.059-1.407.236-2.753.518-3.999H86v4Zm0 6.003h-5.462A22.446 22.446 0 0 1 80.02 253H86v4.003Zm0 7.87c-2.055-.55-3.825-2.757-4.9-5.87H86v5.87Zm-6.963-5.87c.584 1.835 1.387 3.446 2.354 4.728a13.066 13.066 0 0 1-5.349-4.729h2.995ZM78.02 253c.055 1.395.224 2.737.492 4.003h-3.517a13.005 13.005 0 0 1-.957-4.003h3.982Zm.492-5.999a23.79 23.79 0 0 0-.492 4h-3.982c.106-1.408.439-2.754.957-4h3.517Zm.526-2.003h-2.997a13.08 13.08 0 0 1 5.349-4.729c-.965 1.284-1.768 2.895-2.352 4.729ZM101.964 251c-.492-7.49-6.476-13.476-13.963-13.968V237h-2.002v.032c-7.487.492-13.473 6.478-13.965 13.968H72v2h.034c.492 7.49 6.478 13.474 13.965 13.966V267h2.002v-.034c7.487-.492 13.471-6.476 13.963-13.966H102v-2h-.036Z" fill-opacity=".603" fill="#5EB7D3"/><g transform="translate(107 45)"><path d="M1.25 32.877c-5.67 23.137 8.489 46.49 31.627 52.163l.709.167a43.124 43.124 0 0 0 11.423 1.042l.632-.033-.015.442a45.193 45.193 0 0 1-.586 5.546l-.67 3.893 3.66-1.827.29-.156.342-.194.388-.23.43-.268.472-.306a28.86 28.86 0 0 0 4.343-3.517l.39-.394c1.674-1.722 3.072-3.622 4.11-5.708l.09-.192.168-.064c12.864-5.112 22.62-16.09 25.987-29.829C90.711 30.275 76.551 6.921 53.413 1.25 30.275-4.421 6.921 9.739 1.25 32.877ZM52.937 3.193c22.065 5.408 35.569 27.68 30.16 49.743-3.376 13.773-13.322 24.21-25.686 28.793-1.217 2.821-3.087 5.096-4.906 6.819l-.454.419c-.15.136-.3.268-.449.396l-.442.373-.433.35-.212.166-.414.315-.201.149-.39.28-.371.257-.515.342-.459.29-.393.237-.62.349-.141.073c.456-2.645.73-5.962.627-8.5a41.06 41.06 0 0 1-14.285-.946c-22.065-5.41-35.569-27.68-30.16-49.745C8.6 11.288 30.873-2.216 52.937 3.193Z" fill-opacity=".5" fill="#999" fill-rule="nonzero"/><path d="m36.402 2.556-.02 1.063-.015.646-.015.649-.072 2.618-.086 2.658c-.036 1.032-.165 2.136-.38 3.365l-.098.534-.116.587-.127.605-.142.642-.162.7-.682 2.866-.255 1.113-.151.712-.087.45-.067.394-.05.35-.033.32-.015.202-.015.4-.002 43.898.017.016.022.005.324-.02.322-.018 2.481-.156 2.322-.158 1.636-.12 1.546-.12 1.922-.164 1.336-.124 1.245-.126 1.156-.126 1.065-.128.975-.13.6-.086.976-.153c.46-.074.914-.149 1.363-.225l.67-.114 1.318-.234 1.285-.24 1.252-.246 1.216-.251c.749-.158 1.475-.319 2.179-.482l.695-.163 1.079-.264 1.036-.267c.811-.215 1.58-.432 2.302-.65l.533-.163.733-.235c.237-.078.466-.156.687-.233l.325-.115.613-.228a17.804 17.804 0 0 0 1.732-.756 5.54 5.54 0 0 0 .832-.506l.087-.071.028-.024c.015-.012.025-.018.031-.016l.008.01.003.023-.013-1.97-.008-3.131.008-1.822.016-1.402v-.107l-.002-.11-.016-.466-.006-.124-.007-.127-.036-.539-.051-.592-.065-.648-.08-.708-.38-3.116-.1-.912-.04-.505-.01-.272-.014-3.223-.023-2.25-.045-2.904-.11-5.542-.11-5.84-.035-2.837-.007-2.366.01-1.42.024-1.368.029-1.143.035-1.05.039-.749.024-.352c.575.522 1.134 1.06 1.676 1.612l-.029.893-.018.753-.015.75-.018 1.532-.003.803v.757l.017 2.314.047 3.163.22 11.33.043 3.487.012 1.849.003 1.647.004.175.019.328.064.66.434 3.593.083.741.068.68.053.625.011.148.01.145.031.55.006.13.004.127.008.485-.006.527-.015 1.73v2.92l.02 3.226c0 .498-.425 1.02-1.22 1.555l-.19.124-.305.183-.162.092-.17.091-.36.184-.189.093-.4.184-.425.186-.452.185-.117.046-.118.046-.49.186-.513.185-.538.185-.562.184-.585.184-.608.183-.63.183-.652.182-1.018.27-.704.18-1.095.266-.754.175-1.167.26-.801.172-1.235.254-1.274.249-.87.163-1.334.24-1.37.235-.93.153-.946.15-.591.088-.63.089-1.02.13-1.11.13-1.2.128-.85.084-1.818.168-1.469.123-2.098.163-1.678.12-2.378.159-2.538.155a1.804 1.804 0 0 1-1.836-1.292l-.842-.094a.525.525 0 0 1-.86-.095l-1.08-.12a.527.527 0 0 1-.42.388l-.094.008a.526.526 0 0 1-.515-.435l-.008-.095v-.281c-.517.218-.87.454-1.065.688l-.064.085c-.464.693-1.52.401-1.6-.389l-.005-.11.532-42.297-.004-.51-.013-.503-.022-.504-.03-.51-.042-.526-.051-.55-.063-.579-.074-.617-.185-1.38-.422-2.92-.152-1.13-.089-.735-.068-.661-.036-.411-.04-.589-.026-.574-.01-.386-.003-.396-.015-5.23c.578-.29 1.164-.566 1.755-.828v1.012l.006 2.977.008 2.06.008.555.012.362.017.347.022.354.046.556.04.394.073.643.126.979.119.85.37 2.546.146 1.084.12.974.064.6.053.571.042.55.032.534.023.53.007.264.009.536.001.272-.511 40.52.16-.075c.163-.072.336-.141.516-.207l.278-.096.016-.005.327-60.56c.35-.132.7-.26 1.054-.382l-.33 61.4a.886.886 0 0 1-.003.764l-.002.01.996.11v-8.768a.526.526 0 0 1 1.045-.094l.008.094v8.885l.65.072V23.517c.001-.096.003-.19.006-.282l.01-.275.015-.22.03-.328.046-.35.085-.523.119-.613.157-.731.347-1.499.086-15.413c.35-.09.7-.175 1.053-.255l-.061 10.946.042-.212c.227-1.194.371-2.253.43-3.223l.019-.41.022-.666.022-.663.079-2.627.017-.65.017-.649.044-1.985a40.92 40.92 0 0 1 1.76-.333Zm22.944 2.772-.017.409c-.019.388-.044.775-.077 1.176l-.08.872-.26 2.515-.065.682-.088 1.044-.052.715-.069 1.111-.04.773-.034.802-.043 1.27-.022.897-.024 1.429-.01 1.015-.006 1.627V51.85a.877.877 0 0 1-1.748.11l-.006-.11V21.102l.01-1.603.02-1.485.02-.93.04-1.318.052-1.236.062-1.168.049-.748.081-1.085.093-1.054.32-3.114c.09-.963.142-1.8.16-2.725.584.216 1.163.448 1.734.692ZM31.854 3.583l-.219 22.256a.526.526 0 0 1-.436.513l-.095.008a.526.526 0 0 1-.514-.437l-.007-.095.216-21.928c.35-.11.702-.216 1.055-.317Z" fill="#999"/><g fill-rule="nonzero"><use fill="#000" filter="url(#a)" xlink:href="#b"/><use fill="#E0E0E0" xlink:href="#b"/></g><ellipse fill="#FFF" opacity=".5" filter="url(#c)" cx="30.764" cy="41.158" rx="8" ry="17.5"/></g><path fill="#79CDFF" d="M52 170h7v12h-7zM238 170h7v12h-7z"/><path d="M55.5 176v92c0 7.18 5.82 13 13 13h160c7.18 0 13-5.82 13-13v-92h0" stroke="#5BAADA" stroke-width="5" stroke-linecap="round"/></g></svg>