<svg width="300" height="300" xmlns="http://www.w3.org/2000/svg"><g fill="none" fill-rule="evenodd"><g transform="translate(138.998 18.782)"><path d="m55.505 0 5.831.001c4.665 39.02 6.999 76.746 6.999 97.879 0 6.198-.259 10.609-.855 15.767l-.223 1.842-.983 7.672-.23 1.987-.166 1.543-.106 1.044c-.975 9.81-1.483 21.438-1.531 39.238l-.004 2.853.009 3.582.02 2.743c.172 18.57 1.131 30.463 2.748 38.998l.16.813.21.986c.156.713.34 1.515.53 2.33l.128.543.129.542c.533 2.248 1.047 4.322 1.097 4.555.5 2.355.734 4.45.734 7.067v27.312c0 4.444-3.543 7.064-9.92 7.92l-1.888-1.656H11.81l-1.888 1.657c-6.246-.84-9.773-3.37-9.915-7.651l-.004-.27L0 235.83c.347.125.882.205 1.481.205h1.854v23.26c0 1.958 1.413 3.356 4.627 4.162l.327.078.186.041v-27.541h1.216c.984 0 1.795-.216 1.887-.492l.008-.052V224.58c0-.3-.85-.544-1.895-.544H8.76c.351-2.868 1.032-5.791 2.07-9.302l.213-.713 1.469-4.812.307-1.04c.784-2.693 1.003-3.822 1.058-5.152l.015-.682v-80.5l-.004-.636c-.055-3.393-.553-6.924-1.754-12.977l-.357-1.771-1.244-6.029-.552-2.786-.22-1.155c-.943-5.047-1.302-8.144-1.292-11.31l.007-.62.037-2.028.085-4.182.095-4.13c.332-13.688.825-26.54 1.48-38.555l.1-1.796.198-3.42-.14 1.035C6.842 57.692 5.066 79.52 5.005 96.95v1.825c.018 5.277.203 9.234.6 13.674l.072.79.149 1.53.884 8.52.146 1.562c.867 9.61 1.351 20.645 1.458 37.435l.018 3.775.005 3.765-.008 3.662-.017 2.727c-.145 17.871-.921 29.672-2.239 38.301l-.064.416-.195 1.201-.188 1.05-.208 1.093a310.68 310.68 0 0 1-.73 3.604l-.453 2.156H1.481c-.233 0-.456.012-.662.035l.992-4.763c.224-1.104.437-2.185.595-3.051l.12-.68.19-1.176.193-1.277.187-1.35c1.099-8.256 1.75-19.394 1.882-35.627l.017-2.737.007-3.584-.003-2.87-.014-3.728c-.09-16.365-.53-27.266-1.324-36.624l-.133-1.52-.23-2.426-.588-5.63-.354-3.483-.13-1.444-.121-1.501c-.284-3.727-.42-7.317-.435-11.852v-1.73C1.737 76.07 4.256 38.258 9.222.002L14.835 0c-.62 10.26-1.153 22.093-1.6 34.061l-.078 2.117-.105 2.921a3090.222 3090.222 0 0 0-1.076 37.293l-.076 3.482-.091 4.737-.006.544c-.011 3.535.492 7.105 1.877 14.006l.336 1.653.804 3.876.462 2.271.242 1.22c1.164 5.934 1.649 9.494 1.698 13.04l.005.613-.002 80.624-.006.405c-.04 1.91-.28 3.17-1.429 7.025l-.37 1.23-.978 3.188c-1.804 5.855-2.628 9.873-2.636 14.458l.003.532v32.922h46.385v-32.922c.056-4.639-.707-8.677-2.43-14.415l-1.56-5.135-.33-1.122-.303-1.072c-.694-2.523-.786-3.481-.794-5.192v-80.526c0-4.577.661-9.006 2.22-16.331l1.014-4.71.575-2.766.234-1.169c1.08-5.488 1.438-8.67 1.375-12.247l-.092-4.796L58 74.964l-.123-5.152a4888.36 4888.36 0 0 0-.964-34.016l-.068-2.072-.106-3.181C56.38 19.938 55.97 9.38 55.505 0ZM59.6 27.455l.228 4.473.167 3.454c.678 14.492 1.177 30.202 1.495 47.132l.038 2.037c.085 4.781-.51 8.768-2.36 17.423l-.768 3.559c-1.567 7.289-2.249 11.63-2.288 15.912l.002 81.115.011.445.014.278c.085 1.38.408 2.688 1.583 6.583l1.239 4.068c1.81 6.03 2.627 10.358 2.567 15.382v34.261l.186-.04c3.446-.792 4.954-2.218 4.954-4.24v-27.312c0-2.16-.171-3.895-.543-5.794l-.155-.734-1.106-4.586-.507-2.18a96.443 96.443 0 0 1-.493-2.274l-.199-1.04-.15-.828c-1.695-9.632-2.612-23.202-2.612-44.723l.004-2.842.017-3.748.024-2.79c.16-15.808.753-26.407 1.785-35.687l.28-2.395.98-7.633.175-1.462c.523-4.53.78-8.453.825-13.611l.008-1.778-.006-1.86-.018-1.895c-.212-16.877-1.825-37.66-4.84-62.342l-.537-4.328Z" fill-opacity=".7" fill="#999" fill-rule="nonzero"/><path d="M39.452 59.461h-8.89a4.945 4.945 0 0 0-4.945 4.945v8.937a4.945 4.945 0 0 0 4.945 4.945h8.89a4.945 4.945 0 0 0 4.946-4.945v-8.937a4.945 4.945 0 0 0-4.946-4.945Zm-8.89 1h8.89a3.945 3.945 0 0 1 3.946 3.945v8.937a3.945 3.945 0 0 1-3.946 3.945h-8.89a3.945 3.945 0 0 1-3.945-3.945v-8.937a3.945 3.945 0 0 1 3.945-3.945Z" fill-opacity=".7" fill="#999" fill-rule="nonzero"/><path d="M26.237 55.864c.342 0 .636-.098.88-.294.262-.21.427-.5.498-.874h-.507c-.062.241-.169.424-.32.544a.905.905 0 0 1-.555.165c-.347 0-.605-.112-.77-.325-.15-.201-.226-.49-.226-.865 0-.365.075-.65.23-.856.17-.231.419-.343.752-.343.222 0 .405.045.547.143.147.098.244.25.298.459h.507a1.175 1.175 0 0 0-.418-.767c-.24-.196-.552-.294-.925-.294-.507 0-.893.165-1.16.504-.236.294-.351.682-.351 1.154 0 .481.11.865.338 1.15.257.33.653.499 1.182.499Zm3.276 0c.485 0 .867-.156 1.147-.468.267-.299.4-.69.4-1.181 0-.49-.133-.887-.4-1.185-.28-.317-.662-.473-1.147-.473-.489 0-.871.156-1.147.477-.267.303-.395.695-.395 1.181 0 .481.128.873.395 1.177.276.311.658.472 1.147.472Zm0-.46c-.329 0-.587-.11-.765-.329-.173-.214-.257-.499-.257-.86 0-.365.084-.65.257-.865.183-.222.436-.334.765-.334s.582.103.76.317c.174.213.262.508.262.882s-.088.664-.262.873c-.178.21-.431.317-.76.317Zm2.556.398v-2.327h.018l1.587 2.327h.506v-3.183h-.524v2.296h-.018l-1.569-2.296h-.52v3.183h.52Zm3.254 0v-2.327h.018l1.587 2.327h.506v-3.183h-.524v2.296h-.018l-1.57-2.296h-.52v3.183h.52Zm5.098 0v-.446h-1.844v-.963h1.662v-.445h-1.662v-.883h1.769v-.446h-2.29v3.183h2.365Zm1.876.062c.343 0 .636-.098.88-.294.263-.21.427-.5.498-.874h-.506c-.063.241-.17.424-.32.544a.905.905 0 0 1-.556.165c-.347 0-.605-.112-.77-.325-.15-.201-.226-.49-.226-.865 0-.365.076-.65.231-.856.17-.231.418-.343.751-.343.223 0 .405.045.547.143.147.098.245.25.298.459h.507a1.175 1.175 0 0 0-.418-.767c-.24-.196-.551-.294-.925-.294-.506 0-.893.165-1.16.504-.235.294-.351.682-.351 1.154 0 .481.111.865.338 1.15.258.33.653.499 1.182.499Zm3.183-.062v-2.737h1.04v-.446h-2.6v.446h1.04v2.737h.52ZM31.798 212.379l.622-2.394h.018l.618 2.394h.551l.916-3.182h-.587l-.596 2.42h-.017l-.627-2.42h-.538l-.627 2.42h-.018l-.595-2.42h-.587l.911 3.182h.556Zm3.303 0 .289-.798h1.329l.289.798h.555l-1.213-3.182h-.592l-1.213 3.182h.556Zm1.462-1.226h-1.018l.502-1.395h.018l.498 1.395Zm1.831 1.226v-2.327h.018L40 212.38h.507v-3.182h-.525v2.295h-.017l-1.57-2.295h-.52v3.182h.52ZM33.654 87.89v-.446h-1.716v-2.737h-.516v3.182h2.232Zm.644 0 .29-.798h1.328l.29.797h.555l-1.214-3.182h-.59l-1.214 3.182h.555Zm1.463-1.226h-1.018l.502-1.395h.018l.498 1.395Zm1.831 1.225v-2.326h.018l1.587 2.326h.507v-3.182h-.525v2.296h-.018l-1.569-2.296h-.52v3.182h.52ZM28.677 242.461v-1.221h.787c.774 0 1.16-.33 1.16-.985 0-.65-.386-.976-1.151-.976h-1.316v3.182h.52Zm.756-1.667h-.756v-1.07h.756c.227 0 .396.04.502.126.107.08.165.213.165.405 0 .192-.054.33-.16.415-.107.08-.276.124-.507.124Zm3.045 1.73c.484 0 .867-.156 1.147-.468.267-.299.4-.691.4-1.181 0-.49-.133-.887-.4-1.186-.28-.316-.663-.472-1.147-.472-.489 0-.871.156-1.147.477-.267.303-.396.695-.396 1.18 0 .482.13.874.396 1.177.276.312.658.473 1.147.473Zm0-.46c-.329 0-.587-.11-.765-.33-.173-.213-.257-.498-.257-.86 0-.365.084-.65.257-.864.183-.223.436-.334.765-.334s.582.102.76.316c.173.214.262.508.262.883 0 .374-.089.664-.262.873-.178.21-.431.316-.76.316Zm3.214.397.622-2.393h.018l.618 2.393h.551l.916-3.182h-.587l-.596 2.42h-.018l-.626-2.42h-.538l-.627 2.42h-.018l-.595-2.42h-.587l.911 3.182h.556Zm5.423 0v-.446H39.27v-.962h1.663v-.446H39.27v-.882h1.77v-.446h-2.29v3.182h2.365Zm1.009 0v-1.297h.822c.178 0 .316.036.41.116.088.076.141.2.16.374l.04.393c.017.178.061.316.137.414h.565a.775.775 0 0 1-.192-.468l-.053-.512c-.035-.312-.191-.495-.467-.557v-.01a.69.69 0 0 0 .405-.28.76.76 0 0 0 .133-.441c0-.303-.102-.535-.298-.696-.186-.147-.444-.218-.769-.218h-1.413v3.182h.52Zm.822-1.742h-.822v-.994h.822c.214 0 .37.035.467.116.098.075.147.2.147.374a.48.48 0 0 1-.147.374c-.107.085-.262.13-.467.13ZM28.622 34.632v-1.296h.822c.178 0 .316.035.41.115.088.076.141.201.16.375l.04.392c.017.178.061.316.137.414h.564a.775.775 0 0 1-.19-.468l-.054-.512c-.036-.312-.191-.495-.467-.557v-.009a.69.69 0 0 0 .405-.28.76.76 0 0 0 .133-.442c0-.303-.102-.535-.298-.695-.186-.147-.444-.219-.769-.219h-1.413v3.182h.52Zm.822-1.742h-.822v-.994h.822c.213 0 .37.036.467.116.098.076.147.2.147.374a.48.48 0 0 1-.147.375c-.107.084-.262.129-.467.129Zm4.12 1.742v-.445H31.72v-.963h1.663v-.446H31.72v-.882h1.77v-.446H31.2v3.182h2.365Zm1.663.063c.405 0 .72-.085.943-.245a.8.8 0 0 0 .333-.678c0-.294-.138-.521-.413-.686-.125-.071-.4-.178-.832-.312a4.46 4.46 0 0 1-.542-.196c-.151-.08-.222-.192-.222-.325 0-.152.062-.263.195-.33.107-.058.258-.085.458-.085.231 0 .41.04.525.13.115.084.2.227.244.423h.516c-.031-.348-.16-.606-.382-.771-.21-.156-.503-.232-.876-.232-.342 0-.622.076-.845.232a.755.755 0 0 0-.355.664c0 .28.12.494.364.642.094.053.338.142.73.267.35.107.555.178.617.21.196.097.298.231.298.4 0 .134-.071.237-.205.317-.133.076-.32.116-.55.116-.263 0-.454-.05-.579-.138-.137-.103-.222-.277-.257-.517h-.516c.022.405.169.7.436.887.217.151.524.227.915.227Zm4.085-.063v-.445h-1.844v-.963h1.662v-.446h-1.662v-.882h1.769v-.446h-2.29v3.182h2.365Zm1.805 0v-2.736h1.04v-.446h-2.6v.446h1.04v2.736h.52Z" fill="#999" fill-rule="nonzero"/><ellipse fill-opacity=".5" fill="#999" cx="35.563" cy="39.349" rx="1.667" ry="1.671"/><ellipse fill-opacity=".5" fill="#999" cx="32.785" cy="229.908" rx="5.556" ry="5.571"/><path d="M35.563 163.173v2.02h3.048v4.041h2.032v1.01h2.032v6.061h-2.032v1.01h-2.032v4.041h-3.048v2.02h-5.08v-2.02h-2.032v-16.163h2.032v-2.02h5.08Zm-.474 14.825h-4.742v1.05h4.742v-1.05Zm0-2.1h-4.742v1.05h4.742v-1.05Zm0-2.098h-4.742v1.049h4.742v-1.05Zm0-2.1h-4.742v1.05h4.742v-1.05Zm0-2.099h-4.742v1.05h4.742v-1.05Zm0-2.099h-4.742v1.05h4.742v-1.05ZM35.563 139.404v2.02h3.048v4.041h2.032v1.01h2.032v6.061h-2.032v1.01h-2.032v4.041h-3.048v2.02h-5.08v-2.02h-2.032v-16.162h2.032v-2.02h5.08Zm-.474 14.825h-4.742v1.05h4.742v-1.05Zm0-2.1h-4.742v1.05h4.742v-1.05Zm0-2.098h-4.742v1.05h4.742v-1.05Zm0-2.1h-4.742v1.05h4.742v-1.05Zm0-2.098h-4.742v1.05h4.742v-1.05Zm0-2.1h-4.742v1.05h4.742v-1.05ZM35.563 115.635v2.02h3.048v4.041h2.032v1.01h2.032v6.062h-2.032v1.01h-2.032v4.04h-3.048v2.02h-5.08v-2.02h-2.032v-16.162h2.032v-2.02h5.08Zm-.474 14.825h-4.742v1.05h4.742v-1.05Zm0-2.1h-4.742v1.05h4.742v-1.05Zm0-2.098h-4.742v1.05h4.742v-1.05Zm0-2.1h-4.742v1.05h4.742v-1.05Zm0-2.098h-4.742v1.05h4.742v-1.05Zm0-2.1h-4.742v1.05h4.742v-1.05ZM35.563 91.867v2.02h3.048v4.04h2.032v1.01h2.032V105h-2.032v1.01h-2.032v4.04h-3.048v2.021h-5.08v-2.02h-2.032V93.887h2.032v-2.02h5.08Zm-.474 14.824h-4.742v1.05h4.742v-1.05Zm0-2.099h-4.742v1.05h4.742v-1.05Zm0-2.099h-4.742v1.05h4.742v-1.05Zm0-2.099h-4.742v1.05h4.742v-1.05Zm0-2.1h-4.742v1.05h4.742v-1.05Zm0-2.098h-4.742v1.05h4.742v-1.05Z" fill-opacity=".5" fill="#999"/><path d="M35.563 185.753v2.02h3.048v4.041h2.032v1.01h2.032v6.062h-2.032v1.01h-2.032v4.04h-3.048v2.02h-5.08v-2.02h-2.032v-16.162h2.032v-2.02h5.08Zm-.474 14.825h-4.742v1.05h4.742v-1.05Zm0-2.099h-4.742v1.05h4.742v-1.05Zm0-2.1h-4.742v1.05h4.742v-1.05Zm0-2.098h-4.742v1.05h4.742v-1.05Zm0-2.1h-4.742v1.05h4.742v-1.05Zm0-2.098h-4.742v1.05h4.742v-1.05Z" fill-opacity=".5" fill="#FF5B5B"/><path fill="#999" fill-rule="nonzero" d="M25.561 185.156v1.114h-2.223v23.583h5.002v1.114h-6.113v-25.811zM47.787 185.156v25.811h-5.556v-1.114h4.445v-23.584l-2.223.001v-1.114zM25.561 182.928v-1.115l-2.223.001V87.036h5.002V85.92h-6.113v97.007zM47.787 182.928V85.92h-5.556v1.114l4.445.001v94.778h-2.223v1.114z"/></g><g fill="#999"><g transform="translate(69 48.122)"><text font-family="PingFangSC-Semibold, PingFang SC" font-size="11.429" font-weight="500">
                    <tspan x="1.446" y="12">RESET</tspan>
                </text><ellipse fill-opacity=".5" cx="21.429" cy="24.529" rx="4.286" ry="4.35"/></g><path d="M89 28c14.553 0 26.97 9.143 31.821 21.998L138.5 52l-15.56 7.954c.04.677.06 1.36.06 2.046 0 18.778-15.222 34-34 34S55 80.778 55 62s15.222-34 34-34Zm0 2c-17.673 0-32 14.327-32 32 0 17.673 14.327 32 32 32 17.673 0 32-14.327 32-32 0-.43-.008-.859-.025-1.287l-.032-.64-.077-1.305 10.813-5.528-12.298-1.392-.431-1.144C114.287 38.348 102.428 30 89 30Z" fill-rule="nonzero" opacity=".6"/></g><path d="M158 250.499c0 9.113 7.388 16.501 16.499 16.501 9.113 0 16.501-7.388 16.501-16.501 0-9.111-7.388-16.499-16.501-16.499-9.111 0-16.499 7.388-16.499 16.499M158 51.499C158 60.612 165.388 68 174.499 68 183.612 68 191 60.612 191 51.499 191 42.388 183.612 35 174.499 35 165.388 35 158 42.388 158 51.499" stroke="#F84343" stroke-width="2" stroke-linejoin="round"/><path d="M98.5 141.597v34.689l-5.964.213v-.021c-1.221 1.874-3.477 3.119-6.036 3.119-2.549 0-4.796-1.235-6.02-3.096l-5.98-.001v-34.903h24Zm-12 19c-2.786 0-5 1.968-5 4.333v8.334c0 2.365 2.214 4.333 5 4.333s5-1.968 5-4.333v-8.334c0-2.365-2.214-4.333-5-4.333Zm9.999-17.001h-20V174.5h3.134a5.807 5.807 0 0 1-.133-1.236v-8.334c0-3.526 3.158-6.333 7-6.333s7 2.807 7 6.333v8.334c0 .412-.043.815-.126 1.205l3.125-.113v-30.76Zm-4.829 5.177v3.651h-1.388v-3.65h1.388Zm-8.327 0v3.651h-1.388v-3.65h1.388Z" fill="#999" fill-rule="nonzero"/><path d="M86.5 179.5v47c0 12.15 9.85 22 22 22H120" stroke="#979797" stroke-width="2" stroke-linecap="square"/><path d="M163.097 250.836c0 .947-.729 1.723-1.656 1.798l-.149.006-9.97-.001v.597c0 .92-.71 1.676-1.611 1.749l-.144.006h-14.548c-.922 0-1.677-.71-1.75-1.611l-.006-.144.001-.217h-9.17a1.279 1.279 0 0 1-1.272-1.148l-.007-.13.001-.541h-6.72c-.185 0-.334-.271-.334-.607v-4.245c0-.334.15-.606.334-.606h6.72v-.098c0-.662.502-1.207 1.147-1.272l.13-.007h9.171v-.264c0-.922.708-1.677 1.611-1.75l.144-.006h14.548c.92 0 1.676.709 1.75 1.612l.005.144v.648l9.97.001c.948 0 1.724.73 1.8 1.658l.005.148v4.28Zm-29.833.876v-6.07l-.97.004v1.865a.561.561 0 1 1-1.125 0l.001-1.861-1.436.004a.573.573 0 0 1 .003.05v1.892a.562.562 0 0 1-1.125 0v-1.891l.004-.047-1.439.004a.577.577 0 0 1 .002.043v1.89a.562.562 0 1 1-1.125 0v-1.89l.003-.038-1.963.007.03 6.066 1.93-.006v-1.88a.562.562 0 1 1 1.125 0v1.876l1.433-.004v-1.872a.562.562 0 1 1 1.125 0v1.869l1.433-.004v-1.72a.561.561 0 1 1 1.123 0l.001 1.716.97-.003Zm16.423 1.524V244.1a.121.121 0 0 0-.082-.115l-.038-.006h-14.548a.12.12 0 0 0-.114.082l-.006.039v9.135a.12.12 0 0 0 .082.114l.038.006h14.548a.12.12 0 0 0 .12-.12Zm11.775-2.4v-4.28a.17.17 0 0 0-.116-.162l-.054-.009-9.97-.001v4.62l9.97.001a.17.17 0 0 0 .161-.116l.01-.053Z" fill="#999" fill-rule="nonzero"/></g></svg>