<svg width="300" height="300" xmlns="http://www.w3.org/2000/svg"><defs><filter x="-112.5%" y="-51.4%" width="325%" height="202.9%" filterUnits="objectBoundingBox" id="a"><feGaussianBlur stdDeviation="6" in="SourceGraphic"/></filter></defs><g fill="none" fill-rule="evenodd"><g transform="translate(27.469 20.596)"><path d="m44.104 0 2.743.114.428 2.623C54.189 45.389 57.647 93.49 57.647 117.06c0 5.215-.218 8.927-.721 13.267l-.188 1.55-.83 6.455-.194 1.673-.14 1.298-.09.878c-.821 8.254-1.25 18.039-1.29 33.017l-.004 2.4.007 3.014.017 2.308c.146 15.626.955 25.633 2.32 32.815l.133.683.178.83c.557 2.533 1.525 6.408 1.59 6.707.422 1.98.618 3.743.618 5.946v22.981c0 3.74-2.989 5.944-8.368 6.665l-1.593-1.393H9.961l-1.593 1.393c-5.27-.706-8.245-2.836-8.364-6.438L0 252.882v-22.98c0-1.991.14-3.618.439-5.377l.112-.62.976-4.671c.188-.929.368-1.839.501-2.567l.101-.572.161-.99.162-1.075.158-1.135c.927-6.947 1.477-16.32 1.588-29.978l.014-2.304.007-3.015-.003-2.415-.012-3.137c-.076-13.77-.447-22.942-1.117-30.816l-.112-1.28-.195-2.04-.496-4.739-.298-2.93-.11-1.215-.102-1.263c-.24-3.136-.354-6.157-.367-9.973v-1.455C1.481 93.512 5.02 46.905 12.022 6.493l.66-3.775.465-2.624L15.896 0l3.6 14.403h2.067V.34h3.75v14.062h2.812V.34h3.75v14.062h2.813V.34h3.75v14.062h2.065L44.104 0ZM8.664 63.19l.168-2.876-.118.87C5.77 83.244 4.272 101.61 4.22 116.278v1.535c.016 4.44.171 7.77.506 11.506l.06.664.126 1.288.746 7.17.123 1.313c.732 8.087 1.14 17.372 1.23 31.5l.016 3.176.004 3.168-.006 3.081-.015 2.295c-.123 15.037-.777 24.967-1.889 32.228l-.054.35-.165 1.01-.158.884-.176.92c-.189.966-.41 2.048-.615 3.032l-.639 3.03-.101.563a27.33 27.33 0 0 0-.397 4.371l-.003.54v22.98c0 1.647 1.19 2.823 3.902 3.501l.277.067.156.034v-28.83c-.048-4.055.58-7.523 1.987-12.269l.18-.6 1.239-4.048.26-.875c.66-2.266.845-3.216.891-4.336l.013-.574v-67.736l-.004-.534c-.046-2.856-.466-5.827-1.48-10.92l-.3-1.49-1.05-5.073-.465-2.344-.185-.972c-.796-4.247-1.1-6.853-1.09-9.517l.005-.521.031-1.707.072-3.518.08-3.477c.28-11.517.696-22.33 1.249-32.44l.084-1.512Zm41.614-5.389.193 3.764.14 2.907c.573 12.194.993 25.413 1.262 39.658l.032 1.715c.072 4.022-.43 7.377-1.991 14.66l-.648 2.994c-1.322 6.134-1.897 9.787-1.93 13.39l.001 68.253.01.374.012.234c.071 1.162.344 2.262 1.335 5.539l1.045 3.423c1.527 5.073 2.216 8.716 2.166 12.943v28.829l.157-.034c2.907-.667 4.179-1.866 4.179-3.568v-22.98c0-1.819-.145-3.279-.458-4.876l-.13-.618-.934-3.858-.428-1.836a80.97 80.97 0 0 1-.416-1.913l-.168-.875-.126-.696c-1.43-8.105-2.204-19.523-2.204-37.632l.004-2.391.014-3.154.02-2.347c.135-13.302.635-22.22 1.506-30.029l.236-2.015.827-6.423.148-1.23c.441-3.813.657-7.113.696-11.453l.006-1.496-.005-1.566-.015-1.593c-.178-14.202-1.54-31.689-4.083-52.458l-.453-3.642Zm-4.556-40.586H13.895l-.213 2.099c-1.817 18.311-3.01 54.867-3.58 79.665l-.064 2.93-.077 3.986-.005.458c-.01 2.975.415 5.978 1.583 11.785l.284 1.39.678 3.263.39 1.91.204 1.026c.982 4.994 1.391 7.99 1.433 10.973l.003.516-.001 67.84-.005.341c-.034 1.606-.237 2.667-1.206 5.911l-.312 1.035-.825 2.683c-1.522 4.926-2.217 8.307-2.223 12.165l.002.447v27.702h39.131v-27.702c.047-3.903-.596-7.3-2.05-12.129l-1.316-4.32-.278-.945-.256-.902c-.585-2.123-.663-2.93-.67-4.369v-67.757c0-3.852.558-7.578 1.873-13.742l.855-3.963.486-2.327.197-.984c.91-4.618 1.213-7.295 1.16-10.305l-.077-4.035-.088-4.083-.103-4.334c-.592-23.416-1.627-58.826-3.103-76.228Zm-30.767-9.38a458.813 458.813 0 0 0-.762 6.568h2.404l-1.642-6.568Zm29.954.542-1.506 6.026h2.074a594.35 594.35 0 0 0-.423-4.544l-.145-1.482Z" fill-opacity=".7" fill="#999" fill-rule="nonzero"/><path d="M33.281 84.654h-7.5a4.25 4.25 0 0 0-4.25 4.25v7.5a4.25 4.25 0 0 0 4.25 4.25h7.5a4.25 4.25 0 0 0 4.25-4.25v-7.5a4.25 4.25 0 0 0-4.25-4.25Zm-7.5 1h7.5a3.25 3.25 0 0 1 3.25 3.25v7.5a3.25 3.25 0 0 1-3.25 3.25h-7.5a3.25 3.25 0 0 1-3.25-3.25v-7.5a3.25 3.25 0 0 1 3.25-3.25Z" fill-opacity=".7" fill="#999" fill-rule="nonzero"/><path d="M22.133 81.706c.288 0 .536-.082.742-.247.221-.177.36-.42.42-.735h-.428c-.052.202-.142.356-.27.457a.765.765 0 0 1-.468.139c-.293 0-.51-.094-.649-.274-.128-.169-.191-.412-.191-.727 0-.308.063-.548.195-.72.142-.195.352-.29.633-.29.188 0 .342.038.462.12.123.083.206.21.251.387h.428a.988.988 0 0 0-.353-.645c-.203-.165-.465-.247-.78-.247-.427 0-.754.138-.979.423-.198.248-.296.574-.296.972 0 .405.094.727.285.967.217.278.551.42.997.42Zm2.763 0c.409 0 .732-.131.968-.394.225-.25.337-.58.337-.993 0-.413-.112-.747-.337-.998-.236-.266-.559-.397-.968-.397-.412 0-.735.13-.967.4-.225.256-.334.586-.334.995 0 .405.109.735.334.99.232.262.555.397.967.397Zm0-.386c-.277 0-.495-.094-.645-.278-.146-.18-.217-.42-.217-.723 0-.308.071-.548.217-.728.154-.187.368-.281.645-.281.278 0 .491.086.642.266.146.18.22.428.22.743s-.074.558-.22.735c-.15.176-.364.266-.642.266Zm2.156.334v-1.958h.015l1.34 1.958h.427v-2.678h-.443v1.931h-.015l-1.324-1.93h-.438v2.677h.438Zm2.745 0v-1.958h.015l1.34 1.958h.427v-2.678h-.443v1.931h-.015l-1.323-1.93h-.44v2.677h.44Zm4.302 0v-.375h-1.556v-.81h1.402v-.375h-1.403v-.743h1.493v-.375h-1.931v2.678h1.995Zm1.582.052c.289 0 .537-.082.743-.247.221-.177.36-.42.42-.735h-.428c-.052.202-.142.356-.27.457a.765.765 0 0 1-.468.139c-.293 0-.51-.094-.65-.274-.127-.169-.19-.412-.19-.727 0-.308.063-.548.194-.72.143-.195.353-.29.634-.29.188 0 .342.038.462.12.123.083.206.21.25.387h.428a.988.988 0 0 0-.352-.645c-.203-.165-.465-.247-.78-.247-.428 0-.754.138-.979.423-.199.248-.296.574-.296.972 0 .405.093.727.285.967.217.278.551.42.997.42Zm2.685-.052V79.35h.878v-.375H37.05v.375h.878v2.303h.438ZM26.824 213.404l.525-2.014h.015l.521 2.014h.465l.772-2.678h-.494l-.503 2.036h-.015l-.529-2.036h-.453l-.53 2.036h-.014l-.503-2.036h-.495l.769 2.678h.469Zm2.786 0 .244-.672h1.121l.244.672h.468l-1.023-2.678h-.499l-1.024 2.678h.469Zm1.234-1.032h-.859l.424-1.173h.015l.42 1.173Zm1.545 1.032v-1.958h.015l1.338 1.958h.428v-2.678h-.443v1.931h-.014l-1.324-1.93h-.439v2.677h.439ZM28.39 108.654v-.375h-1.448v-2.303h-.435v2.678h1.882Zm.543 0 .244-.672h1.121l.244.672h.469l-1.024-2.678h-.499l-1.024 2.678h.47Zm1.234-1.032h-.859l.424-1.173h.015l.42 1.173Zm1.545 1.032v-1.958h.015l1.339 1.958h.427v-2.678h-.442v1.931h-.015l-1.324-1.93h-.439v2.677h.439ZM24.191 238.716v-1.027h.664c.652 0 .979-.278.979-.83 0-.547-.326-.82-.971-.82h-1.11v2.677h.438Zm.638-1.402h-.638v-.9h.638c.191 0 .334.033.424.105.09.067.138.18.138.34 0 .162-.045.278-.135.35-.09.067-.232.105-.427.105Zm2.569 1.455c.408 0 .73-.132.967-.394.225-.251.338-.581.338-.994 0-.412-.113-.746-.338-.997-.236-.267-.559-.398-.967-.398-.413 0-.735.131-.968.401-.225.255-.334.585-.334.994 0 .405.109.735.334.99.233.263.555.398.968.398Zm0-.387c-.278 0-.495-.093-.645-.277-.147-.18-.218-.42-.218-.724 0-.307.071-.547.218-.727.153-.188.367-.282.645-.282.277 0 .49.087.64.267.147.18.222.427.222.742s-.075.559-.221.735c-.15.176-.364.266-.642.266Zm2.71.334.526-2.014h.015l.521 2.014h.465l.772-2.677h-.494l-.503 2.036h-.015l-.529-2.036h-.453l-.53 2.036h-.014l-.503-2.036h-.495l.769 2.677h.469Zm4.576 0v-.375h-1.556v-.81h1.402v-.375h-1.403v-.742h1.493v-.375h-1.931v2.677h1.995Zm.851 0v-1.091h.694c.15 0 .266.03.345.097.075.064.12.17.135.315l.033.33c.016.15.053.267.117.35h.476a.651.651 0 0 1-.161-.395l-.045-.43c-.03-.263-.161-.417-.394-.47v-.007a.582.582 0 0 0 .341-.236.638.638 0 0 0 .113-.372c0-.255-.087-.45-.252-.585-.157-.123-.374-.183-.648-.183h-1.193v2.677h.439Zm.694-1.466h-.694v-.836h.694c.18 0 .311.03.394.097.082.064.123.169.123.315 0 .135-.041.24-.123.315-.09.071-.222.109-.394.109ZM24.144 63.841V62.75h.694c.15 0 .266.03.345.097.075.064.12.17.135.315l.034.33c.015.15.052.267.116.35h.476a.651.651 0 0 1-.16-.395l-.046-.43c-.03-.263-.161-.417-.394-.47v-.007a.582.582 0 0 0 .342-.236.638.638 0 0 0 .112-.372c0-.255-.086-.45-.251-.585-.158-.123-.375-.183-.649-.183h-1.192v2.677h.438Zm.694-1.466h-.694v-.836h.694c.18 0 .311.03.394.097.082.064.124.169.124.315 0 .135-.042.24-.124.315-.09.071-.221.109-.394.109Zm3.476 1.466v-.375h-1.556v-.81h1.403v-.375h-1.403v-.742h1.493v-.375h-1.932v2.677h1.995Zm1.403.053c.341 0 .607-.072.795-.207a.672.672 0 0 0 .281-.57c0-.247-.116-.438-.349-.577-.105-.06-.337-.15-.7-.263a3.768 3.768 0 0 1-.458-.165c-.128-.067-.188-.16-.188-.273 0-.128.053-.222.165-.278.09-.049.218-.071.386-.071.195 0 .345.034.443.109.097.07.169.19.206.356h.435c-.026-.293-.135-.51-.322-.649-.177-.131-.424-.195-.74-.195-.288 0-.524.064-.712.195a.635.635 0 0 0-.3.559c0 .236.102.416.308.54.079.045.285.12.615.225.296.09.469.15.521.176.165.083.251.195.251.338 0 .112-.06.198-.172.266a.953.953 0 0 1-.465.097c-.221 0-.383-.04-.488-.116-.116-.086-.187-.232-.217-.435h-.435c.019.341.142.589.367.746.184.128.443.192.773.192Zm3.446-.053v-.375h-1.556v-.81h1.402v-.375h-1.402v-.742h1.492v-.375h-1.93v2.677h1.994Zm1.523 0V61.54h.877v-.375H33.37v.375h.878v2.302h.439Z" fill="#999" fill-rule="nonzero"/><circle fill-opacity=".5" fill="#999" cx="30" cy="67.81" r="1.406"/><circle fill-opacity=".5" fill="#999" cx="27.656" cy="228.154" r="4.688"/><path d="M30 172v1.699l2.571.001.001 3.399 1.714.001v.85H36v5.1h-1.714v.85l-1.714-.001v3.401L30 187.299V189h-4.286l.001-1.701L24 187.3v-13.6l1.715-.001V172H30Zm-.4 12.474h-4v.883h4v-.883Zm0-1.766h-4v.883h4v-.883Zm0-1.766h-4v.883h4v-.883Zm0-1.767h-4v.883h4v-.883Zm0-1.766h-4v.883h4v-.883Zm0-1.766h-4v.883h4v-.883ZM30 152v1.699l2.571.001.001 3.399 1.714.001v.85H36v5.1h-1.714v.85l-1.714-.001v3.401L30 167.299V169h-4.286l.001-1.701L24 167.3v-13.6l1.715-.001V152H30Zm-.4 12.474h-4v.883h4v-.883Zm0-1.766h-4v.883h4v-.883Zm0-1.766h-4v.883h4v-.883Zm0-1.767h-4v.883h4v-.883Zm0-1.766h-4v.883h4v-.883Zm0-1.766h-4v.883h4v-.883ZM30 132v1.699l2.571.001.001 3.399 1.714.001v.85H36v5.1h-1.714v.85l-1.714-.001v3.401L30 147.299V149h-4.286l.001-1.701L24 147.3v-13.6l1.715-.001V132H30Zm-.4 12.474h-4v.883h4v-.883Zm0-1.766h-4v.883h4v-.883Zm0-1.766h-4v.883h4v-.883Zm0-1.767h-4v.883h4v-.883Zm0-1.766h-4v.883h4v-.883Zm0-1.766h-4v.883h4v-.883ZM30 112v1.699l2.571.001.001 3.399 1.714.001v.85H36v5.1h-1.714v.85l-1.714-.001v3.401L30 127.299V129h-4.286l.001-1.701L24 127.3v-13.6l1.715-.001V112H30Zm-.4 12.474h-4v.883h4v-.883Zm0-1.766h-4v.883h4v-.883Zm0-1.766h-4v.883h4v-.883Zm0-1.767h-4v.883h4v-.883Zm0-1.766h-4v.883h4v-.883Zm0-1.766h-4v.883h4v-.883Z" fill-opacity=".5" fill="#999"/><path d="M30 191v1.699l2.571.001.001 3.399 1.714.001v.85H36v5.1h-1.714v.85l-1.714-.001v3.401L30 206.299V208h-4.286l.001-1.701L24 206.3v-13.6l1.715-.001V191H30Zm-.4 12.474h-4v.883h4v-.883Zm0-1.766h-4v.883h4v-.883Zm0-1.766h-4v.883h4v-.883Zm0-1.767h-4v.883h4v-.883Zm0-1.766h-4v.883h4v-.883Zm0-1.766h-4v.883h4v-.883Z" fill-opacity=".5" fill="#FF5B5B"/><path fill="#999" fill-rule="nonzero" d="M21.563 190.497v.938l-1.876-.001v19.844h4.22v.938H18.75v-21.719zM40.313 190.497v21.72h-4.688v-.938l3.75-.001v-19.844H37.5v-.937zM21.563 188.622v-.937h-1.876v-79.75h4.22v-.938H18.75v81.625zM40.313 188.622v-81.625h-4.688v.938h3.75v79.75H37.5v.937z"/></g><g transform="translate(213.469 20.596)"><path d="m44.104 0 2.743.114.428 2.623C54.189 45.389 57.647 93.49 57.647 117.06c0 5.215-.218 8.927-.721 13.267l-.188 1.55-.83 6.455-.194 1.673-.14 1.298-.09.878c-.821 8.254-1.25 18.039-1.29 33.017l-.004 2.4.007 3.014.017 2.308c.146 15.626.955 25.633 2.32 32.815l.133.683.178.83c.557 2.533 1.525 6.408 1.59 6.707.422 1.98.618 3.743.618 5.946v22.981c0 3.74-2.989 5.944-8.368 6.665l-1.593-1.393H9.961l-1.593 1.393c-5.27-.706-8.245-2.836-8.364-6.438L0 252.882v-22.98c0-1.991.14-3.618.439-5.377l.112-.62.976-4.671c.188-.929.368-1.839.501-2.567l.101-.572.161-.99.162-1.075.158-1.135c.927-6.947 1.477-16.32 1.588-29.978l.014-2.304.007-3.015-.003-2.415-.012-3.137c-.076-13.77-.447-22.942-1.117-30.816l-.112-1.28-.195-2.04-.496-4.739-.298-2.93-.11-1.215-.102-1.263c-.24-3.136-.354-6.157-.367-9.973v-1.455C1.481 93.512 5.02 46.905 12.022 6.493l.66-3.775.465-2.624L15.896 0l3.6 14.403h2.067V.34h3.75v14.062h2.812V.34h3.75v14.062h2.813V.34h3.75v14.062h2.065L44.104 0ZM8.664 63.19l.168-2.876-.118.87C5.77 83.244 4.272 101.61 4.22 116.278v1.535c.016 4.44.171 7.77.506 11.506l.06.664.126 1.288.746 7.17.123 1.313c.732 8.087 1.14 17.372 1.23 31.5l.016 3.176.004 3.168-.006 3.081-.015 2.295c-.123 15.037-.777 24.967-1.889 32.228l-.054.35-.165 1.01-.158.884-.176.92c-.189.966-.41 2.048-.615 3.032l-.639 3.03-.101.563a27.33 27.33 0 0 0-.397 4.371l-.003.54v22.98c0 1.647 1.19 2.823 3.902 3.501l.277.067.156.034v-28.83c-.048-4.055.58-7.523 1.987-12.269l.18-.6 1.239-4.048.26-.875c.66-2.266.845-3.216.891-4.336l.013-.574v-67.736l-.004-.534c-.046-2.856-.466-5.827-1.48-10.92l-.3-1.49-1.05-5.073-.465-2.344-.185-.972c-.796-4.247-1.1-6.853-1.09-9.517l.005-.521.031-1.707.072-3.518.08-3.477c.28-11.517.696-22.33 1.249-32.44l.084-1.512Zm41.614-5.389.193 3.764.14 2.907c.573 12.194.993 25.413 1.262 39.658l.032 1.715c.072 4.022-.43 7.377-1.991 14.66l-.648 2.994c-1.322 6.134-1.897 9.787-1.93 13.39l.001 68.253.01.374.012.234c.071 1.162.344 2.262 1.335 5.539l1.045 3.423c1.527 5.073 2.216 8.716 2.166 12.943v28.829l.157-.034c2.907-.667 4.179-1.866 4.179-3.568v-22.98c0-1.819-.145-3.279-.458-4.876l-.13-.618-.934-3.858-.428-1.836a80.97 80.97 0 0 1-.416-1.913l-.168-.875-.126-.696c-1.43-8.105-2.204-19.523-2.204-37.632l.004-2.391.014-3.154.02-2.347c.135-13.302.635-22.22 1.506-30.029l.236-2.015.827-6.423.148-1.23c.441-3.813.657-7.113.696-11.453l.006-1.496-.005-1.566-.015-1.593c-.178-14.202-1.54-31.689-4.083-52.458l-.453-3.642Zm-4.556-40.586H13.895l-.213 2.099c-1.817 18.311-3.01 54.867-3.58 79.665l-.064 2.93-.077 3.986-.005.458c-.01 2.975.415 5.978 1.583 11.785l.284 1.39.678 3.263.39 1.91.204 1.026c.982 4.994 1.391 7.99 1.433 10.973l.003.516-.001 67.84-.005.341c-.034 1.606-.237 2.667-1.206 5.911l-.312 1.035-.825 2.683c-1.522 4.926-2.217 8.307-2.223 12.165l.002.447v27.702h39.131v-27.702c.047-3.903-.596-7.3-2.05-12.129l-1.316-4.32-.278-.945-.256-.902c-.585-2.123-.663-2.93-.67-4.369v-67.757c0-3.852.558-7.578 1.873-13.742l.855-3.963.486-2.327.197-.984c.91-4.618 1.213-7.295 1.16-10.305l-.077-4.035-.088-4.083-.103-4.334c-.592-23.416-1.627-58.826-3.103-76.228Zm-30.767-9.38a458.813 458.813 0 0 0-.762 6.568h2.404l-1.642-6.568Zm29.954.542-1.506 6.026h2.074a594.35 594.35 0 0 0-.423-4.544l-.145-1.482Z" fill-opacity=".7" fill="#999" fill-rule="nonzero"/><path d="M33.281 84.654h-7.5a4.25 4.25 0 0 0-4.25 4.25v7.5a4.25 4.25 0 0 0 4.25 4.25h7.5a4.25 4.25 0 0 0 4.25-4.25v-7.5a4.25 4.25 0 0 0-4.25-4.25Zm-7.5 1h7.5a3.25 3.25 0 0 1 3.25 3.25v7.5a3.25 3.25 0 0 1-3.25 3.25h-7.5a3.25 3.25 0 0 1-3.25-3.25v-7.5a3.25 3.25 0 0 1 3.25-3.25Z" fill-opacity=".7" fill="#999" fill-rule="nonzero"/><path d="M22.133 81.706c.288 0 .536-.082.742-.247.221-.177.36-.42.42-.735h-.428c-.052.202-.142.356-.27.457a.765.765 0 0 1-.468.139c-.293 0-.51-.094-.649-.274-.128-.169-.191-.412-.191-.727 0-.308.063-.548.195-.72.142-.195.352-.29.633-.29.188 0 .342.038.462.12.123.083.206.21.251.387h.428a.988.988 0 0 0-.353-.645c-.203-.165-.465-.247-.78-.247-.427 0-.754.138-.979.423-.198.248-.296.574-.296.972 0 .405.094.727.285.967.217.278.551.42.997.42Zm2.763 0c.409 0 .732-.131.968-.394.225-.25.337-.58.337-.993 0-.413-.112-.747-.337-.998-.236-.266-.559-.397-.968-.397-.412 0-.735.13-.967.4-.225.256-.334.586-.334.995 0 .405.109.735.334.99.232.262.555.397.967.397Zm0-.386c-.277 0-.495-.094-.645-.278-.146-.18-.217-.42-.217-.723 0-.308.071-.548.217-.728.154-.187.368-.281.645-.281.278 0 .491.086.642.266.146.18.22.428.22.743s-.074.558-.22.735c-.15.176-.364.266-.642.266Zm2.156.334v-1.958h.015l1.34 1.958h.427v-2.678h-.443v1.931h-.015l-1.324-1.93h-.438v2.677h.438Zm2.745 0v-1.958h.015l1.34 1.958h.427v-2.678h-.443v1.931h-.015l-1.323-1.93h-.44v2.677h.44Zm4.302 0v-.375h-1.556v-.81h1.402v-.375h-1.403v-.743h1.493v-.375h-1.931v2.678h1.995Zm1.582.052c.289 0 .537-.082.743-.247.221-.177.36-.42.42-.735h-.428c-.052.202-.142.356-.27.457a.765.765 0 0 1-.468.139c-.293 0-.51-.094-.65-.274-.127-.169-.19-.412-.19-.727 0-.308.063-.548.194-.72.143-.195.353-.29.634-.29.188 0 .342.038.462.12.123.083.206.21.25.387h.428a.988.988 0 0 0-.352-.645c-.203-.165-.465-.247-.78-.247-.428 0-.754.138-.979.423-.199.248-.296.574-.296.972 0 .405.093.727.285.967.217.278.551.42.997.42Zm2.685-.052V79.35h.878v-.375H37.05v.375h.878v2.303h.438ZM26.824 213.404l.525-2.014h.015l.521 2.014h.465l.772-2.678h-.494l-.503 2.036h-.015l-.529-2.036h-.453l-.53 2.036h-.014l-.503-2.036h-.495l.769 2.678h.469Zm2.786 0 .244-.672h1.121l.244.672h.468l-1.023-2.678h-.499l-1.024 2.678h.469Zm1.234-1.032h-.859l.424-1.173h.015l.42 1.173Zm1.545 1.032v-1.958h.015l1.338 1.958h.428v-2.678h-.443v1.931h-.014l-1.324-1.93h-.439v2.677h.439ZM28.39 108.654v-.375h-1.448v-2.303h-.435v2.678h1.882Zm.543 0 .244-.672h1.121l.244.672h.469l-1.024-2.678h-.499l-1.024 2.678h.47Zm1.234-1.032h-.859l.424-1.173h.015l.42 1.173Zm1.545 1.032v-1.958h.015l1.339 1.958h.427v-2.678h-.442v1.931h-.015l-1.324-1.93h-.439v2.677h.439ZM24.191 238.716v-1.027h.664c.652 0 .979-.278.979-.83 0-.547-.326-.82-.971-.82h-1.11v2.677h.438Zm.638-1.402h-.638v-.9h.638c.191 0 .334.033.424.105.09.067.138.18.138.34 0 .162-.045.278-.135.35-.09.067-.232.105-.427.105Zm2.569 1.455c.408 0 .73-.132.967-.394.225-.251.338-.581.338-.994 0-.412-.113-.746-.338-.997-.236-.267-.559-.398-.967-.398-.413 0-.735.131-.968.401-.225.255-.334.585-.334.994 0 .405.109.735.334.99.233.263.555.398.968.398Zm0-.387c-.278 0-.495-.093-.645-.277-.147-.18-.218-.42-.218-.724 0-.307.071-.547.218-.727.153-.188.367-.282.645-.282.277 0 .49.087.64.267.147.18.222.427.222.742s-.075.559-.221.735c-.15.176-.364.266-.642.266Zm2.71.334.526-2.014h.015l.521 2.014h.465l.772-2.677h-.494l-.503 2.036h-.015l-.529-2.036h-.453l-.53 2.036h-.014l-.503-2.036h-.495l.769 2.677h.469Zm4.576 0v-.375h-1.556v-.81h1.402v-.375h-1.403v-.742h1.493v-.375h-1.931v2.677h1.995Zm.851 0v-1.091h.694c.15 0 .266.03.345.097.075.064.12.17.135.315l.033.33c.016.15.053.267.117.35h.476a.651.651 0 0 1-.161-.395l-.045-.43c-.03-.263-.161-.417-.394-.47v-.007a.582.582 0 0 0 .341-.236.638.638 0 0 0 .113-.372c0-.255-.087-.45-.252-.585-.157-.123-.374-.183-.648-.183h-1.193v2.677h.439Zm.694-1.466h-.694v-.836h.694c.18 0 .311.03.394.097.082.064.123.169.123.315 0 .135-.041.24-.123.315-.09.071-.222.109-.394.109ZM24.144 63.841V62.75h.694c.15 0 .266.03.345.097.075.064.12.17.135.315l.034.33c.015.15.052.267.116.35h.476a.651.651 0 0 1-.16-.395l-.046-.43c-.03-.263-.161-.417-.394-.47v-.007a.582.582 0 0 0 .342-.236.638.638 0 0 0 .112-.372c0-.255-.086-.45-.251-.585-.158-.123-.375-.183-.649-.183h-1.192v2.677h.438Zm.694-1.466h-.694v-.836h.694c.18 0 .311.03.394.097.082.064.124.169.124.315 0 .135-.042.24-.124.315-.09.071-.221.109-.394.109Zm3.476 1.466v-.375h-1.556v-.81h1.403v-.375h-1.403v-.742h1.493v-.375h-1.932v2.677h1.995Zm1.403.053c.341 0 .607-.072.795-.207a.672.672 0 0 0 .281-.57c0-.247-.116-.438-.349-.577-.105-.06-.337-.15-.7-.263a3.768 3.768 0 0 1-.458-.165c-.128-.067-.188-.16-.188-.273 0-.128.053-.222.165-.278.09-.049.218-.071.386-.071.195 0 .345.034.443.109.097.07.169.19.206.356h.435c-.026-.293-.135-.51-.322-.649-.177-.131-.424-.195-.74-.195-.288 0-.524.064-.712.195a.635.635 0 0 0-.3.559c0 .236.102.416.308.54.079.045.285.12.615.225.296.09.469.15.521.176.165.083.251.195.251.338 0 .112-.06.198-.172.266a.953.953 0 0 1-.465.097c-.221 0-.383-.04-.488-.116-.116-.086-.187-.232-.217-.435h-.435c.019.341.142.589.367.746.184.128.443.192.773.192Zm3.446-.053v-.375h-1.556v-.81h1.402v-.375h-1.402v-.742h1.492v-.375h-1.93v2.677h1.994Zm1.523 0V61.54h.877v-.375H33.37v.375h.878v2.302h.439Z" fill="#999" fill-rule="nonzero"/><circle fill-opacity=".5" fill="#999" cx="30" cy="67.81" r="1.406"/><circle fill-opacity=".5" fill="#999" cx="27.656" cy="228.154" r="4.688"/><path d="M30 172v1.699l2.571.001.001 3.399 1.714.001v.85H36v5.1h-1.714v.85l-1.714-.001v3.401L30 187.299V189h-4.286l.001-1.701L24 187.3v-13.6l1.715-.001V172H30Zm-.4 12.474h-4v.883h4v-.883Zm0-1.766h-4v.883h4v-.883Zm0-1.766h-4v.883h4v-.883Zm0-1.767h-4v.883h4v-.883Zm0-1.766h-4v.883h4v-.883Zm0-1.766h-4v.883h4v-.883ZM30 152v1.699l2.571.001.001 3.399 1.714.001v.85H36v5.1h-1.714v.85l-1.714-.001v3.401L30 167.299V169h-4.286l.001-1.701L24 167.3v-13.6l1.715-.001V152H30Zm-.4 12.474h-4v.883h4v-.883Zm0-1.766h-4v.883h4v-.883Zm0-1.766h-4v.883h4v-.883Zm0-1.767h-4v.883h4v-.883Zm0-1.766h-4v.883h4v-.883Zm0-1.766h-4v.883h4v-.883ZM30 132v1.699l2.571.001.001 3.399 1.714.001v.85H36v5.1h-1.714v.85l-1.714-.001v3.401L30 147.299V149h-4.286l.001-1.701L24 147.3v-13.6l1.715-.001V132H30Zm-.4 12.474h-4v.883h4v-.883Zm0-1.766h-4v.883h4v-.883Zm0-1.766h-4v.883h4v-.883Zm0-1.767h-4v.883h4v-.883Zm0-1.766h-4v.883h4v-.883Zm0-1.766h-4v.883h4v-.883ZM30 112v1.699l2.571.001.001 3.399 1.714.001v.85H36v5.1h-1.714v.85l-1.714-.001v3.401L30 127.299V129h-4.286l.001-1.701L24 127.3v-13.6l1.715-.001V112H30Zm-.4 12.474h-4v.883h4v-.883Zm0-1.766h-4v.883h4v-.883Zm0-1.766h-4v.883h4v-.883Zm0-1.767h-4v.883h4v-.883Zm0-1.766h-4v.883h4v-.883Zm0-1.766h-4v.883h4v-.883Z" fill-opacity=".5" fill="#999"/><path d="M30 191v1.699l2.571.001.001 3.399 1.714.001v.85H36v5.1h-1.714v.85l-1.714-.001v3.401L30 206.299V208h-4.286l.001-1.701L24 206.3v-13.6l1.715-.001V191H30Zm-.4 12.474h-4v.883h4v-.883Zm0-1.766h-4v.883h4v-.883Zm0-1.766h-4v.883h4v-.883Zm0-1.767h-4v.883h4v-.883Zm0-1.766h-4v.883h4v-.883Zm0-1.766h-4v.883h4v-.883Z" fill-opacity=".5" fill="#FF5B5B"/><path fill="#999" fill-rule="nonzero" d="M21.563 190.497v.938l-1.876-.001v19.844h4.22v.938H18.75v-21.719zM40.313 190.497v21.72h-4.688v-.938l3.75-.001v-19.844H37.5v-.937zM21.563 188.622v-.937h-1.876v-79.75h4.22v-.938H18.75v81.625zM40.313 188.622v-81.625h-4.688v.938h3.75v79.75H37.5v.937z"/></g><path d="M281.98 260a23.583 23.583 0 0 0-.492-3.999h3.515c.522 1.246.853 2.592.96 4h-3.983Zm-.492 6.003c.268-1.266.44-2.608.492-4.003h3.98a12.834 12.834 0 0 1-.957 4.003h-3.515Zm-.522 2h2.991a13.073 13.073 0 0 1-5.347 4.728c.967-1.286 1.772-2.893 2.356-4.729Zm-6.965 0h4.9c-1.075 3.113-2.847 5.32-4.9 5.87v-5.87Zm0-6.003h5.98a22.26 22.26 0 0 1-.52 4.003H274V262Zm0-5.999h5.46c.284 1.246.457 2.592.52 4H274v-4Zm0-7.873c2.053.549 3.825 2.758 4.9 5.87H274v-5.87Zm6.965 5.87c-.584-1.834-1.385-3.445-2.356-4.729a13.087 13.087 0 0 1 5.347 4.729h-2.99Zm-8.967 0h-4.9c1.075-3.112 2.845-5.321 4.9-5.87v5.87Zm0 6.002h-5.98c.059-1.407.236-2.753.518-3.999H272v4Zm0 6.003h-5.462a22.446 22.446 0 0 1-.518-4.003H272v4.003Zm0 7.87c-2.055-.55-3.825-2.757-4.9-5.87h4.9v5.87Zm-6.963-5.87c.584 1.835 1.387 3.446 2.354 4.728a13.066 13.066 0 0 1-5.349-4.729h2.995ZM264.02 262c.055 1.395.224 2.737.492 4.003h-3.517a13.005 13.005 0 0 1-.957-4.003h3.982Zm.492-5.999a23.79 23.79 0 0 0-.492 4h-3.982c.106-1.408.439-2.754.957-4h3.517Zm.526-2.003h-2.997a13.08 13.08 0 0 1 5.349-4.729c-.965 1.284-1.768 2.895-2.352 4.729ZM287.964 260c-.492-7.49-6.476-13.476-13.963-13.968V246h-2.002v.032c-7.487.492-13.473 6.478-13.965 13.968H258v2h.034c.492 7.49 6.478 13.474 13.965 13.966V276h2.002v-.034c7.487-.492 13.471-6.476 13.963-13.966H288v-2h-.036Z" fill="#009FD1"/><path d="m191.994 193.006.012-1-2-.024-.012 1 2 .024Zm-5-.06.012-1-2-.025-.012 1 2 .024Zm-5-.062.013-1-2-.024-.012 1 2 .024Zm-4.999-.06.012-1-2-.025-.012 1 2 .024Zm-5-.062.013-1-2-.024-.012 1 2 .024Zm-5-.06.013-1-2-.025-.012 1 2 .024Zm-4.999-.062.012-1-2-.024-.012 1 2 .024Zm-5-.06.013-1-2-.025-.012 1 2 .024Zm-5-.062.013-1-2-.024-.012 1 2 .024Zm-4.999-.06.012-1-2-.025-.012 1 2 .024Zm-5-.062.013-1-2-.024-.012 1 2 .024Zm-4.999-.06.012-1-2-.025-.012 1 2 .024Zm-5-.062.013-1-2-.024-.013 1 2 .024Zm-5-.06.013-1-2-.025-.012 1 2 .024Zm-4.999-.062.012-1-2-.024-.012 1 2 .024Zm-5-.06.013-1-2-.025-.012 1 2 .024Zm-5-.061.013-1-2-.025-.012 1 2 .025Z" fill="#979797" fill-rule="nonzero"/><g transform="translate(109 62)"><path d="M41-2C17.252-2-2 17.252-2 41l.005.649c.311 20.936 15.664 38.51 36.101 41.801l.133.02 4.423 10.318.073.153c.777 1.481 2.981 1.403 3.622-.198l4.032-10.078.09-.011C67.779 80.947 84 62.752 84 41 84 17.252 64.748-2 41-2Zm0 2c22.644 0 41 18.356 41 41 0 21.302-16.245 38.81-37.022 40.81L40.5 93l-4.864-11.348C15.527 79.025 0 61.826 0 41 0 18.356 18.356 0 41 0Z" fill-opacity=".5" fill="#999" fill-rule="nonzero"/><path d="m34.404.528-.053 2.385-.016.65-.018.654-.079 2.638-.045 1.335c-.036 1.032-.164 2.136-.38 3.365l-.098.534-.115.587-.127.604-.142.643-.162.7-.42 1.758-.374 1.586-.224 1.008-.158.789-.067.394-.049.35-.024.215-.03.407-.011.4v43.783c0 .013.007.025.017.03l.018.006 1.281-.077 3.028-.196 2.243-.159 2.082-.16 1.921-.164 1.337-.125 1.245-.125 1.156-.127 1.065-.128.975-.129.6-.087.977-.153c.459-.073.913-.148 1.363-.224l.67-.115 1.318-.234 1.285-.24 1.252-.246 1.216-.25c.748-.159 1.475-.32 2.178-.482l.696-.164 1.079-.264 1.036-.267c.81-.214 1.58-.431 2.301-.649l.533-.163.734-.236.686-.233.164-.057.161-.058.613-.227a17.804 17.804 0 0 0 1.733-.757 5.54 5.54 0 0 0 .832-.505l.087-.072.027-.023c.015-.012.025-.018.032-.016l.007.01.003.023-.016-2.641-.004-2.624.004-1.188.02-1.873-.009-.444-.004-.118-.005-.12-.03-.515-.044-.564-.058-.62-.072-.678-.064-.557-.344-2.812-.102-.906-.05-.58-.013-.372-.008-2.488-.023-2.605-.042-2.826-.158-7.914-.087-5.088-.023-2.426v-1.918l.01-1.172.01-.571.023-1.136.037-1.302.038-.877.03-.49c.576.53 1.137 1.078 1.681 1.64l-.017.505-.03 1.242-.021 1.36-.009 1.926.02 2.792.054 3.488.197 9.96.05 3.614.013 1.478.008 2.656.007.29.027.404.06.587.38 3.131.13 1.144.068.68.054.625.038.573.024.527c.005.168.008.33.008.484l-.002.229-.012.942-.009 1.476v2.043l.021 3.714c0 .61-.639 1.259-1.819 1.92l-.227.125-.36.184-.094.046-.095.046-.4.185-.426.185-.451.185-.117.047-.118.046-.49.185-.514.185-.538.185-.138.046-.14.046-.573.185-.597.183-.937.274-.651.182-1.018.27-.705.18-1.094.266-.755.176-1.167.26-.8.172-1.235.253-1.274.25-.87.162-1.335.24-1.37.235-.93.153-1.325.208-.81.115-.876.113-.944.113-1.01.111-1.381.14-1.034.097-1.65.144-1.772.142-1.892.14-2.012.139-2.133.136-1.49.09-.105.003a1.79 1.79 0 0 1-1.72-1.294l-.85-.096a.525.525 0 0 1-.86-.094l-1.08-.121a.527.527 0 0 1-.419.388l-.094.008a.526.526 0 0 1-.516-.434l-.008-.095v-.282c-.517.219-.87.454-1.065.689l-.063.084c-.465.693-1.52.402-1.6-.388l-.006-.111.532-42.296-.004-.51-.012-.504-.022-.503-.031-.51-.041-.527-.052-.549-.062-.579-.074-.617-.086-.664-.21-1.494-.267-1.828-.162-1.18-.123-1-.048-.447-.057-.625-.028-.395-.03-.577-.017-.577-.004-.396-.008-2.066-.006-2.985-.001-.254a40.803 40.803 0 0 1 1.756-.823l.002 2.625.013 3.683.012.548.024.544.039.56.055.6.073.658.093.74.204 1.468.275 1.888.157 1.128.089.684.076.637.064.6.053.572.043.549.017.268.027.532.01.264.013.531.005.542-.51 40.519.159-.074c.163-.072.335-.141.516-.207l.278-.097.016-.004.326-60.623c.349-.13.7-.257 1.053-.378l-.33 61.456a.886.886 0 0 1-.002.768l-.002.009.997.11v-8.768a.526.526 0 0 1 1.044-.095l.009.095-.001 8.886.65.072.001-43.225c0-.077.002-.152.004-.226l.007-.22.012-.22.017-.222.023-.228.047-.364.04-.263.109-.592.106-.517.288-1.284.16-.677.087-15.464c.35-.088.7-.172 1.054-.25l-.061 10.983.042-.21c.227-1.195.37-2.254.429-3.224l.02-.41.022-.665.022-.663.079-2.628.033-1.298.03-1.289.014-.732c.583-.121 1.171-.23 1.763-.325Zm22.94 2.859-.015.35c-.02.388-.045.775-.078 1.175l-.065.727-.275 2.66-.095 1.028-.057.699-.052.714-.069 1.112-.058 1.17-.032.819-.04 1.299-.019.918-.015.964-.013 1.544-.002 1.099v30.184a.877.877 0 0 1-1.748.11l-.007-.11V19.102l.01-1.665.015-1.038.03-1.46.043-1.36.036-.857.063-1.223.049-.782.084-1.132.096-1.097.32-3.127c.09-.947.142-1.772.16-2.678.584.22 1.162.455 1.734.704ZM29.855 1.533l-.22 22.305a.526.526 0 0 1-.437.514l-.095.007a.526.526 0 0 1-.513-.436l-.008-.095.217-21.982c.35-.109.702-.213 1.056-.313Z" fill="#999"/><path d="M29 25.545a.57.57 0 0 1 .558.482l.007.093-.228 26.93a.57.57 0 0 1-1.134.082l-.007-.092.228-26.93a.57.57 0 0 1 .575-.565Z" fill="#2A75FF" fill-rule="nonzero"/><ellipse fill="#367DFF" opacity=".5" filter="url(#a)" cx="28.763" cy="39.158" rx="8" ry="17.5"/></g><path d="M35.003 112.635C35.197 100.655 44.972 91 56.999 91 69.149 91 79 100.85 79 112.999 79 125.149 69.15 135 56.999 135c-12.028 0-21.802-9.655-21.996-21.638L35 113l.003-.364Zm2.997.364C38 123.493 46.507 132 56.999 132 67.493 132 76 123.493 76 112.999 76 102.507 67.493 94 56.999 94 46.507 94 38 102.507 38 112.999ZM221.003 112.635c.194-11.98 9.969-21.635 21.996-21.635 12.15 0 22.001 9.85 22.001 21.999 0 12.15-9.85 22.001-22.001 22.001-12.028 0-21.802-9.655-21.996-21.638L221 113l.003-.364Zm2.997.364c0 10.494 8.507 19.001 18.999 19.001 10.494 0 19.001-8.507 19.001-19.001C262 102.507 253.493 94 242.999 94 232.507 94 224 102.507 224 112.999Z" fill-opacity=".9" fill="#F84343" fill-rule="nonzero"/></g></svg>