<svg width="300" height="300" xmlns="http://www.w3.org/2000/svg"><defs><filter x="-150%" y="-39.7%" width="400%" height="179.4%" filterUnits="objectBoundingBox" id="a"><feGaussianBlur stdDeviation="9" in="SourceGraphic"/></filter></defs><g fill="none" fill-rule="evenodd"><path d="m52.729 54.036.16.038 42.906 12.111a2.71 2.71 0 0 1 1.898 1.974c.244 1.015.48 2.158.707 3.433l.097.555.126.755.118.74.116.764.115.79.17 1.231.22 1.73.107.903.211 1.881.103.979.202 2.032.147 1.59.144 1.647.187 2.284.136 1.779.176 2.46.128 1.911.165 2.637.237 4.144.113 2.157.181 3.721.172 3.879.162 4.036.123 3.343.117 3.444.164 5.354.102 3.697.011.573.004.59-.007.922-.014.644-.021.67-.046 1.064-.062 1.143-.109 1.664-.1 1.368-.119 1.482-.508 5.983-.125 1.558-.095 1.292-.038.57-.06 1.043-.046 1.093-.038 1.24-.037 1.436-.028 1.378-.007.404-.006.407-.018 1.653-.008 1.725v.955l.014 2.666.045 3.82.105 6.065.247 12.203.084 4.917.054 4.345.025 3.648.005 1.825v.925l.004.352.023.532.068.797.13 1.185.596 4.873.123 1.055.101.935.088.876.072.82.016.196.015.193.051.742.02.353.016.342.021.651c.005.21.006.414.006.611l-.003.291-.016 1.196-.017 2.301-.004 3 .004 1.824.033 5.55c0 .837-.625 1.65-1.843 2.465l-.235.153-.39.237a16.47 16.47 0 0 1-.822.445l-.299.15-.505.238-.264.12-.273.12-.57.242-.6.242-.634.244-.664.246-.696.247-.727.25-.758.25-.79.255-.978.304-.29.088-.294.089-1.202.352-.618.175-.629.175-1.29.348-1.333.346-.681.172-.692.171-1.414.34-.721.17-.731.167-1.49.333-.379.082-.38.083-1.545.326-1.579.322-1.613.317-.408.078-.41.078-1.661.308-1.692.303-.427.075-.43.074-1.735.293-1.32.216-1.334.211-.335.052-1.052.154-.741.102-1.172.152-1.672.201-.884.1-1.386.148-1.958.197-2.086.194-2.786.24-2.371.19-2.5.188-3.303.232-3.502.23-3.7.225-.101.004-.225-.004a2.711 2.711 0 0 1-2.437-1.949l-1.808-.201a.773.773 0 0 1-1.329-.148l-2.009-.224v.02a.775.775 0 0 1-.666.658l-.105.006a.774.774 0 0 1-.763-.673l-.007-.105.002-.715a.779.779 0 0 1 .003-.14l-.002-.026c-1.09.43-1.826.912-2.218 1.412l-.088.12c-.62.925-2.034.525-2.121-.54l-.004-.121.902-71.736-.004-.67-.013-.66-.02-.656a47.62 47.62 0 0 0-.015-.329l-.035-.662-.045-.672-.055-.69-.102-1.078-.082-.757-.144-1.207-.171-1.31-.2-1.433-.616-4.237-.205-1.496-.13-1.002-.108-.917-.09-.847-.073-.793-.04-.507-.032-.494-.038-.728-.024-.727-.012-.741-.017-4.392-.01-5.294.002-3.731.014-5.047.022-4.012.039-4.588.072-5.75.058-3.389.066-3.237.108-4.288.069-2.327.155-4.399.108-2.583.14-2.94.127-2.324.107-1.78.141-2.13.149-2.03.157-1.934.13-1.483.172-1.776c.01-.1.033-.2.069-.294.366-.972.816-1.994 1.356-3.093l.375-.744.402-.77.43-.795.46-.824.488-.854.52-.887.549-.92.58-.955.614-.993.645-1.033c.308-.49.644-1.005 1.002-1.538l.55-.81.576-.826.596-.835.61-.837.619-.831.31-.411.62-.808.615-.782a67.168 67.168 0 0 1 1.75-2.12l.533-.605c.344-.384.665-.725.956-1.013a1.161 1.161 0 0 1 1.07-.31l.127.036 6.104 2.11c.26-.111.549-.152.837-.109l.142.028 2.232.547.204-.333a.774.774 0 0 1 .77-.364c.271-.63.537-1.264.794-1.904l.382-.964.062-.143a1.936 1.936 0 0 1 2.107-1.057Zm-.134 2.368-.27.684c-.295.73-.6 1.455-.912 2.172a.765.765 0 0 1-.295.668c-1.34 3-2.845 5.888-4.514 8.664-2.3 3.827-4.78 7.444-7.44 10.851l-.445.563.14 1.862c.076 1.036.147 2.081.215 3.136l.1 1.59.14 2.41.127 2.44c.077 1.536.147 3.09.21 4.663l.06 1.58.088 2.55.077 2.584c.023.866.045 1.738.065 2.615l.028 1.319.047 2.662.036 2.694.025 2.725.008 1.374.005 1.382.001 2.788-.01 2.82-.022 2.851c-.009.956-.02 1.917-.033 2.883l-.02 1.453-.05 2.93-.063 2.961-.035 1.493-.038 1.5-.085 3.025-.047 1.524-.05 1.532-.052 1.54c-.063 1.802-.294 3.737-.684 5.906l-.121.657-.129.66-.207 1.007-.15.7-.252 1.115-.186.803-.844 3.53-.61 2.61-.296 1.35-.19.936-.118.649-.071.44-.057.407-.057.505-.021.24-.024.353-.01.233-.007.233-.004.235-.002 74.32c0 .188.133.344.31.38l.077.008.776-.046 4.347-.27 2.739-.184 3.244-.23 2.452-.188 2.325-.189 1.66-.143 2.102-.192 1.974-.194 1.846-.196 1.3-.148 1.23-.149 1.157-.15 1.085-.15.684-.102 1.212-.19 1.745-.284c.578-.095 1.15-.192 1.718-.29l.848-.147 1.673-.3 1.643-.305 1.611-.31 1.578-.316 1.543-.32.759-.162.75-.162 1.471-.329 1.434-.332.352-.083.35-.084 1.375-.337.338-.084.335-.085 1.313-.341 1.271-.343 1.228-.345c.536-.153 1.058-.307 1.567-.462l.752-.231.496-.157c.784-.25 1.523-.498 2.213-.743l.51-.183.806-.302.194-.074.19-.075.728-.295c.7-.292 1.32-.577 1.853-.851.738-.38 1.286-.729 1.624-1.023.052-.045.097-.088.135-.126l.051-.055.045-.056-.01-1.346-.02-3.432-.007-3.908.01-2.547.03-2.82v-.278l-.014-.591-.005-.154-.007-.158-.034-.658-.05-.708-.063-.76-.018-.198-.018-.202-.085-.843-.098-.902-.12-1.032-.416-3.384-.262-2.212-.07-.67-.06-.71-.022-.492-.006-.386-.005-2.494-.019-3.254-.043-3.87-.078-4.845-.297-14.9-.088-5.287-.042-4.006-.008-2.892.006-1.534.015-1.476.028-1.73.032-1.437.05-1.756.032-.898.055-1.098.077-1.216.15-1.984.533-6.3.122-1.497.105-1.38.061-.861.054-.816.066-1.147.036-.718.04-1.014.023-.948.007-.892-.004-.568-.01-.551-.155-5.487-.139-4.4-.118-3.405-.188-4.92-.133-3.153-.139-3.053-.182-3.674-.23-4.2-.203-3.327-.212-3.17-.176-2.42-.136-1.75L98.015 88l-.19-2.194-.097-1.059-.098-1.034-.15-1.503-.155-1.447-.157-1.39-.107-.894-.108-.87-.165-1.256-.168-1.2-.114-.769-.174-1.105-.124-.745a59.7 59.7 0 0 0-.773-3.833.387.387 0 0 0-.194-.251l-.077-.03-42.569-12.017Zm-11.167 4.092L29.07 80.981l-.87 161.426 1.927.215V227.62a.774.774 0 0 1 1.542-.105l.007.105v15.174l1.547.172.001-73.397c0-.133.002-.262.005-.39l.012-.38.012-.252.016-.253.02-.255.056-.53.056-.42.069-.45.116-.659.106-.547.169-.813.26-1.177.27-1.167.45-80.984c0-.105.022-.21.064-.305l.049-.093 11.895-19.53-1.663-.576-12.213 20.231-.91 92.423a.774.774 0 0 1-.677.76l-.105.007a.774.774 0 0 1-.76-.677l-.006-.105.913-92.635a.774.774 0 0 1 .064-.3l.047-.093 11.817-19.574-1.928-.328Zm-2.392-1.835-.164.178c-.797.87-1.76 2.027-2.76 3.307l-.673.869c-.225.294-.45.593-.675.894l-.67.909-.659.912-.636.905a70.598 70.598 0 0 0-1.444 2.158l-.546.866-.613.987-.582.949-.55.912-.52.878-.49.845-.46.814-.22.395-.416.769c-.806 1.51-1.442 2.854-1.926 4.088l-.064.167-.125 1.294-.163 1.832-.125 1.53-.12 1.59-.115 1.654-.137 2.16-.128 2.266-.097 1.895-.136 2.983-.123 3.16-.111 3.346-.1 3.542-.058 2.474-.09 4.556-.062 4.144-.064 5.883-.027 3.894-.025 6.592-.002 4.577.009 5.282.02 4.609.016.7.017.463.036.699.032.476.084.996.053.528.094.845.155 1.245.14 1.043.22 1.565.423 2.887.214 1.51.184 1.38.157 1.27.13 1.18.073.748.061.722.051.704.041.692.031.684.022.685.016 1.038.001.352-.872 69.256.138-.073a12.5 12.5 0 0 1 1.564-.67l.35-.121.041-.012.862-159.759c0-.104.022-.207.064-.303l.047-.092 12.469-20.668c.124-.205.29-.374.483-.499l-1.55-.536Zm38.697 76.456c.642 0 1.162.52 1.162 1.16 0 1.898-.072 3.505-.224 5.297l-.148 1.557-.408 3.926-.083.869-.078.877-.109 1.338-.066.91-.09 1.403-.055.963-.05.989-.066 1.538-.055 1.613-.031 1.122-.026 1.163-.03 1.826-.02 1.933-.009 2.052v51.903a1.161 1.161 0 0 1-2.316.126l-.007-.126v-51.91l.006-1.433.01-1.377.025-1.966.036-1.856.048-1.756.038-1.122.067-1.616.05-1.037.057-1.01.06-.983.102-1.437.074-.937.079-.922.084-.912.239-2.335.29-2.81c.194-2.05.283-3.768.283-5.86 0-.64.52-1.16 1.161-1.16ZM36.49 81.342l-.103.172-.412 74.025.124-.552.21-1 .19-.965c.403-2.118.653-3.99.744-5.703l.022-.509.102-3.062.024-.76.023-.759.084-3.014.074-2.983.061-2.952.05-2.92c.02-1.29.037-2.572.05-3.844l.016-1.9.016-2.826.005-2.793c0-.926-.003-1.847-.008-2.762l-.007-1.37-.025-2.714-.036-2.683c-.018-1.186-.04-2.362-.065-3.529l-.04-1.743-.07-2.588-.083-2.557c-.029-.847-.06-1.689-.093-2.525l-.05-1.25-.11-2.479-.123-2.446c-.056-1.08-.116-2.151-.18-3.213l-.098-1.585-.156-2.351-.136-1.86Z" fill="#999" fill-rule="nonzero"/><path d="M1.163 142.996c0 18.779 4.03 34.003 8.999 34.003 4.97 0 9-15.224 9-34.003 0-18.774-4.03-33.997-9-33.997s-9 15.223-9 33.997" fill="#FF6868" opacity=".36" filter="url(#a)" transform="translate(20.837 54.001)"/><path d="M31.104 176.336a.968.968 0 0 1 .953.863l.006.113-.387 45.67a.968.968 0 0 1-1.93.097l-.005-.113.387-45.67a.968.968 0 0 1 .976-.96Z" fill="#FF6868" fill-rule="nonzero"/><g fill-rule="nonzero"><path d="m232.729 54.036.16.038 42.906 12.111a2.71 2.71 0 0 1 1.898 1.974c.244 1.015.48 2.158.707 3.433l.097.555.126.755.118.74.116.764.115.79.17 1.231.22 1.73.107.903.211 1.881.103.979.202 2.032.147 1.59.144 1.647.187 2.284.136 1.779.176 2.46.128 1.911.165 2.637.237 4.144.113 2.157.181 3.721.172 3.879.162 4.036.123 3.343.117 3.444.164 5.354.102 3.697.011.573.004.59-.007.922-.014.644-.021.67-.046 1.064-.062 1.143-.109 1.664-.1 1.368-.119 1.482-.508 5.983-.125 1.558-.095 1.292-.038.57-.06 1.043-.046 1.093-.038 1.24-.037 1.436-.028 1.378-.007.404-.006.407-.018 1.653-.008 1.725v.955l.014 2.666.045 3.82.105 6.065.247 12.203.084 4.917.054 4.345.025 3.648.005 1.825v.925l.004.352.023.532.068.797.13 1.185.227 1.854c-.784.041-1.554.13-2.31.263l-.043-.354-.262-2.212-.07-.67-.06-.71-.022-.492-.006-.386-.005-2.494-.019-3.254-.043-3.87-.078-4.845-.297-14.9-.088-5.287-.042-4.006-.008-2.892.006-1.534.015-1.476.028-1.73.032-1.437.05-1.756.032-.898.055-1.098.077-1.216.15-1.984.533-6.3.122-1.497.105-1.38.061-.861.054-.816.066-1.147.036-.718.04-1.014.023-.948.007-.892-.004-.568-.01-.551-.155-5.487-.139-4.4-.118-3.405-.188-4.92-.133-3.153-.139-3.053-.182-3.674-.23-4.2-.203-3.327-.212-3.17-.176-2.42-.136-1.75-.092-1.136-.19-2.194-.097-1.059-.098-1.034-.15-1.503-.155-1.447-.157-1.39-.107-.894-.108-.87-.165-1.256-.168-1.2-.114-.769-.174-1.105-.124-.745a59.7 59.7 0 0 0-.773-3.833.387.387 0 0 0-.194-.251l-.077-.03-42.569-12.017-.27.684c-.295.73-.6 1.455-.912 2.172a.765.765 0 0 1-.295.668c-1.34 3-2.845 5.888-4.514 8.664-2.3 3.827-4.78 7.444-7.44 10.851l-.445.563.14 1.862c.076 1.036.147 2.081.215 3.136l.1 1.59.14 2.41.127 2.44c.077 1.536.147 3.09.21 4.663l.06 1.58.088 2.55.077 2.584c.023.866.045 1.738.065 2.615l.028 1.319.047 2.662.036 2.694.025 2.725.008 1.374.005 1.382.001 2.788-.01 2.82-.022 2.851c-.009.956-.02 1.917-.033 2.883l-.02 1.453-.05 2.93-.063 2.961-.035 1.493-.038 1.5-.085 3.025-.047 1.524-.05 1.532-.052 1.54c-.063 1.802-.294 3.737-.684 5.906l-.121.657-.129.66-.207 1.007-.15.7-.252 1.115-.186.803-.844 3.53-.61 2.61-.296 1.35-.19.936-.118.649-.071.44-.057.407-.057.505-.021.24-.024.353-.01.233-.007.233-.004.235-.002 74.32c0 .188.133.344.31.38l.077.008.776-.046 4.347-.27 2.739-.184 3.244-.23 2.452-.188 2.325-.189 1.66-.143 2.102-.192 1.974-.194 1.846-.196 1.3-.148 1.23-.149 1.157-.15 1.085-.15.684-.102 1.212-.19 1.745-.284c.578-.095 1.15-.192 1.718-.29l.848-.147 1.673-.3 1.643-.305 1.611-.31 1.578-.316 1.543-.32.759-.162.75-.162 1.471-.329 1.434-.332.352-.083.35-.084 1.375-.337.338-.084.335-.085 1.313-.341.043-.012c.446.703.936 1.374 1.468 2.01l-.896.241-1.333.346-.681.172-.692.171-1.414.34-.721.17-.731.167-1.49.333-.379.082-.38.083-1.545.326-1.579.322-1.613.317-.408.078-.41.078-1.661.308-1.692.303-.427.075-.43.074-1.735.293-1.32.216-1.334.211-.335.052-1.052.154-.741.102-1.172.152-1.672.201-.884.1-1.386.148-1.958.197-2.086.194-2.786.24-2.371.19-2.5.188-3.303.232-3.502.23-3.7.225-.101.004-.225-.004a2.711 2.711 0 0 1-2.437-1.949l-1.808-.201a.773.773 0 0 1-1.329-.148l-2.009-.224v.02a.775.775 0 0 1-.666.658l-.105.006a.774.774 0 0 1-.763-.673l-.007-.105.002-.715a.779.779 0 0 1 .003-.14l-.002-.026c-1.09.43-1.826.912-2.218 1.412l-.088.12c-.62.925-2.034.525-2.121-.54l-.004-.121.902-71.736-.004-.67-.013-.66-.02-.656a47.62 47.62 0 0 0-.015-.329l-.035-.662-.045-.672-.055-.69-.102-1.078-.082-.757-.144-1.207-.171-1.31-.2-1.433-.616-4.237-.205-1.496-.13-1.002-.108-.917-.09-.847-.073-.793-.04-.507-.032-.494-.038-.728-.024-.727-.012-.741-.017-4.392-.01-5.294.002-3.731.014-5.047.022-4.012.039-4.588.072-5.75.058-3.389.066-3.237.108-4.288.069-2.327.155-4.399.108-2.583.14-2.94.127-2.324.107-1.78.141-2.13.149-2.03.157-1.934.13-1.483.172-1.776c.01-.1.033-.2.069-.294.366-.972.816-1.994 1.356-3.093l.375-.744.402-.77.43-.795.46-.824.488-.854.52-.887.549-.92.58-.955.614-.993.645-1.033c.308-.49.644-1.005 1.002-1.538l.55-.81.576-.826.596-.835.61-.837.619-.831.31-.411.62-.808.615-.782a67.168 67.168 0 0 1 1.75-2.12l.533-.605c.344-.384.665-.725.956-1.013a1.161 1.161 0 0 1 1.07-.31l.127.036 6.104 2.11c.26-.111.549-.152.837-.109l.142.028 2.232.547.204-.333a.774.774 0 0 1 .77-.364c.271-.63.537-1.264.794-1.904l.382-.964.062-.143a1.936 1.936 0 0 1 2.107-1.057Zm-11.3 6.46L209.07 80.981l-.87 161.426 1.927.215V227.62a.774.774 0 0 1 1.542-.105l.007.105v15.174l1.547.172.001-73.397c0-.133.002-.262.005-.39l.012-.38.012-.252.016-.253.02-.255.056-.53.056-.42.069-.45.116-.659.106-.547.169-.813.26-1.177.27-1.167.45-80.984c0-.105.022-.21.064-.305l.049-.093 11.895-19.53-1.663-.576-12.213 20.231-.91 92.423a.774.774 0 0 1-.677.76l-.105.007a.774.774 0 0 1-.76-.677l-.006-.105.913-92.635a.774.774 0 0 1 .064-.3l.047-.093 11.817-19.574-1.928-.328Zm-2.393-1.835-.164.178c-.797.87-1.76 2.027-2.76 3.307l-.673.869c-.225.294-.45.593-.675.894l-.67.909-.659.912-.636.905a70.598 70.598 0 0 0-1.444 2.158l-.546.866-.613.987-.582.949-.55.912-.52.878-.49.845-.46.814-.22.395-.416.769c-.806 1.51-1.442 2.854-1.926 4.088l-.064.167-.125 1.294-.163 1.832-.125 1.53-.12 1.59-.115 1.654-.137 2.16-.128 2.266-.097 1.895-.136 2.983-.123 3.16-.111 3.346-.1 3.542-.058 2.474-.09 4.556-.062 4.144-.064 5.883-.027 3.894-.025 6.592-.002 4.577.009 5.282.02 4.609.016.7.017.463.036.699.032.476.084.996.053.528.094.845.155 1.245.14 1.043.22 1.565.423 2.887.214 1.51.184 1.38.157 1.27.13 1.18.073.748.061.722.051.704.041.692.031.684.022.685.016 1.038.001.352-.872 69.256.138-.073a12.5 12.5 0 0 1 1.564-.67l.35-.121.041-.012.862-159.759c0-.104.022-.207.064-.303l.047-.092 12.469-20.668c.124-.205.29-.374.483-.499l-1.55-.536Zm38.697 76.456c.642 0 1.162.52 1.162 1.16 0 1.898-.072 3.505-.224 5.297l-.148 1.557-.408 3.926-.083.869-.078.877-.109 1.338-.066.91-.09 1.403-.055.963-.05.989-.066 1.538-.055 1.613-.031 1.122-.026 1.163-.03 1.826-.02 1.933-.009 2.052v51.903a1.161 1.161 0 0 1-2.316.126l-.007-.126v-51.91l.006-1.433.01-1.377.025-1.966.036-1.856.048-1.756.038-1.122.067-1.616.05-1.037.057-1.01.06-.983.102-1.437.074-.937.079-.922.084-.912.239-2.335.29-2.81c.194-2.05.283-3.768.283-5.86 0-.64.52-1.16 1.161-1.16ZM216.49 81.342l-.103.172-.412 74.025.124-.552.21-1 .19-.965c.403-2.118.653-3.99.744-5.703l.022-.509.102-3.062.024-.76.023-.759.084-3.014.074-2.983.061-2.952.05-2.92c.02-1.29.037-2.572.05-3.844l.016-1.9.016-2.826.005-2.793c0-.926-.003-1.847-.008-2.762l-.007-1.37-.025-2.714-.036-2.683c-.018-1.186-.04-2.362-.065-3.529l-.04-1.743-.07-2.588-.083-2.557c-.029-.847-.06-1.689-.093-2.525l-.05-1.25-.11-2.479-.123-2.446c-.056-1.08-.116-2.151-.18-3.213l-.098-1.585-.156-2.351-.136-1.86Z" fill-opacity=".7" fill="#999"/><path d="M211.104 176.336a.968.968 0 0 1 .953.863l.006.113-.387 45.67a.968.968 0 0 1-1.93.097l-.005-.113.387-45.67a.968.968 0 0 1 .976-.96Z" fill="#C7C7C7"/></g><path d="M291.98 226a23.583 23.583 0 0 0-.492-3.999h3.515c.522 1.246.853 2.592.96 4h-3.983Zm-.492 6.003c.268-1.266.44-2.608.492-4.003h3.98a12.834 12.834 0 0 1-.957 4.003h-3.515Zm-.522 2h2.991a13.073 13.073 0 0 1-5.347 4.728c.967-1.286 1.772-2.893 2.356-4.729Zm-6.965 0h4.9c-1.075 3.113-2.847 5.32-4.9 5.87v-5.87Zm0-6.003h5.98a22.26 22.26 0 0 1-.52 4.003H284V228Zm0-5.999h5.46c.284 1.246.457 2.592.52 4H284v-4Zm0-7.873c2.053.549 3.825 2.758 4.9 5.87H284v-5.87Zm6.965 5.87c-.584-1.834-1.385-3.445-2.356-4.729a13.087 13.087 0 0 1 5.347 4.729h-2.99Zm-8.967 0h-4.9c1.075-3.112 2.845-5.321 4.9-5.87v5.87Zm0 6.002h-5.98c.059-1.407.236-2.753.518-3.999H282v4Zm0 6.003h-5.462a22.446 22.446 0 0 1-.518-4.003H282v4.003Zm0 7.87c-2.055-.55-3.825-2.757-4.9-5.87h4.9v5.87Zm-6.963-5.87c.584 1.835 1.387 3.446 2.354 4.728a13.066 13.066 0 0 1-5.349-4.729h2.995ZM274.02 228c.055 1.395.224 2.737.492 4.003h-3.517a13.005 13.005 0 0 1-.957-4.003h3.982Zm.492-5.999a23.79 23.79 0 0 0-.492 4h-3.982c.106-1.408.439-2.754.957-4h3.517Zm.526-2.003h-2.997a13.08 13.08 0 0 1 5.349-4.729c-.965 1.284-1.768 2.895-2.352 4.729ZM297.964 226c-.492-7.49-6.476-13.476-13.963-13.968V212h-2.002v.032c-7.487.492-13.473 6.478-13.965 13.968H268v2h.034c.492 7.49 6.478 13.474 13.965 13.966V242h2.002v-.034c7.487-.492 13.471-6.476 13.963-13.966H298v-2h-.036Z" fill="#009FD1"/><path d="M184 150v-1h-2v1h2Zm-5 0v-1h-2v1h2Zm-5 0v-1h-2v1h2Zm-5 0v-1h-2v1h2Zm-5 0v-1h-2v1h2Zm-5 0v-1h-2v1h2Zm-5 0v-1h-2v1h2Zm-5 0v-1h-2v1h2Zm-5 0v-1h-2v1h2Zm-5 0v-1h-2v1h2Zm-5 0v-1h-2v1h2Zm-5 0v-1h-2v1h2Zm-5 0v-1h-2v1h2Z" fill="#979797" fill-rule="nonzero"/></g></svg>